<?xml version="1.0" standalone="no"?>
<!DOCTYPE svg PUBLIC "-//W3C//DTD SVG 1.1//EN" "http://www.w3.org/Graphics/SVG/1.1/DTD/svg11.dtd" >
<svg xmlns="http://www.w3.org/2000/svg" xmlns:xlink="http://www.w3.org/1999/xlink" version="1.1">
<metadata>
Created by FontForge 20170910 at Wed May 31 04:49:02 2017
 By Jimmy Wärting
(c) 2015-2017 Apple Inc. All rights reserved.
</metadata>
<defs>
<font id="SFProDisplay-Bold" horiz-adv-x="1702" >
  <font-face 
    font-family="SF Pro Display"
    font-weight="700"
    font-stretch="normal"
    units-per-em="2048"
    panose-1="0 0 8 0 0 0 0 0 0 0"
    ascent="1638"
    descent="-410"
    x-height="1072"
    cap-height="1443"
    bbox="-585 -537 2631 2178"
    underline-thickness="190"
    underline-position="-375"
    stemh="242"
    stemv="295"
    unicode-range="U+0020-1F189"
  />
<missing-glyph horiz-adv-x="2048" 
d="M100 -494v206h1848v-206h-1848zM100 -46v206h1848v-206h-1848zM100 401v206h1848v-206h-1848zM100 849v206h1848v-206h-1848zM100 1296v206h1848v-206h-1848zM100 1744v206h1848v-206h-1848z" />
    <glyph glyph-name="uni24B6" unicode="A&#x20dd;" 
d="M778 688h147l-69 246h-9zM705 408h-200l226 692h241l225 -692h-199l-40 139h-214zM851 121c332 0 591 269 591 599c0 331 -259 599 -591 599s-590 -268 -590 -599c0 -330 258 -599 590 -599zM851 -55c-431 0 -774 345 -774 776s343 775 774 775s775 -344 775 -775
s-344 -776 -775 -776z" />
    <glyph glyph-name="uni24B7" unicode="B&#x20dd;" 
d="M582 383v692h343c133 0 216 -64 216 -170c0 -80 -54 -137 -132 -151v-7c98 -11 163 -73 163 -173c0 -116 -99 -191 -240 -191h-350zM768 948v-152h79c74 0 109 27 109 78c0 46 -34 74 -89 74h-99zM768 685v-169h87c85 0 122 29 122 84c0 52 -38 85 -104 85h-105zM851 121
c332 0 591 269 591 599c0 331 -259 599 -591 599s-590 -268 -590 -599c0 -330 258 -599 590 -599zM851 -55c-431 0 -774 345 -774 776s343 775 774 775s775 -344 775 -775s-344 -776 -775 -776z" />
    <glyph glyph-name="uni24B8" unicode="C&#x20dd;" 
d="M981 633h186c-12 -155 -136 -262 -316 -262c-194 0 -338 135 -338 357s144 358 338 358c182 0 306 -109 317 -267h-185c-5 63 -60 108 -129 108c-86 0 -143 -74 -143 -199c0 -124 57 -198 143 -198c67 0 122 44 127 103zM851 121c332 0 591 269 591 599
c0 331 -259 599 -591 599s-590 -268 -590 -599c0 -330 258 -599 590 -599zM851 -55c-431 0 -774 345 -774 776s343 775 774 775s775 -344 775 -775s-344 -776 -775 -776z" />
    <glyph glyph-name="uni24B9" unicode="D&#x20dd;" 
d="M582 1075h298c214 0 324 -123 324 -346c0 -222 -110 -346 -324 -346h-298v692zM774 923v-389h75c107 0 154 61 154 194c0 134 -47 195 -154 195h-75zM851 121c332 0 591 269 591 599c0 331 -259 599 -591 599s-590 -268 -590 -599c0 -330 258 -599 590 -599zM851 -55
c-431 0 -774 345 -774 776s343 775 774 775s775 -344 775 -775s-344 -776 -775 -776z" />
    <glyph glyph-name="uni24BA" unicode="E&#x20dd;" 
d="M1109 532v-149h-495v692h495v-149h-306v-130h287v-130h-287v-134h306zM851 121c332 0 591 269 591 599c0 331 -259 599 -591 599s-590 -268 -590 -599c0 -330 258 -599 590 -599zM851 -55c-431 0 -774 345 -774 776s343 775 774 775s775 -344 775 -775
s-344 -776 -775 -776z" />
    <glyph glyph-name="uni24BB" unicode="F&#x20dd;" 
d="M829 383h-198v692h493v-152h-295v-139h268v-151h-268v-250zM851 121c332 0 591 269 591 599c0 331 -259 599 -591 599s-590 -268 -590 -599c0 -330 258 -599 590 -599zM851 -55c-431 0 -774 345 -774 776s343 775 774 775s775 -344 775 -775s-344 -776 -775 -776z" />
    <glyph glyph-name="uni24BC" unicode="G&#x20dd;" 
d="M984 612v31h-127v122h309v-121c0 -156 -116 -273 -314 -273c-202 0 -339 143 -339 357s137 358 339 358c170 0 297 -97 316 -244h-190c-7 56 -56 95 -123 95c-87 0 -144 -83 -144 -209c0 -127 58 -213 144 -213c84 0 129 41 129 97zM851 121c332 0 591 269 591 599
c0 331 -259 599 -591 599s-590 -268 -590 -599c0 -330 258 -599 590 -599zM851 -55c-431 0 -774 345 -774 776s343 775 774 775s775 -344 775 -775s-344 -776 -775 -776z" />
    <glyph glyph-name="uni24BD" unicode="H&#x20dd;" 
d="M1161 383h-187v268h-245v-268h-187v692h187v-265h245v265h187v-692zM851 121c332 0 591 269 591 599c0 331 -259 599 -591 599s-590 -268 -590 -599c0 -330 258 -599 590 -599zM851 -55c-431 0 -774 345 -774 776s343 775 774 775s775 -344 775 -775s-344 -776 -775 -776
z" />
    <glyph glyph-name="uni24BE" unicode="I&#x20dd;" 
d="M958 383h-214v692h214v-692zM851 121c332 0 591 269 591 599c0 331 -259 599 -591 599s-590 -268 -590 -599c0 -330 258 -599 590 -599zM851 -55c-431 0 -774 345 -774 776s343 775 774 775s775 -344 775 -775s-344 -776 -775 -776z" />
    <glyph glyph-name="uni24BF" unicode="J&#x20dd;" 
d="M553 617h194c0 -52 27 -81 74 -81c49 0 73 31 73 91v438h201v-441c0 -165 -103 -263 -270 -263c-171 0 -272 105 -272 256zM851 121c332 0 591 269 591 599c0 331 -259 599 -591 599s-590 -268 -590 -599c0 -330 258 -599 590 -599zM851 -55c-431 0 -774 345 -774 776
s343 775 774 775s775 -344 775 -775s-344 -776 -775 -776z" />
    <glyph glyph-name="uni24C0" unicode="K&#x20dd;" 
d="M1185 1075l-229 -313l235 -379h-225l-158 259l-64 -75v-184h-182v692h182v-293h6l221 293h214zM851 121c332 0 591 269 591 599c0 331 -259 599 -591 599s-590 -268 -590 -599c0 -330 258 -599 590 -599zM851 -55c-431 0 -774 345 -774 776s343 775 774 775
s775 -344 775 -775s-344 -776 -775 -776z" />
    <glyph glyph-name="uni24C1" unicode="L&#x20dd;" 
d="M1133 557v-164h-488v692h204v-528h284zM851 121c332 0 591 269 591 599c0 331 -259 599 -591 599s-590 -268 -590 -599c0 -330 258 -599 590 -599zM851 -55c-431 0 -774 345 -774 776s343 775 774 775s775 -344 775 -775s-344 -776 -775 -776z" />
    <glyph glyph-name="uni24C2" unicode="M&#x20dd;" 
d="M649 383h-151v692h190l162 -456h5l162 456h189v-692h-152v424h-7l-140 -387h-112l-139 387h-7v-424zM851 121c332 0 591 269 591 599c0 331 -259 599 -591 599s-590 -268 -590 -599c0 -330 258 -599 590 -599zM851 -55c-431 0 -774 345 -774 776s343 775 774 775
s775 -344 775 -775s-344 -776 -775 -776z" />
    <glyph glyph-name="uni24C3" unicode="N&#x20dd;" 
d="M723 383h-174v692h144l279 -391h7v391h174v-692h-142l-281 396h-7v-396zM851 121c332 0 591 269 591 599c0 331 -259 599 -591 599s-590 -268 -590 -599c0 -330 258 -599 590 -599zM851 -55c-431 0 -774 345 -774 776s343 775 774 775s775 -344 775 -775
s-344 -776 -775 -776z" />
    <glyph glyph-name="uni24C4" unicode="O&#x20dd;" 
d="M851 530c78 0 141 66 141 198c0 133 -63 199 -141 199s-141 -66 -141 -199c0 -132 63 -198 141 -198zM851 371c-190 0 -339 129 -339 357c0 229 149 358 339 358s339 -129 339 -358c0 -228 -149 -357 -339 -357zM851 121c332 0 591 269 591 599c0 331 -259 599 -591 599
s-590 -268 -590 -599c0 -330 258 -599 590 -599zM851 -55c-431 0 -774 345 -774 776s343 775 774 775s775 -344 775 -775s-344 -776 -775 -776z" />
    <glyph glyph-name="uni24C5" unicode="P&#x20dd;" 
d="M923 1075c159 0 258 -103 258 -251c0 -147 -99 -246 -260 -246h-111v-195h-202v692h315zM986 824c0 67 -34 102 -98 102h-89v-203h89c64 0 98 35 98 101zM851 121c332 0 591 269 591 599c0 331 -259 599 -591 599s-590 -268 -590 -599c0 -330 258 -599 590 -599zM851 -55
c-431 0 -774 345 -774 776s343 775 774 775s775 -344 775 -775s-344 -776 -775 -776z" />
    <glyph glyph-name="uni24C6" unicode="Q&#x20dd;" 
d="M1170 322h-190l-35 62c-29 -9 -61 -13 -94 -13c-190 0 -339 129 -339 357c0 229 149 358 339 358s339 -129 339 -358c0 -122 -42 -215 -111 -276zM851 530c11 0 21 1 31 4l-54 98h110l22 -30c20 30 32 73 32 126c0 133 -63 199 -141 199s-141 -66 -141 -199
c0 -132 63 -198 141 -198zM851 121c332 0 591 269 591 599c0 331 -259 599 -591 599s-590 -268 -590 -599c0 -330 258 -599 590 -599zM851 -55c-431 0 -774 345 -774 776s343 775 774 775s775 -344 775 -775s-344 -776 -775 -776z" />
    <glyph glyph-name="uni24C7" unicode="R&#x20dd;" 
d="M887 1075c175 0 275 -84 275 -224c0 -98 -56 -167 -135 -193l149 -275h-208l-117 240h-93v-240h-183v692h312zM758 753h105c62 0 100 31 100 87c0 59 -37 90 -98 90h-107v-177zM851 121c332 0 591 269 591 599c0 331 -259 599 -591 599s-590 -268 -590 -599
c0 -330 258 -599 590 -599zM851 -55c-431 0 -774 345 -774 776s343 775 774 775s775 -344 775 -775s-344 -776 -775 -776z" />
    <glyph glyph-name="uni24C8" unicode="S&#x20dd;" 
d="M552 585h190c6 -44 50 -72 114 -72c65 0 107 27 107 70c0 35 -26 52 -109 68l-90 17c-129 22 -199 91 -199 197c0 134 114 221 287 221c163 0 276 -82 285 -208h-184c-6 43 -44 69 -101 69c-58 0 -95 -27 -95 -67c0 -32 27 -52 99 -64l97 -18c133 -23 198 -88 198 -198
c0 -140 -118 -229 -302 -229c-179 0 -291 81 -297 214zM851 121c332 0 591 269 591 599c0 331 -259 599 -591 599s-590 -268 -590 -599c0 -330 258 -599 590 -599zM851 -55c-431 0 -774 345 -774 776s343 775 774 775s775 -344 775 -775s-344 -776 -775 -776z" />
    <glyph glyph-name="uni24C9" unicode="T&#x20dd;" 
d="M953 360h-204v532h-195v161h594v-161h-195v-532zM851 121c332 0 591 269 591 599c0 331 -259 599 -591 599s-590 -268 -590 -599c0 -330 258 -599 590 -599zM851 -55c-431 0 -774 345 -774 776s343 775 774 775s775 -344 775 -775s-344 -776 -775 -776z" />
    <glyph glyph-name="uni24CA" unicode="U&#x20dd;" 
d="M851 508c67 0 111 40 111 109v436h196v-454c0 -145 -121 -251 -307 -251c-185 0 -306 106 -306 251v454h195v-436c0 -69 45 -109 111 -109zM851 121c332 0 591 269 591 599c0 331 -259 599 -591 599s-590 -268 -590 -599c0 -330 258 -599 590 -599zM851 -55
c-431 0 -774 345 -774 776s343 775 774 775s775 -344 775 -775s-344 -776 -775 -776z" />
    <glyph glyph-name="uni24CB" unicode="V&#x20dd;" 
d="M718 355l-213 693h220l123 -515h7l123 515h219l-213 -693h-266zM851 121c332 0 591 269 591 599c0 331 -259 599 -591 599s-590 -268 -590 -599c0 -330 258 -599 590 -599zM851 -55c-431 0 -774 345 -774 776s343 775 774 775s775 -344 775 -775s-344 -776 -775 -776z
" />
    <glyph glyph-name="uni24CC" unicode="W&#x20dd;" 
d="M848 794l-104 -434h-169l-162 693h179l81 -467h7l101 467h141l101 -467h7l81 467h178l-161 -693h-169l-105 434h-6zM851 121c332 0 591 269 591 599c0 331 -259 599 -591 599s-590 -268 -590 -599c0 -330 258 -599 590 -599zM851 -55c-431 0 -774 345 -774 776
s343 775 774 775s775 -344 775 -775s-344 -776 -775 -776z" />
    <glyph glyph-name="uni24CD" unicode="X&#x20dd;" 
d="M1185 1075l-216 -347l215 -345h-212l-121 228h-7l-121 -228h-216l219 347l-218 345h222l119 -229h7l119 229h210zM851 121c332 0 591 269 591 599c0 331 -259 599 -591 599s-590 -268 -590 -599c0 -330 258 -599 590 -599zM851 -55c-431 0 -774 345 -774 776
s343 775 774 775s775 -344 775 -775s-344 -776 -775 -776z" />
    <glyph glyph-name="uni24CE" unicode="Y&#x20dd;" 
d="M956 368h-209v228l-238 464h220l120 -276h6l120 276h218l-237 -463v-229zM851 121c332 0 591 269 591 599c0 331 -259 599 -591 599s-590 -268 -590 -599c0 -330 258 -599 590 -599zM851 -55c-431 0 -774 345 -774 776s343 775 774 775s775 -344 775 -775
s-344 -776 -775 -776z" />
    <glyph glyph-name="uni24CF" unicode="Z&#x20dd;" 
d="M578 383v125l300 403v8h-299v156h540v-126l-300 -402v-8h311v-156h-552zM851 121c332 0 591 269 591 599c0 331 -259 599 -591 599s-590 -268 -590 -599c0 -330 258 -599 590 -599zM851 -55c-431 0 -774 345 -774 776s343 775 774 775s775 -344 775 -775
s-344 -776 -775 -776z" />
    <glyph glyph-name="uni24EA" unicode="&#x23;&#x20dd;" 
d="M851 526c62 0 103 62 103 202s-41 202 -103 202s-102 -62 -102 -202s40 -202 102 -202zM849 371c-174 0 -290 132 -290 357c0 224 116 357 290 357s294 -133 294 -357c0 -225 -120 -357 -294 -357zM851 121c332 0 591 269 591 599c0 331 -259 599 -591 599
s-590 -268 -590 -599c0 -330 258 -599 590 -599zM851 -55c-431 0 -774 345 -774 776s343 775 774 775s775 -344 775 -775s-344 -776 -775 -776z" />
    <glyph glyph-name="uni2460" unicode="&#x31;&#x20dd;" 
d="M986 383h-201v517h-7l-160 -108v171l167 112h201v-692zM851 121c332 0 591 269 591 599c0 331 -259 599 -591 599s-590 -268 -590 -599c0 -330 258 -599 590 -599zM851 -55c-431 0 -774 345 -774 776s343 775 774 775s775 -344 775 -775s-344 -776 -775 -776z" />
    <glyph glyph-name="uni2461" unicode="&#x32;&#x20dd;" 
d="M767 848h-186v3c0 132 98 235 272 235c157 0 263 -86 263 -205c0 -80 -50 -141 -131 -215l-122 -121v-7h264v-156h-534v123l249 239c48 45 77 78 77 120c0 41 -31 68 -74 68c-51 0 -79 -35 -78 -81v-3zM851 121c332 0 591 269 591 599c0 331 -259 599 -591 599
s-590 -268 -590 -599c0 -330 258 -599 590 -599zM851 -55c-431 0 -774 345 -774 776s343 775 774 775s775 -344 775 -775s-344 -776 -775 -776z" />
    <glyph glyph-name="uni2462" unicode="&#x33;&#x20dd;" 
d="M776 662v145h70c49 0 84 29 84 72c0 39 -35 66 -84 66c-54 0 -89 -34 -91 -77h-183c5 134 101 218 277 218c165 0 270 -75 272 -185c1 -81 -70 -140 -132 -149v-10c74 -6 149 -64 150 -163c1 -129 -120 -208 -292 -208c-174 0 -281 92 -283 219h183c2 -43 41 -73 99 -74
c60 0 99 31 99 74c-1 43 -37 72 -97 72h-72zM851 121c332 0 591 269 591 599c0 331 -259 599 -591 599s-590 -268 -590 -599c0 -330 258 -599 590 -599zM851 -55c-431 0 -774 345 -774 776s343 775 774 775s775 -344 775 -775s-344 -776 -775 -776z" />
    <glyph glyph-name="uni2463" unicode="&#x34;&#x20dd;" 
d="M775 1075h271v-431h95v-148h-95v-113h-168v113h-346v151c75 146 153 277 243 428zM704 644h174v308h-7c-57 -94 -122 -213 -167 -306v-2zM851 121c332 0 591 269 591 599c0 331 -259 599 -591 599s-590 -268 -590 -599c0 -330 258 -599 590 -599zM851 -55
c-431 0 -774 345 -774 776s343 775 774 775s775 -344 775 -775s-344 -776 -775 -776z" />
    <glyph glyph-name="uni2464" unicode="&#x35;&#x20dd;" 
d="M582 589h185c8 -43 50 -66 95 -66c51 0 97 39 97 100c0 55 -44 94 -98 94c-44 0 -75 -25 -88 -49h-177l27 412h481v-142h-330l-12 -152h9c19 32 74 65 150 65c132 0 229 -84 229 -223c0 -153 -113 -252 -290 -252c-163 0 -275 89 -278 213zM851 121
c332 0 591 269 591 599c0 331 -259 599 -591 599s-590 -268 -590 -599c0 -330 258 -599 590 -599zM851 -55c-431 0 -774 345 -774 776s343 775 774 775s775 -344 775 -775s-344 -776 -775 -776z" />
    <glyph glyph-name="uni2465" unicode="&#x36;&#x20dd;" 
d="M1126 896h-181c-11 25 -37 48 -83 48c-76 0 -124 -81 -116 -199v0h8c24 51 77 90 163 90c125 0 224 -78 224 -216c0 -154 -116 -248 -284 -248c-106 0 -194 38 -249 125c-36 57 -55 132 -55 228c0 237 119 362 308 362c153 0 255 -89 265 -190zM759 614
c0 -60 42 -97 97 -97s96 35 96 96s-44 95 -96 95c-57 0 -97 -39 -97 -94zM851 121c332 0 591 269 591 599c0 331 -259 599 -591 599s-590 -268 -590 -599c0 -330 258 -599 590 -599zM851 -55c-431 0 -774 345 -774 776s343 775 774 775s775 -344 775 -775
s-344 -776 -775 -776z" />
    <glyph glyph-name="uni2466" unicode="&#x37;&#x20dd;" 
d="M589 1070h543v-157l-274 -535h-213l284 529v8h-340v155zM851 121c332 0 591 269 591 599c0 331 -259 599 -591 599s-590 -268 -590 -599c0 -330 258 -599 590 -599zM851 -55c-431 0 -774 345 -774 776s343 775 774 775s775 -344 775 -775s-344 -776 -775 -776z" />
    <glyph glyph-name="uni2467" unicode="&#x38;&#x20dd;" 
d="M851 502c59 0 102 38 102 90s-42 90 -102 90c-59 0 -102 -39 -102 -90c0 -52 43 -90 102 -90zM851 802c49 0 84 33 84 77s-36 76 -84 76s-84 -32 -84 -76s36 -77 84 -77zM850 371c-185 0 -304 80 -304 206c0 88 62 153 156 167v8c-83 24 -127 75 -127 149
c0 111 109 185 276 185s276 -74 276 -185c0 -74 -44 -126 -127 -149v-8c95 -14 156 -79 156 -166c0 -127 -120 -207 -306 -207zM851 121c332 0 591 269 591 599c0 331 -259 599 -591 599s-590 -268 -590 -599c0 -330 258 -599 590 -599zM851 -55c-431 0 -774 345 -774 776
s343 775 774 775s775 -344 775 -775s-344 -776 -775 -776z" />
    <glyph glyph-name="uni2468" unicode="&#x39;&#x20dd;" 
d="M562 841c0 148 121 246 286 246c174 0 301 -105 301 -352c0 -234 -109 -364 -308 -364c-152 0 -252 86 -263 189h183c11 -25 39 -46 81 -46c86 0 127 89 117 198h-7c-23 -53 -79 -91 -161 -91c-132 0 -229 82 -229 220zM944 843c0 61 -41 98 -96 98
c-54 0 -96 -37 -96 -97c0 -61 43 -96 97 -96c53 0 95 35 95 95zM851 121c332 0 591 269 591 599c0 331 -259 599 -591 599s-590 -268 -590 -599c0 -330 258 -599 590 -599zM851 -55c-431 0 -774 345 -774 776s343 775 774 775s775 -344 775 -775s-344 -776 -775 -776z" />
    <glyph glyph-name="plus.uc.whitecircle" unicode="&#x2b;&#x20dd;" 
d="M938 645v-210h-173v210h-206v165h206v207h173v-207h205v-165h-205zM851 121c332 0 591 269 591 599c0 331 -259 599 -591 599s-590 -268 -590 -599c0 -330 258 -599 590 -599zM851 -55c-431 0 -774 345 -774 776s343 775 774 775s775 -344 775 -775s-344 -776 -775 -776z
" />
    <glyph glyph-name="minus.uc.whitecircle" unicode="&#x2212;&#x20dd;" 
d="M1116 640h-530v171h530v-171zM851 121c332 0 591 269 591 599c0 331 -259 599 -591 599s-590 -268 -590 -599c0 -330 258 -599 590 -599zM851 -55c-431 0 -774 345 -774 776s343 775 774 775s775 -344 775 -775s-344 -776 -775 -776z" />
    <glyph glyph-name="multiply.uc.whitecircle" unicode="&#xd7;&#x20dd;" 
d="M851 847l159 155l123 -121l-159 -156l159 -155l-123 -120l-159 155l-160 -155l-121 120l159 155l-160 157l122 120zM851 121c332 0 591 269 591 599c0 331 -259 599 -591 599s-590 -268 -590 -599c0 -330 258 -599 590 -599zM851 -55c-431 0 -774 345 -774 776
s343 775 774 775s775 -344 775 -775s-344 -776 -775 -776z" />
    <glyph glyph-name="divide.uc.whitecircle" unicode="&#xf7;&#x20dd;" 
d="M1116 659h-530v133h530v-133zM754 948c0 52 42 88 97 88c56 0 99 -36 99 -88c0 -50 -43 -86 -99 -86c-55 0 -97 36 -97 86zM754 505c0 51 42 88 97 88c56 0 99 -37 99 -88c0 -50 -43 -87 -99 -87c-55 0 -97 37 -97 87zM851 121c332 0 591 269 591 599
c0 331 -259 599 -591 599s-590 -268 -590 -599c0 -330 258 -599 590 -599zM851 -55c-431 0 -774 345 -774 776s343 775 774 775s775 -344 775 -775s-344 -776 -775 -776z" />
    <glyph glyph-name="equal.uc.whitecircle" unicode="&#x3d;&#x20dd;" 
d="M1124 519h-545v150h545v-150zM1124 780h-545v150h545v-150zM851 121c332 0 591 269 591 599c0 331 -259 599 -591 599s-590 -268 -590 -599c0 -330 258 -599 590 -599zM851 -55c-431 0 -774 345 -774 776s343 775 774 775s775 -344 775 -775s-344 -776 -775 -776z" />
    <glyph glyph-name="greater.uc.whitecircle" unicode="&#x3e;&#x20dd;" 
d="M1138 777v-109l-521 -252v183l284 123v7l-284 119v188zM851 121c332 0 591 269 591 599c0 331 -259 599 -591 599s-590 -268 -590 -599c0 -330 258 -599 590 -599zM851 -55c-431 0 -774 345 -774 776s343 775 774 775s775 -344 775 -775s-344 -776 -775 -776z" />
    <glyph glyph-name="less.uc.whitecircle" unicode="&#x3c;&#x20dd;" 
d="M565 668v109l521 259v-188l-285 -119v-7l285 -123v-183zM851 121c332 0 591 269 591 599c0 331 -259 599 -591 599s-590 -268 -590 -599c0 -330 258 -599 590 -599zM851 -55c-431 0 -774 345 -774 776s343 775 774 775s775 -344 775 -775s-344 -776 -775 -776z" />
    <glyph glyph-name="numbersign.whitecircle" unicode="&#x30;&#x20dd;" 
d="M1145 779h-99l-20 -97h99l-26 -130h-100l-35 -172h-139l35 172h-93l-35 -172h-139l36 172h-97l26 130h97l20 97h-97l25 130h97l33 164h139l-34 -164h94l32 164h139l-32 -164h99zM804 790l-26 -127h119l25 127h-118zM851 121c332 0 591 269 591 599
c0 331 -259 599 -591 599s-590 -268 -590 -599c0 -330 258 -599 590 -599zM851 -55c-431 0 -774 345 -774 776s343 775 774 775s775 -344 775 -775s-344 -776 -775 -776z" />
    <glyph glyph-name="uni25BC.whitecircle" unicode="&#x25bc;&#x20dd;" 
d="M1179 947l-328 -568l-327 568h655zM851 121c332 0 591 269 591 599c0 331 -259 599 -591 599s-590 -268 -590 -599c0 -330 258 -599 590 -599zM851 -55c-431 0 -774 345 -774 776s343 775 774 775s775 -344 775 -775s-344 -776 -775 -776z" />
    <glyph glyph-name="uni25B2.whitecircle" unicode="&#x25b2;&#x20dd;" 
d="M1179 505h-655l327 568zM851 121c332 0 591 269 591 599c0 331 -259 599 -591 599s-590 -268 -590 -599c0 -330 258 -599 590 -599zM851 -55c-431 0 -774 345 -774 776s343 775 774 775s775 -344 775 -775s-344 -776 -775 -776z" />
    <glyph glyph-name="uni25C0.whitecircle" unicode="&#x25c0;&#x20dd;" 
d="M1070 400l-568 328l568 327v-655zM851 121c332 0 591 269 591 599c0 331 -259 599 -591 599s-590 -268 -590 -599c0 -330 258 -599 590 -599zM851 -55c-431 0 -774 345 -774 776s343 775 774 775s775 -344 775 -775s-344 -776 -775 -776z" />
    <glyph glyph-name="uni25B6.whitecircle" unicode="&#x25b6;&#x20dd;" 
d="M633 400v655l568 -327zM851 121c332 0 591 269 591 599c0 331 -259 599 -591 599s-590 -268 -590 -599c0 -330 258 -599 590 -599zM851 -55c-431 0 -774 345 -774 776s343 775 774 775s775 -344 775 -775s-344 -776 -775 -776z" />
    <glyph glyph-name="question.whitecircle" unicode="&#x3f;&#x20dd;" 
d="M728 461c0 56 44 90 115 90c70 0 114 -35 114 -90s-43 -89 -114 -89s-115 34 -115 89zM751 605c-2 5 -2 26 -2 32c-2 67 32 114 87 150c56 36 82 58 82 93c0 42 -32 62 -69 62c-44 0 -71 -32 -72 -72h-175c-2 150 111 216 263 216c142 0 249 -72 249 -198
c0 -81 -42 -125 -102 -164c-75 -50 -92 -63 -92 -105v-14h-169zM851 121c332 0 591 269 591 599c0 331 -259 599 -591 599s-590 -268 -590 -599c0 -330 258 -599 590 -599zM851 -55c-431 0 -774 345 -774 776s343 775 774 775s775 -344 775 -775s-344 -776 -775 -776z" />
    <glyph glyph-name="exclam.whitecircle" unicode="&#x21;&#x20dd;" 
d="M740 461c0 56 44 90 115 90s114 -35 114 -90s-43 -89 -114 -89s-115 34 -115 89zM749 1075h213l-23 -456h-168zM851 121c332 0 591 269 591 599c0 331 -259 599 -591 599s-590 -268 -590 -599c0 -330 258 -599 590 -599zM851 -55c-431 0 -774 345 -774 776
s343 775 774 775s775 -344 775 -775s-344 -776 -775 -776z" />
    <glyph glyph-name="uni2717.whitecircle" unicode="&#x2717;&#x20dd;" 
d="M855 843l226 225l119 -119l-225 -225l225 -226l-119 -120l-226 225l-227 -225l-119 119l226 227l-225 226l118 119zM851 121c332 0 591 269 591 599c0 331 -259 599 -591 599s-590 -268 -590 -599c0 -330 258 -599 590 -599zM851 -55c-431 0 -774 345 -774 776
s343 775 774 775s775 -344 775 -775s-344 -776 -775 -776z" />
    <glyph glyph-name="uni2713.whitecircle" unicode="&#x2713;&#x20dd;" 
d="M1279 911l-543 -533l-311 306l125 122l188 -187l419 418zM851 121c332 0 591 269 591 599c0 331 -259 599 -591 599s-590 -268 -590 -599c0 -330 258 -599 590 -599zM851 -55c-431 0 -774 345 -774 776s343 775 774 775s775 -344 775 -775s-344 -776 -775 -776z" />
    <glyph glyph-name="uni1F130" unicode="A&#x20de;" 
d="M778 678h147l-69 246h-9zM705 398h-200l226 692h241l225 -692h-199l-40 139h-214zM364 1471h975c144 0 260 -115 260 -256v-985c0 -142 -116 -257 -260 -257h-975c-144 0 -261 115 -261 257v985c0 141 117 256 261 256zM1419 1178c0 71 -59 128 -133 128h-870
c-73 0 -133 -57 -133 -128v-911c0 -70 61 -128 133 -128h870c73 0 133 57 133 128v911z" />
    <glyph glyph-name="uni1F131" unicode="B&#x20de;" 
d="M582 383v692h343c133 0 216 -64 216 -170c0 -80 -54 -137 -132 -151v-7c98 -11 163 -73 163 -173c0 -116 -99 -191 -240 -191h-350zM768 948v-152h79c74 0 109 27 109 78c0 46 -34 74 -89 74h-99zM768 685v-169h87c85 0 122 29 122 84c0 52 -38 85 -104 85h-105z
M364 1471h975c144 0 260 -115 260 -256v-985c0 -142 -116 -257 -260 -257h-975c-144 0 -261 115 -261 257v985c0 141 117 256 261 256zM1419 1178c0 71 -59 128 -133 128h-870c-73 0 -133 -57 -133 -128v-911c0 -70 61 -128 133 -128h870c73 0 133 57 133 128v911z" />
    <glyph glyph-name="uni1F132" unicode="C&#x20de;" 
d="M981 633h186c-12 -155 -136 -262 -316 -262c-194 0 -338 135 -338 357s144 358 338 358c182 0 306 -109 317 -267h-185c-5 63 -60 108 -129 108c-86 0 -143 -74 -143 -199c0 -124 57 -198 143 -198c67 0 122 44 127 103zM364 1471h975c144 0 260 -115 260 -256v-985
c0 -142 -116 -257 -260 -257h-975c-144 0 -261 115 -261 257v985c0 141 117 256 261 256zM1419 1178c0 71 -59 128 -133 128h-870c-73 0 -133 -57 -133 -128v-911c0 -70 61 -128 133 -128h870c73 0 133 57 133 128v911z" />
    <glyph glyph-name="uni1F133" unicode="D&#x20de;" 
d="M569 1075h298c214 0 324 -123 324 -346c0 -222 -110 -346 -324 -346h-298v692zM761 923v-389h75c107 0 154 61 154 194c0 134 -47 195 -154 195h-75zM364 1471h975c144 0 260 -115 260 -256v-985c0 -142 -116 -257 -260 -257h-975c-144 0 -261 115 -261 257v985
c0 141 117 256 261 256zM1419 1178c0 71 -59 128 -133 128h-870c-73 0 -133 -57 -133 -128v-911c0 -70 61 -128 133 -128h870c73 0 133 57 133 128v911z" />
    <glyph glyph-name="uni1F134" unicode="E&#x20de;" 
d="M1109 532v-149h-495v692h495v-149h-306v-130h287v-130h-287v-134h306zM364 1471h975c144 0 260 -115 260 -256v-985c0 -142 -116 -257 -260 -257h-975c-144 0 -261 115 -261 257v985c0 141 117 256 261 256zM1419 1178c0 71 -59 128 -133 128h-870
c-73 0 -133 -57 -133 -128v-911c0 -70 61 -128 133 -128h870c73 0 133 57 133 128v911z" />
    <glyph glyph-name="uni1F135" unicode="F&#x20de;" 
d="M829 383h-198v692h493v-152h-295v-139h268v-151h-268v-250zM364 1471h975c144 0 260 -115 260 -256v-985c0 -142 -116 -257 -260 -257h-975c-144 0 -261 115 -261 257v985c0 141 117 256 261 256zM1419 1178c0 71 -59 128 -133 128h-870c-73 0 -133 -57 -133 -128v-911
c0 -70 61 -128 133 -128h870c73 0 133 57 133 128v911z" />
    <glyph glyph-name="uni1F136" unicode="G&#x20de;" 
d="M984 612v31h-127v122h309v-121c0 -156 -116 -273 -314 -273c-202 0 -339 143 -339 357s137 358 339 358c170 0 297 -97 316 -244h-190c-7 56 -56 95 -123 95c-87 0 -144 -83 -144 -209c0 -127 58 -213 144 -213c84 0 129 41 129 97zM364 1471h975
c144 0 260 -115 260 -256v-985c0 -142 -116 -257 -260 -257h-975c-144 0 -261 115 -261 257v985c0 141 117 256 261 256zM1419 1178c0 71 -59 128 -133 128h-870c-73 0 -133 -57 -133 -128v-911c0 -70 61 -128 133 -128h870c73 0 133 57 133 128v911z" />
    <glyph glyph-name="uni1F137" unicode="H&#x20de;" 
d="M1161 383h-187v268h-245v-268h-187v692h187v-265h245v265h187v-692zM364 1471h975c144 0 260 -115 260 -256v-985c0 -142 -116 -257 -260 -257h-975c-144 0 -261 115 -261 257v985c0 141 117 256 261 256zM1419 1178c0 71 -59 128 -133 128h-870
c-73 0 -133 -57 -133 -128v-911c0 -70 61 -128 133 -128h870c73 0 133 57 133 128v911z" />
    <glyph glyph-name="uni1F138" unicode="I&#x20de;" 
d="M958 383h-214v692h214v-692zM364 1471h975c144 0 260 -115 260 -256v-985c0 -142 -116 -257 -260 -257h-975c-144 0 -261 115 -261 257v985c0 141 117 256 261 256zM1419 1178c0 71 -59 128 -133 128h-870c-73 0 -133 -57 -133 -128v-911c0 -70 61 -128 133 -128h870
c73 0 133 57 133 128v911z" />
    <glyph glyph-name="uni1F139" unicode="J&#x20de;" 
d="M553 617h194c0 -52 27 -81 74 -81c49 0 73 31 73 91v438h201v-441c0 -165 -103 -263 -270 -263c-171 0 -272 105 -272 256zM364 1471h975c144 0 260 -115 260 -256v-985c0 -142 -116 -257 -260 -257h-975c-144 0 -261 115 -261 257v985c0 141 117 256 261 256zM1419 1178
c0 71 -59 128 -133 128h-870c-73 0 -133 -57 -133 -128v-911c0 -70 61 -128 133 -128h870c73 0 133 57 133 128v911z" />
    <glyph glyph-name="uni1F13A" unicode="K&#x20de;" 
d="M1185 1075l-229 -313l235 -379h-225l-158 259l-64 -75v-184h-182v692h182v-293h6l221 293h214zM364 1471h975c144 0 260 -115 260 -256v-985c0 -142 -116 -257 -260 -257h-975c-144 0 -261 115 -261 257v985c0 141 117 256 261 256zM1419 1178c0 71 -59 128 -133 128
h-870c-73 0 -133 -57 -133 -128v-911c0 -70 61 -128 133 -128h870c73 0 133 57 133 128v911z" />
    <glyph glyph-name="uni1F13B" unicode="L&#x20de;" 
d="M1138 557v-164h-488v692h204v-528h284zM364 1471h975c144 0 260 -115 260 -256v-985c0 -142 -116 -257 -260 -257h-975c-144 0 -261 115 -261 257v985c0 141 117 256 261 256zM1419 1178c0 71 -59 128 -133 128h-870c-73 0 -133 -57 -133 -128v-911
c0 -70 61 -128 133 -128h870c73 0 133 57 133 128v911z" />
    <glyph glyph-name="uni1F13C" unicode="M&#x20de;" 
d="M649 383h-151v692h190l162 -456h5l162 456h189v-692h-152v439h-7l-140 -402h-112l-139 402h-7v-439zM364 1471h975c144 0 260 -115 260 -256v-985c0 -142 -116 -257 -260 -257h-975c-144 0 -261 115 -261 257v985c0 141 117 256 261 256zM1419 1178
c0 71 -59 128 -133 128h-870c-73 0 -133 -57 -133 -128v-911c0 -70 61 -128 133 -128h870c73 0 133 57 133 128v911z" />
    <glyph glyph-name="uni1F13D" unicode="N&#x20de;" 
d="M723 383h-174v692h144l280 -391h6v391h174v-692h-142l-281 396h-7v-396zM364 1471h975c144 0 260 -115 260 -256v-985c0 -142 -116 -257 -260 -257h-975c-144 0 -261 115 -261 257v985c0 141 117 256 261 256zM1419 1178c0 71 -59 128 -133 128h-870
c-73 0 -133 -57 -133 -128v-911c0 -70 61 -128 133 -128h870c73 0 133 57 133 128v911z" />
    <glyph glyph-name="uni1F13E" unicode="O&#x20de;" 
d="M851 530c78 0 141 66 141 198c0 133 -63 199 -141 199s-141 -66 -141 -199c0 -132 63 -198 141 -198zM851 371c-190 0 -339 129 -339 357c0 229 149 358 339 358s339 -129 339 -358c0 -228 -149 -357 -339 -357zM364 1471h975c144 0 260 -115 260 -256v-985
c0 -142 -116 -257 -260 -257h-975c-144 0 -261 115 -261 257v985c0 141 117 256 261 256zM1419 1178c0 71 -59 128 -133 128h-870c-73 0 -133 -57 -133 -128v-911c0 -70 61 -128 133 -128h870c73 0 133 57 133 128v911z" />
    <glyph glyph-name="uni1F13F" unicode="P&#x20de;" 
d="M923 1075c159 0 258 -103 258 -251c0 -147 -99 -246 -260 -246h-111v-195h-202v692h315zM986 824c0 67 -34 102 -98 102h-89v-203h89c64 0 98 35 98 101zM364 1471h975c144 0 260 -115 260 -256v-985c0 -142 -116 -257 -260 -257h-975c-144 0 -261 115 -261 257v985
c0 141 117 256 261 256zM1419 1178c0 71 -59 128 -133 128h-870c-73 0 -133 -57 -133 -128v-911c0 -70 61 -128 133 -128h870c73 0 133 57 133 128v911z" />
    <glyph glyph-name="uni1F140" unicode="Q&#x20de;" 
d="M1170 322h-190l-35 62c-29 -9 -61 -13 -94 -13c-190 0 -339 129 -339 357c0 229 149 358 339 358s339 -129 339 -358c0 -122 -42 -215 -111 -276zM851 530c11 0 21 1 31 4l-54 98h110l22 -30c20 30 32 73 32 126c0 133 -63 199 -141 199s-141 -66 -141 -199
c0 -132 63 -198 141 -198zM364 1471h975c144 0 260 -115 260 -256v-985c0 -142 -116 -257 -260 -257h-975c-144 0 -261 115 -261 257v985c0 141 117 256 261 256zM1419 1178c0 71 -59 128 -133 128h-870c-73 0 -133 -57 -133 -128v-911c0 -70 61 -128 133 -128h870
c73 0 133 57 133 128v911z" />
    <glyph glyph-name="uni1F141" unicode="R&#x20de;" 
d="M887 1075c175 0 275 -84 275 -224c0 -98 -56 -167 -135 -193l149 -275h-208l-117 240h-93v-240h-183v692h312zM758 753h105c62 0 100 31 100 87c0 59 -37 90 -98 90h-107v-177zM364 1471h975c144 0 260 -115 260 -256v-985c0 -142 -116 -257 -260 -257h-975
c-144 0 -261 115 -261 257v985c0 141 117 256 261 256zM1419 1178c0 71 -59 128 -133 128h-870c-73 0 -133 -57 -133 -128v-911c0 -70 61 -128 133 -128h870c73 0 133 57 133 128v911z" />
    <glyph glyph-name="uni1F142" unicode="S&#x20de;" 
d="M552 585h190c6 -44 50 -72 114 -72c65 0 107 27 107 70c0 35 -26 52 -109 68l-90 17c-129 22 -199 91 -199 197c0 134 114 221 287 221c163 0 276 -82 285 -208h-184c-6 43 -44 69 -101 69c-58 0 -95 -27 -95 -67c0 -32 27 -52 99 -64l97 -18c133 -23 198 -88 198 -198
c0 -140 -118 -229 -302 -229c-179 0 -291 81 -297 214zM364 1471h975c144 0 260 -115 260 -256v-985c0 -142 -116 -257 -260 -257h-975c-144 0 -261 115 -261 257v985c0 141 117 256 261 256zM1419 1178c0 71 -59 128 -133 128h-870c-73 0 -133 -57 -133 -128v-911
c0 -70 61 -128 133 -128h870c73 0 133 57 133 128v911z" />
    <glyph glyph-name="uni1F143" unicode="T&#x20de;" 
d="M953 370h-204v532h-195v161h594v-161h-195v-532zM364 1471h975c144 0 260 -115 260 -256v-985c0 -142 -116 -257 -260 -257h-975c-144 0 -261 115 -261 257v985c0 141 117 256 261 256zM1419 1178c0 71 -59 128 -133 128h-870c-73 0 -133 -57 -133 -128v-911
c0 -70 61 -128 133 -128h870c73 0 133 57 133 128v911z" />
    <glyph glyph-name="uni1F144" unicode="U&#x20de;" 
d="M851 518c67 0 111 40 111 109v436h196v-454c0 -145 -121 -251 -307 -251c-185 0 -306 106 -306 251v454h195v-436c0 -69 45 -109 111 -109zM364 1471h975c144 0 260 -115 260 -256v-985c0 -142 -116 -257 -260 -257h-975c-144 0 -261 115 -261 257v985
c0 141 117 256 261 256zM1419 1178c0 71 -59 128 -133 128h-870c-73 0 -133 -57 -133 -128v-911c0 -70 61 -128 133 -128h870c73 0 133 57 133 128v911z" />
    <glyph glyph-name="uni1F145" unicode="V&#x20de;" 
d="M718 365l-213 693h220l123 -515h7l123 515h219l-213 -693h-266zM364 1471h975c144 0 260 -115 260 -256v-985c0 -142 -116 -257 -260 -257h-975c-144 0 -261 115 -261 257v985c0 141 117 256 261 256zM1419 1178c0 71 -59 128 -133 128h-870c-73 0 -133 -57 -133 -128
v-911c0 -70 61 -128 133 -128h870c73 0 133 57 133 128v911z" />
    <glyph glyph-name="uni1F146" unicode="W&#x20de;" 
d="M848 804l-104 -434h-169l-162 693h179l81 -467h7l101 467h141l101 -467h7l81 467h178l-161 -693h-169l-105 434h-6zM364 1471h975c144 0 260 -115 260 -256v-985c0 -142 -116 -257 -260 -257h-975c-144 0 -261 115 -261 257v985c0 141 117 256 261 256zM1419 1178
c0 71 -59 128 -133 128h-870c-73 0 -133 -57 -133 -128v-911c0 -70 61 -128 133 -128h870c73 0 133 57 133 128v911z" />
    <glyph glyph-name="uni1F147" unicode="X&#x20de;" 
d="M1185 1075l-216 -347l215 -345h-212l-121 228h-7l-121 -228h-216l219 347l-218 345h222l119 -229h7l119 229h210zM364 1471h975c144 0 260 -115 260 -256v-985c0 -142 -116 -257 -260 -257h-975c-144 0 -261 115 -261 257v985c0 141 117 256 261 256zM1419 1178
c0 71 -59 128 -133 128h-870c-73 0 -133 -57 -133 -128v-911c0 -70 61 -128 133 -128h870c73 0 133 57 133 128v911z" />
    <glyph glyph-name="uni1F148" unicode="Y&#x20de;" 
d="M956 370h-209v229l-238 464h220l120 -276h6l120 276h218l-237 -463v-230zM364 1471h975c144 0 260 -115 260 -256v-985c0 -142 -116 -257 -260 -257h-975c-144 0 -261 115 -261 257v985c0 141 117 256 261 256zM1419 1178c0 71 -59 128 -133 128h-870
c-73 0 -133 -57 -133 -128v-911c0 -70 61 -128 133 -128h870c73 0 133 57 133 128v911z" />
    <glyph glyph-name="uni1F149" unicode="Z&#x20de;" 
d="M578 383v125l300 403v8h-299v156h540v-126l-300 -402v-8h311v-156h-552zM364 1471h975c144 0 260 -115 260 -256v-985c0 -142 -116 -257 -260 -257h-975c-144 0 -261 115 -261 257v985c0 141 117 256 261 256zM1419 1178c0 71 -59 128 -133 128h-870
c-73 0 -133 -57 -133 -128v-911c0 -70 61 -128 133 -128h870c73 0 133 57 133 128v911z" />
    <glyph glyph-name="zero.whitesquare" unicode="&#x30;&#x20de;" 
d="M851 526c62 0 103 62 103 202s-41 202 -103 202s-102 -62 -102 -202s40 -202 102 -202zM849 371c-174 0 -290 132 -290 357c0 224 116 357 290 357s294 -133 294 -357c0 -225 -120 -357 -294 -357zM364 1471h975c144 0 260 -115 260 -256v-985
c0 -142 -116 -257 -260 -257h-975c-144 0 -261 115 -261 257v985c0 141 117 256 261 256zM1419 1178c0 71 -59 128 -133 128h-870c-73 0 -133 -57 -133 -128v-911c0 -70 61 -128 133 -128h870c73 0 133 57 133 128v911z" />
    <glyph glyph-name="one.whitesquare" unicode="&#x31;&#x20de;" 
d="M991 383h-201v517h-7l-160 -108v171l167 112h201v-692zM364 1471h975c144 0 260 -115 260 -256v-985c0 -142 -116 -257 -260 -257h-975c-144 0 -261 115 -261 257v985c0 141 117 256 261 256zM1419 1178c0 71 -59 128 -133 128h-870c-73 0 -133 -57 -133 -128v-911
c0 -70 61 -128 133 -128h870c73 0 133 57 133 128v911z" />
    <glyph glyph-name="two.whitesquare" unicode="&#x32;&#x20de;" 
d="M767 848h-186v3c0 132 98 235 272 235c158 0 263 -86 263 -205c0 -80 -50 -140 -131 -215l-122 -121v-7h264v-156h-534v123l249 239c48 45 77 78 77 120c0 41 -31 68 -74 68c-50 0 -79 -35 -78 -81v-3zM364 1471h975c144 0 260 -115 260 -256v-985
c0 -142 -116 -257 -260 -257h-975c-144 0 -261 115 -261 257v985c0 141 117 256 261 256zM1419 1178c0 71 -59 128 -133 128h-870c-73 0 -133 -57 -133 -128v-911c0 -70 61 -128 133 -128h870c73 0 133 57 133 128v911z" />
    <glyph glyph-name="three.whitesquare" unicode="&#x33;&#x20de;" 
d="M776 662v145h70c49 0 84 29 84 72c0 39 -35 66 -84 66c-54 0 -89 -34 -91 -77h-183c5 134 101 218 277 218c165 0 270 -75 272 -185c1 -81 -70 -140 -132 -149v-10c74 -6 149 -64 150 -163c1 -129 -120 -208 -292 -208c-174 0 -281 92 -283 219h183c2 -43 41 -73 99 -74
c60 0 99 31 99 74c-1 43 -37 72 -97 72h-72zM364 1471h975c144 0 260 -115 260 -256v-985c0 -142 -116 -257 -260 -257h-975c-144 0 -261 115 -261 257v985c0 141 117 256 261 256zM1419 1178c0 71 -59 128 -133 128h-870c-73 0 -133 -57 -133 -128v-911
c0 -70 61 -128 133 -128h870c73 0 133 57 133 128v911z" />
    <glyph glyph-name="four.whitesquare" unicode="&#x34;&#x20de;" 
d="M785 1075h271v-431h95v-148h-95v-113h-168v113h-346v151c75 146 153 277 243 428zM714 644h174v308h-7c-57 -94 -122 -213 -167 -306v-2zM364 1471h975c144 0 260 -115 260 -256v-985c0 -142 -116 -257 -260 -257h-975c-144 0 -261 115 -261 257v985
c0 141 117 256 261 256zM1419 1178c0 71 -59 128 -133 128h-870c-73 0 -133 -57 -133 -128v-911c0 -70 61 -128 133 -128h870c73 0 133 57 133 128v911z" />
    <glyph glyph-name="five.whitesquare" unicode="&#x35;&#x20de;" 
d="M582 589h185c8 -43 50 -66 95 -66c51 0 97 39 97 100c0 55 -44 94 -98 94c-44 0 -75 -25 -88 -49h-177l27 412h481v-142h-330l-12 -152h9c19 32 74 65 150 65c132 0 229 -84 229 -223c0 -153 -113 -252 -290 -252c-163 0 -275 89 -278 213zM364 1471h975
c144 0 260 -115 260 -256v-985c0 -142 -116 -257 -260 -257h-975c-144 0 -261 115 -261 257v985c0 141 117 256 261 256zM1419 1178c0 71 -59 128 -133 128h-870c-73 0 -133 -57 -133 -128v-911c0 -70 61 -128 133 -128h870c73 0 133 57 133 128v911z" />
    <glyph glyph-name="six.whitesquare" unicode="&#x36;&#x20de;" 
d="M1131 896h-181c-11 25 -37 48 -83 48c-76 0 -124 -81 -116 -199v0h8c24 51 77 90 163 90c125 0 224 -78 224 -216c0 -154 -116 -248 -284 -248c-106 0 -194 38 -249 125c-36 57 -55 132 -55 228c0 237 119 362 308 362c153 0 255 -89 265 -190zM764 614
c0 -60 42 -97 97 -97s96 35 96 96s-45 95 -96 95c-57 0 -97 -39 -97 -94zM364 1471h975c144 0 260 -115 260 -256v-985c0 -142 -116 -257 -260 -257h-975c-144 0 -261 115 -261 257v985c0 141 117 256 261 256zM1419 1178c0 71 -59 128 -133 128h-870
c-73 0 -133 -57 -133 -128v-911c0 -70 61 -128 133 -128h870c73 0 133 57 133 128v911z" />
    <glyph glyph-name="seven.whitesquare" unicode="&#x37;&#x20de;" 
d="M584 1075h543v-157l-274 -535h-213l284 529v8h-340v155zM364 1471h975c144 0 260 -115 260 -256v-985c0 -142 -116 -257 -260 -257h-975c-144 0 -261 115 -261 257v985c0 141 117 256 261 256zM1419 1178c0 71 -59 128 -133 128h-870c-73 0 -133 -57 -133 -128v-911
c0 -70 61 -128 133 -128h870c73 0 133 57 133 128v911z" />
    <glyph glyph-name="eight.whitesquare" unicode="&#x38;&#x20de;" 
d="M851 502c59 0 102 38 102 90s-42 90 -102 90c-59 0 -102 -39 -102 -90c0 -52 43 -90 102 -90zM851 802c49 0 84 33 84 77s-36 76 -84 76s-84 -32 -84 -76s36 -77 84 -77zM850 371c-185 0 -304 80 -304 206c0 88 62 153 156 167v8c-83 24 -127 75 -127 149
c0 111 109 185 276 185s276 -74 276 -185c0 -74 -44 -126 -127 -149v-8c95 -14 156 -79 156 -166c0 -127 -120 -207 -306 -207zM364 1471h975c144 0 260 -115 260 -256v-985c0 -142 -116 -257 -260 -257h-975c-144 0 -261 115 -261 257v985c0 141 117 256 261 256z
M1419 1178c0 71 -59 128 -133 128h-870c-73 0 -133 -57 -133 -128v-911c0 -70 61 -128 133 -128h870c73 0 133 57 133 128v911z" />
    <glyph glyph-name="nine.whitesquare" unicode="&#x39;&#x20de;" 
d="M557 841c0 148 121 246 286 246c174 0 301 -105 301 -352c0 -234 -109 -364 -308 -364c-152 0 -252 86 -263 189h183c11 -25 39 -46 81 -46c86 0 127 89 117 198h-7c-23 -53 -79 -91 -161 -91c-132 0 -229 82 -229 220zM939 843c0 61 -41 98 -96 98
c-54 0 -96 -37 -96 -97c0 -61 43 -96 97 -96c53 0 95 35 95 95zM364 1471h975c144 0 260 -115 260 -256v-985c0 -142 -116 -257 -260 -257h-975c-144 0 -261 115 -261 257v985c0 141 117 256 261 256zM1419 1178c0 71 -59 128 -133 128h-870c-73 0 -133 -57 -133 -128v-911
c0 -70 61 -128 133 -128h870c73 0 133 57 133 128v911z" />
    <glyph glyph-name="plus.uc.whitesquare" unicode="&#x2b;&#x20de;" 
d="M938 645v-210h-173v210h-206v165h206v207h173v-207h205v-165h-205zM364 1471h975c144 0 260 -115 260 -256v-985c0 -142 -116 -257 -260 -257h-975c-144 0 -261 115 -261 257v985c0 141 117 256 261 256zM1419 1178c0 71 -59 128 -133 128h-870c-73 0 -133 -57 -133 -128
v-911c0 -70 61 -128 133 -128h870c73 0 133 57 133 128v911z" />
    <glyph glyph-name="minus.uc.whitesquare" unicode="&#x2212;&#x20de;" 
d="M1116 640h-530v171h530v-171zM364 1471h975c144 0 260 -115 260 -256v-985c0 -142 -116 -257 -260 -257h-975c-144 0 -261 115 -261 257v985c0 141 117 256 261 256zM1419 1178c0 71 -59 128 -133 128h-870c-73 0 -133 -57 -133 -128v-911c0 -70 61 -128 133 -128h870
c73 0 133 57 133 128v911z" />
    <glyph glyph-name="multiply.uc.whitesquare" unicode="&#xd7;&#x20de;" 
d="M851 847l159 156l123 -121l-160 -156l160 -156l-123 -120l-159 156l-160 -156l-122 120l159 156l-159 156l122 121zM364 1471h975c144 0 260 -115 260 -256v-985c0 -142 -116 -257 -260 -257h-975c-144 0 -261 115 -261 257v985c0 141 117 256 261 256zM1419 1178
c0 71 -59 128 -133 128h-870c-73 0 -133 -57 -133 -128v-911c0 -70 61 -128 133 -128h870c73 0 133 57 133 128v911z" />
    <glyph glyph-name="divide.uc.whitesquare" unicode="&#xf7;&#x20de;" 
d="M1116 659h-530v133h530v-133zM754 948c0 52 42 88 97 88c56 0 99 -36 99 -88c0 -50 -43 -86 -99 -86c-55 0 -97 36 -97 86zM754 505c0 51 42 88 97 88c56 0 99 -37 99 -88c0 -50 -43 -87 -99 -87c-55 0 -97 37 -97 87zM364 1471h975c144 0 260 -115 260 -256v-985
c0 -142 -116 -257 -260 -257h-975c-144 0 -261 115 -261 257v985c0 141 117 256 261 256zM1419 1178c0 71 -59 128 -133 128h-870c-73 0 -133 -57 -133 -128v-911c0 -70 61 -128 133 -128h870c73 0 133 57 133 128v911z" />
    <glyph glyph-name="equal.uc.whitesquare" unicode="&#x3d;&#x20de;" 
d="M1124 519h-545v150h545v-150zM1124 780h-545v150h545v-150zM364 1471h975c144 0 260 -115 260 -256v-985c0 -142 -116 -257 -260 -257h-975c-144 0 -261 115 -261 257v985c0 141 117 256 261 256zM1419 1178c0 71 -59 128 -133 128h-870c-73 0 -133 -57 -133 -128v-911
c0 -70 61 -128 133 -128h870c73 0 133 57 133 128v911z" />
    <glyph glyph-name="greater.uc.whitesquare" unicode="&#x3e;&#x20de;" 
d="M1138 777v-109l-521 -252v183l284 123v7l-284 119v188zM364 1471h975c144 0 260 -115 260 -256v-985c0 -142 -116 -257 -260 -257h-975c-144 0 -261 115 -261 257v985c0 141 117 256 261 256zM1419 1178c0 71 -59 128 -133 128h-870c-73 0 -133 -57 -133 -128v-911
c0 -70 61 -128 133 -128h870c73 0 133 57 133 128v911z" />
    <glyph glyph-name="less.uc.whitesquare" unicode="&#x3c;&#x20de;" 
d="M565 668v109l521 259v-188l-285 -119v-7l285 -123v-183zM364 1471h975c144 0 260 -115 260 -256v-985c0 -142 -116 -257 -260 -257h-975c-144 0 -261 115 -261 257v985c0 141 117 256 261 256zM1419 1178c0 71 -59 128 -133 128h-870c-73 0 -133 -57 -133 -128v-911
c0 -70 61 -128 133 -128h870c73 0 133 57 133 128v911z" />
    <glyph glyph-name="numbersign.whitesquare" unicode="&#x23;&#x20de;" 
d="M1145 779h-99l-20 -97h99l-26 -130h-100l-35 -172h-139l35 172h-93l-35 -172h-139l36 172h-97l26 130h97l20 97h-97l25 130h97l33 164h139l-34 -164h94l32 164h139l-32 -164h99zM804 790l-26 -127h119l25 127h-118zM364 1471h975c144 0 260 -115 260 -256v-985
c0 -142 -116 -257 -260 -257h-975c-144 0 -261 115 -261 257v985c0 141 117 256 261 256zM1419 1178c0 71 -59 128 -133 128h-870c-73 0 -133 -57 -133 -128v-911c0 -70 61 -128 133 -128h870c73 0 133 57 133 128v911z" />
    <glyph glyph-name="uni25BC.whitesquare" unicode="&#x25bc;&#x20de;" 
d="M1180 947l-328 -568l-328 568h656zM364 1471h975c144 0 260 -115 260 -256v-985c0 -142 -116 -257 -260 -257h-975c-144 0 -261 115 -261 257v985c0 141 117 256 261 256zM1419 1178c0 71 -59 128 -133 128h-870c-73 0 -133 -57 -133 -128v-911c0 -70 61 -128 133 -128
h870c73 0 133 57 133 128v911z" />
    <glyph glyph-name="uni25B2.whitesquare" unicode="&#x25b2;&#x20de;" 
d="M1179 505h-655l327 568zM364 1471h975c144 0 260 -115 260 -256v-985c0 -142 -116 -257 -260 -257h-975c-144 0 -261 115 -261 257v985c0 141 117 256 261 256zM1419 1178c0 71 -59 128 -133 128h-870c-73 0 -133 -57 -133 -128v-911c0 -70 61 -128 133 -128h870
c73 0 133 57 133 128v911z" />
    <glyph glyph-name="uni25C0.whitesquare" unicode="&#x25c0;&#x20de;" 
d="M1070 400l-568 328l568 327v-655zM364 1471h975c144 0 260 -115 260 -256v-985c0 -142 -116 -257 -260 -257h-975c-144 0 -261 115 -261 257v985c0 141 117 256 261 256zM1419 1178c0 71 -59 128 -133 128h-870c-73 0 -133 -57 -133 -128v-911c0 -70 61 -128 133 -128
h870c73 0 133 57 133 128v911z" />
    <glyph glyph-name="uni25B6.whitesquare" unicode="&#x25b6;&#x20de;" 
d="M633 400v655l568 -327zM364 1471h975c144 0 260 -115 260 -256v-985c0 -142 -116 -257 -260 -257h-975c-144 0 -261 115 -261 257v985c0 141 117 256 261 256zM1419 1178c0 71 -59 128 -133 128h-870c-73 0 -133 -57 -133 -128v-911c0 -70 61 -128 133 -128h870
c73 0 133 57 133 128v911z" />
    <glyph glyph-name="question.whitesquare" unicode="&#x3f;&#x20de;" 
d="M728 461c0 56 44 90 115 90c70 0 114 -35 114 -90s-43 -89 -114 -89s-115 34 -115 89zM602 870c-2 150 111 216 263 216c142 0 249 -72 249 -198c0 -81 -42 -125 -102 -164c-75 -50 -92 -63 -92 -105v-14h-169c-2 5 -2 26 -2 32c-2 67 32 114 87 150c56 36 82 58 82 93
c0 42 -32 62 -69 62c-44 0 -71 -32 -72 -72h-175zM364 1471h975c144 0 260 -115 260 -256v-985c0 -142 -116 -257 -260 -257h-975c-144 0 -261 115 -261 257v985c0 141 117 256 261 256zM1419 1178c0 71 -59 128 -133 128h-870c-73 0 -133 -57 -133 -128v-911
c0 -70 61 -128 133 -128h870c73 0 133 57 133 128v911z" />
    <glyph glyph-name="exclam.whitesquare" unicode="&#x21;&#x20de;" 
d="M740 461c0 56 44 90 115 90s114 -35 114 -90s-43 -89 -114 -89s-115 34 -115 89zM749 1075h213l-23 -456h-168zM364 1471h975c144 0 260 -115 260 -256v-985c0 -142 -116 -257 -260 -257h-975c-144 0 -261 115 -261 257v985c0 141 117 256 261 256zM1419 1178
c0 71 -59 128 -133 128h-870c-73 0 -133 -57 -133 -128v-911c0 -70 61 -128 133 -128h870c73 0 133 57 133 128v911z" />
    <glyph glyph-name="uni2717.whitesquare" unicode="&#x2717;&#x20de;" 
d="M855 843l226 225l119 -119l-225 -225l225 -226l-119 -120l-226 225l-227 -225l-119 119l226 227l-225 226l118 119zM364 1471h975c144 0 260 -115 260 -256v-985c0 -142 -116 -257 -260 -257h-975c-144 0 -261 115 -261 257v985c0 141 117 256 261 256zM1419 1178
c0 71 -59 128 -133 128h-870c-73 0 -133 -57 -133 -128v-911c0 -70 61 -128 133 -128h870c73 0 133 57 133 128v911z" />
    <glyph glyph-name="uni2713.whitesquare" unicode="&#x2713;&#x20de;" 
d="M1279 911l-543 -533l-311 306l125 122l188 -187l419 418zM364 1471h975c144 0 260 -115 260 -256v-985c0 -142 -116 -257 -260 -257h-975c-144 0 -261 115 -261 257v985c0 141 117 256 261 256zM1419 1178c0 71 -59 128 -133 128h-870c-73 0 -133 -57 -133 -128v-911
c0 -70 61 -128 133 -128h870c73 0 133 57 133 128v911z" />
    <glyph glyph-name="uni1F150" unicode="A&#x20dd;&#x25cf;" 
d="M936 671h-169l81 291h6zM694 377l43 150h229l43 -150h220l-245 754h-265l-245 -754h220zM851 -53c-426 0 -774 349 -774 775s348 774 774 774s775 -348 775 -774s-349 -775 -775 -775z" />
    <glyph glyph-name="uni1F151" unicode="B&#x20dd;&#x25cf;" 
d="M552 352h380c156 0 264 86 264 211c0 103 -64 172 -173 188v3c86 19 138 81 138 165c0 116 -89 187 -236 187h-373v-754zM756 964h106c59 0 96 -30 96 -79c0 -55 -39 -83 -117 -83h-85v162zM755 680h113c72 0 113 -34 113 -91c0 -59 -43 -89 -132 -89h-94v180zM851 -53
c-426 0 -774 349 -774 775s348 774 774 774s775 -348 775 -774s-349 -775 -775 -775z" />
    <glyph glyph-name="uni1F152" unicode="C&#x20dd;&#x25cf;" 
d="M988 623c-6 -58 -63 -104 -133 -104c-90 0 -150 77 -150 208c0 130 60 208 150 208c71 0 129 -48 135 -109h206c-11 171 -147 290 -344 290c-211 0 -367 -148 -367 -389s156 -389 367 -389c194 0 330 117 343 285h-207zM851 -53c-426 0 -774 349 -774 775
s348 774 774 774s775 -348 775 -774s-349 -775 -775 -775z" />
    <glyph glyph-name="uni1F153" unicode="D&#x20dd;&#x25cf;" 
d="M549 1106v-754h325c231 0 353 130 353 377s-122 377 -353 377h-325zM759 944h79c118 0 169 -66 169 -216s-51 -214 -169 -214h-79v430zM851 -53c-426 0 -774 349 -774 775s348 774 774 774s775 -348 775 -774s-349 -775 -775 -775z" />
    <glyph glyph-name="uni1F154" unicode="E&#x20dd;&#x25cf;" 
d="M1130 510h-336v149h314v144h-314v144h336v159h-544v-754h544v158zM851 -53c-426 0 -774 349 -774 775s348 774 774 774s775 -348 775 -774s-349 -775 -775 -775z" />
    <glyph glyph-name="uni1F155" unicode="F&#x20dd;&#x25cf;" 
d="M824 352v270h290v167h-290v151h320v166h-540v-754h220zM851 -53c-426 0 -774 349 -774 775s348 774 774 774s775 -348 775 -774s-349 -775 -775 -775z" />
    <glyph glyph-name="uni1F156" unicode="G&#x20dd;&#x25cf;" 
d="M990 615c0 -59 -46 -108 -134 -108c-90 0 -151 86 -151 220c0 132 60 215 151 215c74 0 122 -36 128 -86h212c-21 155 -158 259 -342 259c-220 0 -369 -156 -369 -388c0 -233 148 -388 368 -388c209 0 341 135 341 304v132h-335v-144h131v-16zM851 -53
c-426 0 -774 349 -774 775s348 774 774 774s775 -348 775 -774s-349 -775 -775 -775z" />
    <glyph glyph-name="uni1F157" unicode="H&#x20dd;&#x25cf;" 
d="M1188 352v754h-208v-286h-257v286h-208v-754h208v289h257v-289h208zM851 -53c-426 0 -774 349 -774 775s348 774 774 774s775 -348 775 -774s-349 -775 -775 -775z" />
    <glyph glyph-name="uni1F158" unicode="I&#x20dd;&#x25cf;" 
d="M970 352v754h-237v-754h237zM851 -53c-426 0 -774 349 -774 775s348 774 774 774s775 -348 775 -774s-349 -775 -775 -775z" />
    <glyph glyph-name="uni1F159" unicode="J&#x20dd;&#x25cf;" 
d="M524 613c0 -173 117 -283 298 -283c184 0 295 108 295 287v479h-224v-476c0 -63 -26 -94 -76 -94c-48 0 -75 30 -75 87h-218zM851 -53c-426 0 -774 349 -774 775s348 774 774 774s775 -348 775 -774s-349 -775 -775 -775z" />
    <glyph glyph-name="uni1F15A" unicode="K&#x20dd;&#x25cf;" 
d="M1213 1106h-239l-236 -307h-4v307h-203v-754h203v202l64 75l170 -277h251l-257 412zM851 -53c-426 0 -774 349 -774 775s348 774 774 774s775 -348 775 -774s-349 -775 -775 -775z" />
    <glyph glyph-name="uni1F15B" unicode="L&#x20dd;&#x25cf;" 
d="M1152 546h-307v570h-226v-754h533v184zM851 -53c-426 0 -774 349 -774 775s348 774 774 774s775 -348 775 -774s-349 -775 -775 -775z" />
    <glyph glyph-name="uni1F15C" unicode="M&#x20dd;&#x25cf;" 
d="M634 352v477h6l151 -434h119l153 432h6v-475h169v754h-208l-177 -496h-3l-176 496h-209v-754h169zM851 -53c-426 0 -774 349 -774 775s348 774 774 774s775 -348 775 -774s-349 -775 -775 -775z" />
    <glyph glyph-name="uni1F15D" unicode="N&#x20dd;&#x25cf;" 
d="M716 352v426h4l299 -426h162v754h-194v-423h-4l-299 423h-162v-754h194zM851 -53c-426 0 -774 349 -774 775s348 774 774 774s775 -348 775 -774s-349 -775 -775 -775z" />
    <glyph glyph-name="uni1F15E" unicode="O&#x20dd;&#x25cf;" 
d="M851 516c-82 0 -150 70 -150 211s68 211 150 211c83 0 150 -70 150 -211s-67 -211 -150 -211zM851 338c207 0 369 140 369 389s-162 389 -369 389c-206 0 -368 -140 -368 -389s162 -389 368 -389zM851 -53c-426 0 -774 349 -774 775s348 774 774 774s775 -348 775 -774
s-349 -775 -775 -775z" />
    <glyph glyph-name="uni1F15F" unicode="P&#x20dd;&#x25cf;" 
d="M922 1106h-344v-754h225v211h116c173 0 285 105 285 268c0 166 -112 275 -282 275zM991 831c0 -71 -38 -110 -108 -110h-96v222h96c69 0 108 -41 108 -112zM851 -53c-426 0 -774 349 -774 775s348 774 774 774s775 -348 775 -774s-349 -775 -775 -775z" />
    <glyph glyph-name="uni1F160" unicode="Q&#x20dd;&#x25cf;" 
d="M1202 288l-100 141c73 66 118 167 118 298c0 249 -162 389 -369 389c-206 0 -368 -140 -368 -389s162 -389 368 -389c36 0 70 5 102 14l35 -64h214zM851 516c-82 0 -150 70 -150 211s68 211 150 211c83 0 150 -70 150 -211c0 -55 -12 -99 -32 -130l-23 31h-126l59 -109
c-9 -2 -18 -3 -28 -3zM851 -53c-426 0 -774 349 -774 775s348 774 774 774s775 -348 775 -774s-349 -775 -775 -775z" />
    <glyph glyph-name="uni1F161" unicode="R&#x20dd;&#x25cf;" 
d="M743 755v191h118c69 0 107 -35 107 -97c0 -59 -40 -94 -109 -94h-116zM884 1106h-340v-754h205v259h95l125 -259h234l-162 297c90 32 143 110 143 211c0 156 -110 246 -300 246zM851 -53c-426 0 -774 349 -774 775s348 774 774 774s775 -348 775 -774
s-349 -775 -775 -775z" />
    <glyph glyph-name="uni1F162" unicode="S&#x20dd;&#x25cf;" 
d="M525 577c7 -147 129 -236 324 -236c200 0 329 97 329 249c0 120 -71 193 -217 218l-105 19c-76 12 -105 33 -105 67c0 43 39 70 101 70c60 0 100 -29 107 -75h203c-9 139 -131 230 -310 230c-188 0 -313 -96 -313 -241c0 -116 77 -192 217 -216l98 -19
c88 -16 115 -34 115 -71c0 -44 -43 -73 -113 -73c-68 0 -115 31 -120 78h-211zM851 -53c-426 0 -774 349 -774 775s348 774 774 774s775 -348 775 -774s-349 -775 -775 -775z" />
    <glyph glyph-name="uni1F163" unicode="T&#x20dd;&#x25cf;" 
d="M964 330v573h211v180h-647v-180h211v-573h225zM851 -53c-426 0 -774 349 -774 775s348 774 774 774s775 -348 775 -774s-349 -775 -775 -775z" />
    <glyph glyph-name="uni1F164" unicode="U&#x20dd;&#x25cf;" 
d="M851 497c-71 0 -115 43 -115 112v475h-219v-504c0 -158 132 -263 334 -263s335 106 335 263v504h-219v-475c0 -69 -45 -112 -116 -112zM851 -53c-426 0 -774 349 -774 775s348 774 774 774s775 -348 775 -774s-349 -775 -775 -775z" />
    <glyph glyph-name="uni1F165" unicode="V&#x20dd;&#x25cf;" 
d="M995 325l232 753h-241l-132 -553h-6l-132 553h-241l233 -753h287zM851 -53c-426 0 -774 349 -774 775s348 774 774 774s775 -348 775 -774s-349 -775 -775 -775z" />
    <glyph glyph-name="uni1F166" unicode="W&#x20dd;&#x25cf;" 
d="M850 792h3l112 -462h189l177 753h-202l-85 -503h-5l-109 503h-157l-109 -503h-5l-85 503h-202l178 -753h188zM851 -53c-426 0 -774 349 -774 775s348 774 774 774s775 -348 775 -774s-349 -775 -775 -775z" />
    <glyph glyph-name="uni1F167" unicode="X&#x20dd;&#x25cf;" 
d="M1217 1106h-233l-127 -247h-6l-128 247h-246l236 -375l-237 -379h239l129 246h6l131 -246h234l-233 376zM851 -53c-426 0 -774 349 -774 775s348 774 774 774s775 -348 775 -774s-349 -775 -775 -775z" />
    <glyph glyph-name="uni1F168" unicode="Y&#x20dd;&#x25cf;" 
d="M735 337h233v250l260 504h-245l-130 -297h-4l-129 297h-245l260 -504v-250zM851 -53c-426 0 -774 349 -774 775s348 774 774 774s775 -348 775 -774s-349 -775 -775 -775z" />
    <glyph glyph-name="uni1F169" unicode="Z&#x20dd;&#x25cf;" 
d="M553 352h602v176h-328v5l317 433v140h-590v-177h316v-3l-317 -434v-140zM851 -53c-426 0 -774 349 -774 775s348 774 774 774s775 -348 775 -774s-349 -775 -775 -775z" />
    <glyph glyph-name="uni24FF" unicode="&#x30;&#x20dd;&#x25cf;" 
d="M849 502c-67 0 -105 72 -105 226c0 153 38 225 105 225c68 0 105 -72 105 -225c0 -154 -37 -226 -105 -226zM847 338c195 0 322 146 322 390c0 243 -127 389 -322 389c-194 0 -317 -146 -317 -389c0 -244 123 -390 317 -390zM851 -53c-426 0 -774 349 -774 775
s348 774 774 774s775 -348 775 -774s-349 -775 -775 -775z" />
    <glyph glyph-name="uni278A" unicode="&#x31;&#x20dd;&#x25cf;" 
d="M1000 352v753h-221l-183 -122v-195l176 118h5v-554h223zM851 -53c-426 0 -774 349 -774 775s348 774 774 774s775 -348 775 -774s-349 -775 -775 -775z" />
    <glyph glyph-name="uni278B" unicode="&#x32;&#x20dd;&#x25cf;" 
d="M753 852v6c0 55 31 96 88 96c48 0 83 -30 83 -74c0 -51 -33 -89 -96 -147l-263 -246v-137h583v175h-294v3l139 135c87 79 139 143 139 234c0 124 -116 219 -279 219c-191 0 -301 -114 -301 -258v-6h201zM851 -53c-426 0 -774 349 -774 775s348 774 774 774
s775 -348 775 -774s-349 -775 -775 -775z" />
    <glyph glyph-name="uni278C" unicode="&#x33;&#x20dd;&#x25cf;" 
d="M763 660h82c63 0 104 -33 105 -80c0 -48 -41 -81 -106 -81c-63 1 -105 34 -109 82h-201c3 -139 122 -242 310 -242c185 0 319 87 318 228c-2 105 -82 170 -161 178v5c66 11 141 75 140 164c-2 120 -118 203 -295 203c-194 0 -297 -92 -304 -240h203c2 47 37 82 97 82
c52 0 89 -31 90 -73c0 -45 -37 -75 -92 -75h-77v-151zM851 -53c-426 0 -774 349 -774 775s348 774 774 774s775 -348 775 -774s-349 -775 -775 -775z" />
    <glyph glyph-name="uni278D" unicode="&#x34;&#x20dd;&#x25cf;" 
d="M764 1105c-124 -206 -195 -329 -263 -465v-166h372v-122h189v122h102v166h-102v465h-298zM694 640v1c51 103 113 214 175 316h4v-317h-179zM851 -53c-426 0 -774 349 -774 775s348 774 774 774s775 -348 775 -774s-349 -775 -775 -775z" />
    <glyph glyph-name="uni278E" unicode="&#x35;&#x20dd;&#x25cf;" 
d="M553 579c3 -138 124 -235 303 -235c192 0 316 107 316 276c0 152 -107 243 -251 243c-81 0 -140 -33 -162 -68h-5l12 160h356v155h-525l-29 -450h189c15 29 51 59 101 59c61 0 108 -41 108 -106c0 -69 -51 -110 -107 -110c-53 0 -99 27 -108 76h-198zM851 -53
c-426 0 -774 349 -774 775s348 774 774 774s775 -348 775 -774s-349 -775 -775 -775z" />
    <glyph glyph-name="uni278F" unicode="&#x36;&#x20dd;&#x25cf;" 
d="M1163 610c0 151 -103 232 -241 232c-94 0 -157 -43 -188 -97l-5 -1c-1 6 -3 17 -3 21c-1 119 52 195 130 195c51 0 80 -25 94 -54h197c-11 112 -122 212 -289 212c-204 0 -336 -139 -336 -395c0 -101 22 -187 61 -249c61 -92 157 -136 271 -136c181 0 309 105 309 272z
M744 604c0 63 44 106 109 106c58 0 108 -38 108 -106c0 -71 -46 -109 -108 -109s-109 41 -109 109zM851 -53c-426 0 -774 349 -774 775s348 774 774 774s775 -348 775 -774s-349 -775 -775 -775z" />
    <glyph glyph-name="uni2790" unicode="&#x37;&#x20dd;&#x25cf;" 
d="M561 1100v-175h366v-3l-309 -575h237l297 579v174h-591zM851 -53c-426 0 -774 349 -774 775s348 774 774 774s775 -348 775 -774s-349 -775 -775 -775z" />
    <glyph glyph-name="uni2791" unicode="&#x38;&#x20dd;&#x25cf;" 
d="M849 802c-55 0 -94 35 -94 87s38 88 94 88c57 0 95 -36 95 -88c0 -51 -39 -87 -95 -87zM849 479c-67 0 -114 42 -114 101s47 102 114 102s115 -43 115 -102s-48 -101 -115 -101zM849 338c203 0 332 88 332 227c0 95 -63 164 -167 181v3c90 27 135 83 135 164
c0 124 -118 204 -300 204s-299 -80 -299 -204c0 -82 44 -137 135 -164v-3c-104 -17 -167 -86 -167 -181c0 -139 129 -227 331 -227zM851 -53c-426 0 -774 349 -774 775s348 774 774 774s775 -348 775 -774s-349 -775 -775 -775z" />
    <glyph glyph-name="uni2792" unicode="&#x39;&#x20dd;&#x25cf;" 
d="M949 851c0 -68 -47 -107 -107 -107s-109 39 -109 108c0 68 47 110 108 110c63 0 108 -42 108 -111zM549 546c13 -113 120 -207 287 -207c214 0 336 141 336 389c0 271 -143 390 -330 390c-181 0 -311 -105 -311 -269c0 -153 102 -238 245 -238c91 0 155 43 184 97h4
c10 -118 -34 -212 -127 -212c-46 0 -77 22 -90 50h-198zM851 -53c-426 0 -774 349 -774 775s348 774 774 774s775 -348 775 -774s-349 -775 -775 -775z" />
    <glyph glyph-name="plus.uc.blackcircle" unicode="&#x2b;&#x20dd;&#x25cf;" 
d="M947 636h222v182h-222v224h-192v-224h-222v-182h222v-227h192v227zM851 -53c-426 0 -774 349 -774 775s348 774 774 774s775 -348 775 -774s-349 -775 -775 -775z" />
    <glyph glyph-name="minus.uc.blackcircle" unicode="&#x2212;&#x20dd;&#x25cf;" 
d="M1140 630v189h-578v-189h578zM851 -53c-426 0 -774 349 -774 775s348 774 774 774s775 -348 775 -774s-349 -775 -775 -775z" />
    <glyph glyph-name="multiply.uc.blackcircle" unicode="&#xd7;&#x20dd;&#x25cf;" 
d="M851 859l-173 169l-135 -134l172 -169l-172 -168l135 -133l173 168l172 -168l136 133l-173 168l173 169l-136 134zM851 -53c-426 0 -774 349 -774 775s348 774 774 774s775 -348 775 -774s-349 -775 -775 -775z" />
    <glyph glyph-name="divide.uc.blackcircle" unicode="&#xf7;&#x20dd;&#x25cf;" 
d="M743 965c0 -55 47 -96 108 -96s109 41 109 96c0 57 -47 98 -109 98c-61 0 -108 -41 -108 -98zM1140 650v149h-578v-149h578zM743 487c0 -56 47 -96 108 -96c62 0 109 40 109 96c0 57 -47 97 -109 97c-61 0 -108 -40 -108 -97zM851 -53c-426 0 -774 349 -774 775
s348 774 774 774s775 -348 775 -774s-349 -775 -775 -775z" />
    <glyph glyph-name="equal.uc.blackcircle" unicode="&#x3d;&#x20dd;&#x25cf;" 
d="M1147 784v165h-592v-165h592zM1147 499v164h-592v-164h592zM851 -53c-426 0 -774 349 -774 775s348 774 774 774s775 -348 775 -774s-349 -775 -775 -775z" />
    <glyph glyph-name="greater.uc.blackcircle" unicode="&#x3e;&#x20dd;&#x25cf;" 
d="M1158 782l-569 283v-199l308 -141v-3l-308 -143v-194l569 276v121zM851 -53c-426 0 -774 349 -774 775s348 774 774 774s775 -348 775 -774s-349 -775 -775 -775z" />
    <glyph glyph-name="less.uc.blackcircle" unicode="&#x3c;&#x20dd;&#x25cf;" 
d="M541 661l568 -276v194l-307 143v3l307 141v199l-568 -283v-121zM851 -53c-426 0 -774 349 -774 775s348 774 774 774s775 -348 775 -774s-349 -775 -775 -775z" />
    <glyph glyph-name="numbersign.blackcircle" unicode="&#x23;&#x20dd;&#x25cf;" 
d="M795 799h135l-29 -145h-135zM1169 780l29 147h-108l35 176h-158l-34 -176h-93l37 176h-159l-34 -176h-105l-29 -147h105l-20 -97h-105l-29 -148h103l-37 -185h157l39 185h91l-38 -185h158l37 185h109l29 148h-106c1 9 17 88 19 97h107zM851 -53c-426 0 -774 349 -774 775
s348 774 774 774s775 -348 775 -774s-349 -775 -775 -775z" />
    <glyph glyph-name="uni25BC.blackcircle" unicode="&#x25bc;&#x20dd;&#x25cf;" 
d="M1201 981h-698l348 -604zM851 -53c-426 0 -774 349 -774 775s348 774 774 774s775 -348 775 -774s-349 -775 -775 -775z" />
    <glyph glyph-name="uni25B2.blackcircle" unicode="&#x25b2;&#x20dd;&#x25cf;" 
d="M1201 488l-350 604l-348 -604h698zM851 -53c-426 0 -774 349 -774 775s348 774 774 774s775 -348 775 -774s-349 -775 -775 -775z" />
    <glyph glyph-name="uni25C0.blackcircle" unicode="&#x25c0;&#x20dd;&#x25cf;" 
d="M1088 387v696l-605 -348zM851 -53c-426 0 -774 349 -774 775s348 774 774 774s775 -348 775 -774s-349 -775 -775 -775z" />
    <glyph glyph-name="uni25B6.blackcircle" unicode="&#x25b6;&#x20dd;&#x25cf;" 
d="M614 387l605 348l-605 348v-696zM851 -53c-426 0 -774 349 -774 775s348 774 774 774s775 -348 775 -774s-349 -775 -775 -775z" />
    <glyph glyph-name="question.blackcircle" unicode="&#x3f;&#x20dd;&#x25cf;" 
d="M711 429c0 -63 48 -101 127 -101c80 0 127 39 127 101c0 63 -48 101 -127 101s-127 -37 -127 -101zM735 592h190v17c0 46 17 60 86 103c82 54 122 91 122 188c0 137 -118 218 -271 218c-167 0 -288 -73 -288 -239v-2l199 3c0 48 27 82 74 82c40 0 73 -21 73 -68
c0 -55 -65 -72 -115 -122c-45 -37 -75 -80 -72 -143c0 -9 0 -32 2 -37zM851 -53c-426 0 -774 349 -774 775s348 774 774 774s775 -348 775 -774s-349 -775 -775 -775z" />
    <glyph glyph-name="exclam.blackcircle" unicode="&#x21;&#x20dd;&#x25cf;" 
d="M734 1106l24 -500h189l25 500h-238zM727 430c0 -62 48 -101 127 -101s126 39 126 101s-48 100 -126 100c-79 0 -127 -38 -127 -100zM851 -53c-426 0 -774 349 -774 775s348 774 774 774s775 -348 775 -774s-349 -775 -775 -775z" />
    <glyph glyph-name="uni2717.blackcircle" unicode="&#x2717;&#x20dd;&#x25cf;" 
d="M852 852l-244 245l-130 -129l245 -246l-245 -245l130 -130l244 245l244 -244l130 131l-244 243l244 244l-130 130zM851 -53c-426 0 -774 349 -774 775s348 774 774 774s775 -348 775 -774s-349 -775 -775 -775z" />
    <glyph glyph-name="uni2713.blackcircle" unicode="&#x2713;&#x20dd;&#x25cf;" horiz-adv-x="1740" 
d="M723 360l593 584l-135 138l-456 -456l-205 205l-137 -136zM851 -53c-426 0 -774 349 -774 775s348 774 774 774s775 -348 775 -774s-349 -775 -775 -775z" />
    <glyph glyph-name="uni1F170" unicode="A&#x20de;&#x25a0;" 
d="M936 661h-169l81 291h6zM694 367l43 150h229l43 -150h220l-245 754h-265l-245 -754h220zM364 1471h975c144 0 260 -115 260 -256v-985c0 -142 -116 -257 -260 -257h-975c-144 0 -261 115 -261 257v985c0 141 117 256 261 256z" />
    <glyph glyph-name="uni1F171" unicode="B&#x20de;&#x25a0;" 
d="M552 352h380c153 0 264 84 264 211c0 107 -68 172 -173 188v3c83 18 138 78 138 165c0 117 -90 187 -236 187h-373v-754zM756 964h106c60 0 96 -31 96 -79c0 -54 -38 -83 -117 -83h-85v162zM755 680h113c73 0 113 -35 113 -91c0 -58 -41 -89 -132 -89h-94v180zM364 1471
h975c144 0 260 -115 260 -256v-985c0 -142 -116 -257 -260 -257h-975c-144 0 -261 115 -261 257v985c0 141 117 256 261 256z" />
    <glyph glyph-name="uni1F172" unicode="C&#x20de;&#x25a0;" 
d="M988 623c-6 -58 -63 -104 -133 -104c-90 0 -150 77 -150 208c0 130 60 208 150 208c71 0 129 -48 135 -109h206c-11 171 -147 290 -344 290c-211 0 -367 -148 -367 -389s156 -389 367 -389c194 0 330 117 343 285h-207zM364 1471h975c144 0 260 -115 260 -256v-985
c0 -142 -116 -257 -260 -257h-975c-144 0 -261 115 -261 257v985c0 141 117 256 261 256z" />
    <glyph glyph-name="uni1F173" unicode="D&#x20de;&#x25a0;" 
d="M538 1106v-754h324c235 0 354 134 354 377c0 244 -119 377 -354 377h-324zM747 944h80c118 0 168 -67 168 -216c0 -148 -50 -214 -168 -214h-80v430zM364 1471h975c144 0 260 -115 260 -256v-985c0 -142 -116 -257 -260 -257h-975c-144 0 -261 115 -261 257v985
c0 141 117 256 261 256z" />
    <glyph glyph-name="uni1F174" unicode="E&#x20de;&#x25a0;" 
d="M1130 510h-336v149h314v144h-314v144h336v159h-544v-754h544v158zM364 1471h975c144 0 260 -115 260 -256v-985c0 -142 -116 -257 -260 -257h-975c-144 0 -261 115 -261 257v985c0 141 117 256 261 256z" />
    <glyph glyph-name="uni1F175" unicode="F&#x20de;&#x25a0;" 
d="M824 352v270h290v167h-290v151h320v166h-540v-754h220zM364 1471h975c144 0 260 -115 260 -256v-985c0 -142 -116 -257 -260 -257h-975c-144 0 -261 115 -261 257v985c0 141 117 256 261 256z" />
    <glyph glyph-name="uni1F176" unicode="G&#x20de;&#x25a0;" 
d="M990 615c0 -59 -46 -108 -134 -108c-90 0 -151 86 -151 220c0 132 60 215 151 215c74 0 122 -36 128 -86h212c-21 155 -158 259 -342 259c-220 0 -369 -156 -369 -388c0 -233 148 -388 368 -388c209 0 341 135 341 304v132h-335v-144h131v-16zM364 1471h975
c144 0 260 -115 260 -256v-985c0 -142 -116 -257 -260 -257h-975c-144 0 -261 115 -261 257v985c0 141 117 256 261 256z" />
    <glyph glyph-name="uni1F177" unicode="H&#x20de;&#x25a0;" 
d="M1188 352v754h-208v-286h-257v286h-208v-754h208v289h257v-289h208zM364 1471h975c144 0 260 -115 260 -256v-985c0 -142 -116 -257 -260 -257h-975c-144 0 -261 115 -261 257v985c0 141 117 256 261 256z" />
    <glyph glyph-name="uni1F178" unicode="I&#x20de;&#x25a0;" 
d="M970 352v754h-237v-754h237zM364 1471h975c144 0 260 -115 260 -256v-985c0 -142 -116 -257 -260 -257h-975c-144 0 -261 115 -261 257v985c0 141 117 256 261 256z" />
    <glyph glyph-name="uni1F179" unicode="J&#x20de;&#x25a0;" 
d="M524 613c0 -168 111 -283 298 -283c182 0 295 106 295 287v479h-224v-476c0 -62 -26 -94 -76 -94c-48 0 -75 30 -75 87h-218zM364 1471h975c144 0 260 -115 260 -256v-985c0 -142 -116 -257 -260 -257h-975c-144 0 -261 115 -261 257v985c0 141 117 256 261 256z" />
    <glyph glyph-name="uni1F17A" unicode="K&#x20de;&#x25a0;" 
d="M1213 1106h-239l-236 -307h-4v307h-203v-754h203v202l64 75l170 -277h251c-49 72 -207 340 -257 412zM364 1471h975c144 0 260 -115 260 -256v-985c0 -142 -116 -257 -260 -257h-975c-144 0 -261 115 -261 257v985c0 141 117 256 261 256z" />
    <glyph glyph-name="uni1F17B" unicode="L&#x20de;&#x25a0;" 
d="M1157 546h-307v570h-226v-754h533v184zM364 1471h975c144 0 260 -115 260 -256v-985c0 -142 -116 -257 -260 -257h-975c-144 0 -261 115 -261 257v985c0 141 117 256 261 256z" />
    <glyph glyph-name="uni1F17C" unicode="M&#x20de;&#x25a0;" 
d="M634 352v477h6l151 -434h119l153 432h6v-475h169v754h-208l-177 -496h-3l-176 496h-209v-754h169zM364 1471h975c144 0 260 -115 260 -256v-985c0 -142 -116 -257 -260 -257h-975c-144 0 -261 115 -261 257v985c0 141 117 256 261 256z" />
    <glyph glyph-name="uni1F17D" unicode="N&#x20de;&#x25a0;" 
d="M716 352v426h4l299 -426h162v754h-194v-423h-4l-299 423h-162v-754h194zM364 1471h975c144 0 260 -115 260 -256v-985c0 -142 -116 -257 -260 -257h-975c-144 0 -261 115 -261 257v985c0 141 117 256 261 256z" />
    <glyph glyph-name="uni1F17E" unicode="O&#x20de;&#x25a0;" 
d="M851 516c-82 0 -150 70 -150 211s68 211 150 211c83 0 150 -70 150 -211s-67 -211 -150 -211zM851 338c207 0 369 140 369 389s-162 389 -369 389c-206 0 -368 -140 -368 -389s162 -389 368 -389zM364 1471h975c144 0 260 -115 260 -256v-985c0 -142 -116 -257 -260 -257
h-975c-144 0 -261 115 -261 257v985c0 141 117 256 261 256z" />
    <glyph glyph-name="uni1F17F" unicode="P&#x20de;&#x25a0;" 
d="M922 1106h-344v-754h225v211h116c176 0 285 109 285 268c0 163 -108 275 -282 275zM991 831c0 -71 -38 -110 -108 -110h-96v222h96c68 0 108 -40 108 -112zM364 1471h975c144 0 260 -115 260 -256v-985c0 -142 -116 -257 -260 -257h-975c-144 0 -261 115 -261 257v985
c0 141 117 256 261 256z" />
    <glyph glyph-name="uni1F180" unicode="Q&#x20de;&#x25a0;" 
d="M1202 288l-100 141c73 66 118 167 118 298c0 249 -162 389 -369 389c-206 0 -368 -140 -368 -389s162 -389 368 -389c36 0 70 5 102 14l35 -64h214zM851 516c-82 0 -150 70 -150 211s68 211 150 211c83 0 150 -70 150 -211c0 -55 -12 -99 -32 -130l-23 31h-126l59 -109
c-9 -2 -18 -3 -28 -3zM364 1471h975c144 0 260 -115 260 -256v-985c0 -142 -116 -257 -260 -257h-975c-144 0 -261 115 -261 257v985c0 141 117 256 261 256z" />
    <glyph glyph-name="uni1F181" unicode="R&#x20de;&#x25a0;" 
d="M743 755v191h118c67 0 107 -33 107 -97c0 -60 -41 -94 -109 -94h-116zM884 1106h-340v-754h205v259h95l125 -259h234l-162 297c86 31 143 105 143 211c0 155 -108 246 -300 246zM364 1471h975c144 0 260 -115 260 -256v-985c0 -142 -116 -257 -260 -257h-975
c-144 0 -261 115 -261 257v985c0 141 117 256 261 256z" />
    <glyph glyph-name="uni1F182" unicode="S&#x20de;&#x25a0;" 
d="M525 577c7 -147 129 -236 324 -236c200 0 329 97 329 249c0 120 -71 193 -217 218l-105 19c-76 12 -105 33 -105 67c0 43 39 70 101 70c60 0 100 -29 107 -75h203c-9 139 -131 230 -310 230c-188 0 -313 -96 -313 -241c0 -116 77 -192 217 -216l98 -19
c88 -16 115 -34 115 -71c0 -44 -43 -73 -113 -73c-68 0 -115 31 -120 78h-211zM364 1471h975c144 0 260 -115 260 -256v-985c0 -142 -116 -257 -260 -257h-975c-144 0 -261 115 -261 257v985c0 141 117 256 261 256z" />
    <glyph glyph-name="uni1F183" unicode="T&#x20de;&#x25a0;" 
d="M964 340v573h211v180h-647v-180h211v-573h225zM364 1471h975c144 0 260 -115 260 -256v-985c0 -142 -116 -257 -260 -257h-975c-144 0 -261 115 -261 257v985c0 141 117 256 261 256z" />
    <glyph glyph-name="uni1F184" unicode="U&#x20de;&#x25a0;" 
d="M851 507c-71 0 -115 43 -115 112v475h-219v-504c0 -158 132 -263 334 -263s335 106 335 263v504h-219v-475c0 -69 -45 -112 -116 -112zM364 1471h975c144 0 260 -115 260 -256v-985c0 -142 -116 -257 -260 -257h-975c-144 0 -261 115 -261 257v985c0 141 117 256 261 256
z" />
    <glyph glyph-name="uni1F185" unicode="V&#x20de;&#x25a0;" 
d="M995 335l232 753h-241l-132 -553h-6l-132 553h-241l233 -753h287zM364 1471h975c144 0 260 -115 260 -256v-985c0 -142 -116 -257 -260 -257h-975c-144 0 -261 115 -261 257v985c0 141 117 256 261 256z" />
    <glyph glyph-name="uni1F186" unicode="W&#x20de;&#x25a0;" 
d="M850 802h3l112 -462h189l177 753h-202l-85 -503h-5l-109 503h-157l-109 -503h-5l-85 503h-202l178 -753h188zM364 1471h975c144 0 260 -115 260 -256v-985c0 -142 -116 -257 -260 -257h-975c-144 0 -261 115 -261 257v985c0 141 117 256 261 256z" />
    <glyph glyph-name="uni1F187" unicode="X&#x20de;&#x25a0;" 
d="M1217 1106h-233l-127 -247h-6l-128 247h-246l236 -375l-237 -379h239l129 246h6l131 -246h234l-233 376zM364 1471h975c144 0 260 -115 260 -256v-985c0 -142 -116 -257 -260 -257h-975c-144 0 -261 115 -261 257v985c0 141 117 256 261 256z" />
    <glyph glyph-name="uni1F188" unicode="Y&#x20de;&#x25a0;" 
d="M735 340h233v250l260 503h-245l-130 -297h-4l-129 297h-245l260 -503v-250zM364 1471h975c144 0 260 -115 260 -256v-985c0 -142 -116 -257 -260 -257h-975c-144 0 -261 115 -261 257v985c0 141 117 256 261 256z" />
    <glyph glyph-name="uni1F189" unicode="Z&#x20de;&#x25a0;" 
d="M553 352h602v176h-328v5l317 433v140h-590v-177h316v-3l-317 -434v-140zM364 1471h975c144 0 260 -115 260 -256v-985c0 -142 -116 -257 -260 -257h-975c-144 0 -261 115 -261 257v985c0 141 117 256 261 256z" />
    <glyph glyph-name="zero.blacksquare" unicode="&#x30;&#x20de;&#x25a0;" 
d="M849 502c-67 0 -105 72 -105 226c0 153 38 225 105 225c68 0 105 -72 105 -225c0 -154 -37 -226 -105 -226zM847 338c195 0 322 146 322 390c0 243 -127 389 -322 389c-194 0 -317 -146 -317 -389c0 -244 123 -390 317 -390zM364 1471h975c144 0 260 -115 260 -256v-985
c0 -142 -116 -257 -260 -257h-975c-144 0 -261 115 -261 257v985c0 141 117 256 261 256z" />
    <glyph glyph-name="one.blacksquare" unicode="&#x31;&#x20de;&#x25a0;" 
d="M1005 352v753h-221l-183 -122v-195l176 118h5v-554h223zM364 1471h975c144 0 260 -115 260 -256v-985c0 -142 -116 -257 -260 -257h-975c-144 0 -261 115 -261 257v985c0 141 117 256 261 256z" />
    <glyph glyph-name="two.blacksquare" unicode="&#x32;&#x20de;&#x25a0;" 
d="M753 852v6c0 55 31 96 88 96c48 0 83 -30 83 -74c0 -51 -33 -89 -96 -147l-263 -246v-137h583v175h-294v3l139 135c87 79 139 143 139 234c0 124 -116 219 -279 219c-191 0 -301 -114 -301 -258v-6h201zM364 1471h975c144 0 260 -115 260 -256v-985
c0 -142 -116 -257 -260 -257h-975c-144 0 -261 115 -261 257v985c0 141 117 256 261 256z" />
    <glyph glyph-name="three.blacksquare" unicode="&#x33;&#x20de;&#x25a0;" 
d="M763 660h82c63 0 104 -33 105 -80c0 -48 -41 -81 -106 -81c-63 1 -105 34 -109 82h-201c3 -139 122 -242 310 -242c185 0 319 87 318 228c-2 105 -82 170 -161 178v5c66 11 141 75 140 164c-2 120 -118 203 -295 203c-194 0 -297 -92 -304 -240h203c2 47 37 82 97 82
c52 0 89 -31 90 -73c0 -45 -37 -75 -92 -75h-77v-151zM364 1471h975c144 0 260 -115 260 -256v-985c0 -142 -116 -257 -260 -257h-975c-144 0 -261 115 -261 257v985c0 141 117 256 261 256z" />
    <glyph glyph-name="four.blacksquare" unicode="&#x34;&#x20de;&#x25a0;" 
d="M774 1105c-124 -206 -195 -329 -263 -465v-166h372v-122h189v122h102v166h-102v465h-298zM704 640v1c51 103 113 214 175 316h4v-317h-179zM364 1471h975c144 0 260 -115 260 -256v-985c0 -142 -116 -257 -260 -257h-975c-144 0 -261 115 -261 257v985
c0 141 117 256 261 256z" />
    <glyph glyph-name="five.blacksquare" unicode="&#x35;&#x20de;&#x25a0;" 
d="M553 579c3 -138 124 -235 303 -235c192 0 316 107 316 276c0 152 -107 243 -251 243c-81 0 -140 -33 -162 -68h-5c3 32 9 127 12 160h356v155h-525l-29 -450h189c15 29 51 59 101 59c61 0 108 -41 108 -106c0 -69 -51 -110 -107 -110c-53 0 -99 27 -108 76h-198z
M364 1471h975c144 0 260 -115 260 -256v-985c0 -142 -116 -257 -260 -257h-975c-144 0 -261 115 -261 257v985c0 141 117 256 261 256z" />
    <glyph glyph-name="six.blacksquare" unicode="&#x36;&#x20de;&#x25a0;" 
d="M1168 610c0 151 -103 232 -241 232c-94 0 -157 -43 -188 -97l-5 -1c-1 6 -3 17 -3 21c-1 119 52 195 130 195c51 0 80 -25 94 -54h197c-11 112 -122 212 -289 212c-204 0 -336 -139 -336 -395c0 -101 22 -187 61 -249c61 -92 157 -136 271 -136c181 0 309 105 309 272z
M749 604c0 63 44 106 109 106c58 0 108 -38 108 -106c0 -71 -46 -109 -108 -109s-109 41 -109 109zM364 1471h975c144 0 260 -115 260 -256v-985c0 -142 -116 -257 -260 -257h-975c-144 0 -261 115 -261 257v985c0 141 117 256 261 256z" />
    <glyph glyph-name="seven.blacksquare" unicode="&#x37;&#x20de;&#x25a0;" 
d="M556 1105v-175h366v-3l-309 -575h237l297 579v174h-591zM364 1471h975c144 0 260 -115 260 -256v-985c0 -142 -116 -257 -260 -257h-975c-144 0 -261 115 -261 257v985c0 141 117 256 261 256z" />
    <glyph glyph-name="eight.blacksquare" unicode="&#x38;&#x20de;&#x25a0;" 
d="M849 802c-55 0 -94 35 -94 87s38 88 94 88c57 0 95 -36 95 -88c0 -51 -39 -87 -95 -87zM849 479c-67 0 -114 42 -114 101s47 102 114 102s115 -43 115 -102s-48 -101 -115 -101zM849 338c203 0 332 88 332 227c0 95 -63 164 -167 181v3c90 27 135 83 135 164
c0 124 -118 204 -300 204s-299 -80 -299 -204c0 -82 44 -137 135 -164v-3c-104 -17 -167 -86 -167 -181c0 -139 129 -227 331 -227zM364 1471h975c144 0 260 -115 260 -256v-985c0 -142 -116 -257 -260 -257h-975c-144 0 -261 115 -261 257v985c0 141 117 256 261 256z" />
    <glyph glyph-name="nine.blacksquare" unicode="&#x39;&#x20de;&#x25a0;" 
d="M526 849c0 -153 102 -238 245 -238c91 0 155 43 184 97h4c10 -118 -34 -212 -127 -212c-46 0 -77 22 -90 50h-198c13 -113 120 -207 287 -207c214 0 336 141 336 389c0 271 -143 390 -330 390c-181 0 -311 -105 -311 -269zM944 851c0 -68 -47 -107 -107 -107
s-109 39 -109 108c0 68 47 110 108 110c63 0 108 -42 108 -111zM364 1471h975c144 0 260 -115 260 -256v-985c0 -142 -116 -257 -260 -257h-975c-144 0 -261 115 -261 257v985c0 141 117 256 261 256z" />
    <glyph glyph-name="plus.uc.blacksquare" unicode="&#x2b;&#x20de;&#x25a0;" 
d="M947 636h222v182h-222v224h-192v-224h-222v-182h222v-227h192v227zM364 1471h975c144 0 260 -115 260 -256v-985c0 -142 -116 -257 -260 -257h-975c-144 0 -261 115 -261 257v985c0 141 117 256 261 256z" />
    <glyph glyph-name="minus.uc.blacksquare" unicode="&#x2212;&#x20de;&#x25a0;" 
d="M1140 630v189h-578v-189h578zM364 1471h975c144 0 260 -115 260 -256v-985c0 -142 -116 -257 -260 -257h-975c-144 0 -261 115 -261 257v985c0 141 117 256 261 256z" />
    <glyph glyph-name="multiply.uc.blacksquare" unicode="&#xd7;&#x20de;&#x25a0;" 
d="M851 859l-173 169l-135 -134l172 -169l-172 -168l135 -133l173 168l172 -168l136 133l-173 168l173 169l-136 134zM364 1471h975c144 0 260 -115 260 -256v-985c0 -142 -116 -257 -260 -257h-975c-144 0 -261 115 -261 257v985c0 141 117 256 261 256z" />
    <glyph glyph-name="divide.uc.blacksquare" unicode="&#xf7;&#x20de;&#x25a0;" 
d="M743 965c0 -55 47 -96 108 -96s109 41 109 96c0 57 -47 98 -109 98c-61 0 -108 -41 -108 -98zM1140 650v149h-578v-149h578zM743 487c0 -56 47 -96 108 -96c62 0 109 40 109 96c0 57 -47 97 -109 97c-61 0 -108 -40 -108 -97zM364 1471h975c144 0 260 -115 260 -256v-985
c0 -142 -116 -257 -260 -257h-975c-144 0 -261 115 -261 257v985c0 141 117 256 261 256z" />
    <glyph glyph-name="equal.uc.blacksquare" unicode="&#x3d;&#x20de;&#x25a0;" 
d="M1147 784v165h-592v-165h592zM1147 499v164h-592v-164h592zM364 1471h975c144 0 260 -115 260 -256v-985c0 -142 -116 -257 -260 -257h-975c-144 0 -261 115 -261 257v985c0 141 117 256 261 256z" />
    <glyph glyph-name="greater.uc.blacksquare" unicode="&#x3e;&#x20de;&#x25a0;" 
d="M1158 782l-569 283v-199l308 -141v-3l-308 -143v-194l569 276v121zM364 1471h975c144 0 260 -115 260 -256v-985c0 -142 -116 -257 -260 -257h-975c-144 0 -261 115 -261 257v985c0 141 117 256 261 256z" />
    <glyph glyph-name="less.uc.blacksquare" unicode="&#x3c;&#x20de;&#x25a0;" 
d="M541 661l568 -276v194c-60 30 -247 114 -307 143v3l307 141v199l-568 -283v-121zM364 1471h975c144 0 260 -115 260 -256v-985c0 -142 -116 -257 -260 -257h-975c-144 0 -261 115 -261 257v985c0 141 117 256 261 256z" />
    <glyph glyph-name="numbersign.blacksquare" unicode="&#x23;&#x20de;&#x25a0;" 
d="M795 799h135l-29 -145h-135zM1169 780l29 147h-108l35 176h-158l-34 -176h-93l37 176h-159l-34 -176h-105l-29 -147h105l-20 -97h-105l-29 -148h103l-37 -185h157l39 185h91l-38 -185h158l37 185h109l29 148h-106c1 9 17 88 19 97h107zM364 1471h975
c144 0 260 -115 260 -256v-985c0 -142 -116 -257 -260 -257h-975c-144 0 -261 115 -261 257v985c0 141 117 256 261 256z" />
    <glyph glyph-name="uni25BC.blacksquare" unicode="&#x25bc;&#x20de;&#x25a0;" 
d="M1201 979h-698l348 -605zM364 1471h975c144 0 260 -115 260 -256v-985c0 -142 -116 -257 -260 -257h-975c-144 0 -261 115 -261 257v985c0 141 117 256 261 256z" />
    <glyph glyph-name="uni25B2.blacksquare" unicode="&#x25b2;&#x20de;&#x25a0;" 
d="M1201 488l-350 604l-348 -604h698zM364 1471h975c144 0 260 -115 260 -256v-985c0 -142 -116 -257 -260 -257h-975c-144 0 -261 115 -261 257v985c0 141 117 256 261 256z" />
    <glyph glyph-name="uni25C0.blacksquare" unicode="&#x25c0;&#x20de;&#x25a0;" 
d="M1088 387v696l-605 -348zM364 1471h975c144 0 260 -115 260 -256v-985c0 -142 -116 -257 -260 -257h-975c-144 0 -261 115 -261 257v985c0 141 117 256 261 256z" />
    <glyph glyph-name="uni25B6.blacksquare" unicode="&#x25b6;&#x20de;&#x25a0;" 
d="M614 387l605 348l-605 348v-696zM364 1471h975c144 0 260 -115 260 -256v-985c0 -142 -116 -257 -260 -257h-975c-144 0 -261 115 -261 257v985c0 141 117 256 261 256z" />
    <glyph glyph-name="question.blacksquare" unicode="&#x3f;&#x20de;&#x25a0;" 
d="M711 429c0 -63 48 -101 127 -101c80 0 127 39 127 101c0 63 -48 101 -127 101s-127 -37 -127 -101zM862 1118c-167 0 -288 -73 -288 -239v-2l199 3c0 48 27 82 74 82c40 0 73 -21 73 -68c0 -55 -65 -72 -115 -122c-45 -37 -75 -80 -72 -143c0 -9 0 -32 2 -37h190v17
c0 46 17 60 86 103c82 54 122 91 122 188c0 137 -118 218 -271 218zM364 1471h975c144 0 260 -115 260 -256v-985c0 -142 -116 -257 -260 -257h-975c-144 0 -261 115 -261 257v985c0 141 117 256 261 256z" />
    <glyph glyph-name="exclam.blacksquare" unicode="&#x21;&#x20de;&#x25a0;" 
d="M734 1106l24 -500h189l25 500h-238zM727 430c0 -62 48 -101 127 -101s126 39 126 101s-48 100 -126 100c-79 0 -127 -38 -127 -100zM364 1471h975c144 0 260 -115 260 -256v-985c0 -142 -116 -257 -260 -257h-975c-144 0 -261 115 -261 257v985c0 141 117 256 261 256z
" />
    <glyph glyph-name="uni2717.blacksquare" unicode="&#x2717;&#x20de;&#x25a0;" 
d="M478 968l245 -246l-245 -245l130 -130l244 245l244 -244l130 131l-244 243l244 244l-130 130l-244 -244l-244 245zM364 1471h975c144 0 260 -115 260 -256v-985c0 -142 -116 -257 -260 -257h-975c-144 0 -261 115 -261 257v985c0 141 117 256 261 256z" />
    <glyph glyph-name="uni2713.blacksquare" unicode="&#x2713;&#x20de;&#x25a0;" 
d="M723 360l593 584l-135 138l-456 -456l-205 205l-137 -136zM364 1471h975c144 0 260 -115 260 -256v-985c0 -142 -116 -257 -260 -257h-975c-144 0 -261 115 -261 257v985c0 141 117 256 261 256z" />
    <glyph glyph-name=".notdef" horiz-adv-x="2048" 
d="M100 -494v206h1848v-206h-1848zM100 -46v206h1848v-206h-1848zM100 401v206h1848v-206h-1848zM100 849v206h1848v-206h-1848zM100 1296v206h1848v-206h-1848zM100 1744v206h1848v-206h-1848z" />
    <glyph glyph-name=".null" horiz-adv-x="0" 
 />
    <glyph glyph-name="nonmarkingreturn" horiz-adv-x="0" 
 />
    <glyph glyph-name="space" unicode=" " horiz-adv-x="405" 
 />
    <glyph glyph-name="A" unicode="A" horiz-adv-x="1413" 
d="M1065 0l-110 350h-507l-110 -350h-310l501 1443h355l502 -1443h-321zM698 1167l-185 -591h377l-185 591h-7z" />
    <glyph glyph-name="Agrave" unicode="&#xc0;" horiz-adv-x="1413" 
d="M1065 0l-110 350h-507l-110 -350h-310l501 1443h355l502 -1443h-321zM698 1167l-185 -591h377l-185 591h-7zM589 1563l-267 305h271l226 -305h-230z" />
    <glyph glyph-name="Aacute" unicode="&#xc1;" horiz-adv-x="1413" 
d="M1065 0l-110 350h-507l-110 -350h-310l501 1443h355l502 -1443h-321zM698 1167l-185 -591h377l-185 591h-7zM822 1558h-230l226 305h271z" />
    <glyph glyph-name="Adieresis" unicode="&#xc4;" horiz-adv-x="1413" 
d="M1065 0l-110 350h-507l-110 -350h-310l501 1443h355l502 -1443h-321zM698 1167l-185 -591h377l-185 591h-7zM503 1571c-76 0 -134 58 -134 130s58 130 134 130s134 -58 134 -130s-58 -130 -134 -130zM911 1571c-76 0 -134 58 -134 130s58 130 134 130s134 -58 134 -130
s-58 -130 -134 -130z" />
    <glyph glyph-name="Adieresismacron" unicode="&#x1de;" horiz-adv-x="1413" 
d="M1065 0l-110 350h-507l-110 -350h-310l501 1443h355l502 -1443h-321zM698 1167l-185 -591h377l-185 591h-7zM507 1801c75 0 131 -57 131 -128c0 -70 -56 -128 -131 -128s-131 58 -131 128c0 71 56 128 131 128zM361 2073h692v-148h-692v148zM907 1801
c75 0 131 -57 131 -128c0 -70 -56 -128 -131 -128s-131 58 -131 128c0 71 56 128 131 128z" />
    <glyph glyph-name="Aring" unicode="&#xc5;" horiz-adv-x="1413" 
d="M1065 0l-110 350h-507l-110 -350h-310l501 1443h355l502 -1443h-321zM698 1167l-185 -591h377l-185 591h-7zM707 1518c-112 0 -206 91 -206 202c0 112 94 202 206 202s206 -90 206 -202c0 -111 -94 -202 -206 -202zM707 1630c50 0 92 40 92 90s-42 90 -92 90
s-92 -40 -92 -90s42 -90 92 -90z" />
    <glyph glyph-name="Aringacute" unicode="&#x1fa;" horiz-adv-x="1413" 
d="M1065 0l-110 350h-507l-110 -350h-310l501 1443h355l502 -1443h-321zM698 1167l-185 -591h377l-185 591h-7zM707 1504c-113 0 -200 85 -200 195c0 111 87 195 200 195s200 -84 200 -195c0 -110 -87 -195 -200 -195zM707 1614c48 0 86 37 86 85s-38 86 -86 86
s-86 -38 -86 -86s38 -85 86 -85zM727 2149h240l-154 -194h-208z" />
    <glyph glyph-name="Atilde" unicode="&#xc3;" horiz-adv-x="1413" 
d="M1065 0l-110 350h-507l-110 -350h-310l501 1443h355l502 -1443h-321zM698 1167l-185 -591h377l-185 591h-7zM849 1563c-139 0 -191 136 -265 136c-46 0 -70 -49 -70 -122h-159c0 176 96 274 220 274c144 0 193 -135 265 -135c44 0 67 45 69 124h159
c0 -173 -98 -277 -219 -277z" />
    <glyph glyph-name="Abrevegrave" unicode="&#x1eb0;" horiz-adv-x="1413" 
d="M1065 0l-110 350h-507l-110 -350h-310l501 1443h355l502 -1443h-321zM698 1167l-185 -591h377l-185 591h-7zM1065 1836c-7 -162 -141 -296 -358 -296s-351 134 -358 296h181c8 -84 75 -148 177 -148s169 64 177 148h181zM833 1878h-216l-215 248h246z" />
    <glyph glyph-name="Adotmacron" unicode="&#x1e0;" horiz-adv-x="1413" 
d="M1065 0l-110 350h-507l-110 -350h-310l501 1443h355l502 -1443h-321zM698 1167l-185 -591h377l-185 591h-7zM707 1555c-79 0 -138 60 -138 134c0 72 59 132 138 132s138 -60 138 -132c0 -74 -59 -134 -138 -134zM1053 2073v-148h-692v148h692z" />
    <glyph glyph-name="Aringbelow" unicode="&#x1e00;" horiz-adv-x="1413" 
d="M1065 0l-110 350h-507l-110 -350h-310l501 1443h355l502 -1443h-321zM698 1167l-185 -591h377l-185 591h-7zM707 -537c-118 0 -217 96 -217 213s99 213 217 213c119 0 217 -96 217 -213s-98 -213 -217 -213zM707 -418c52 0 96 42 96 94s-44 94 -96 94s-95 -42 -95 -94
s43 -94 95 -94z" />
    <glyph glyph-name="Acircumflex" unicode="&#xc2;" horiz-adv-x="1413" 
d="M1065 0l-110 350h-507l-110 -350h-310l501 1443h355l502 -1443h-321zM698 1167l-185 -591h377l-185 591h-7zM595 1855h224l269 -317h-221l-156 192h-8l-156 -192h-221z" />
    <glyph glyph-name="Acircumflexdotbelow" unicode="&#x1eac;" horiz-adv-x="1413" 
d="M1065 0l-110 350h-507l-110 -350h-310l501 1443h355l502 -1443h-321zM698 1167l-185 -591h377l-185 591h-7zM595 1855h224l269 -317h-221l-156 192h-8l-156 -192h-221zM707 -456c-84 0 -149 67 -149 149s65 149 149 149s149 -67 149 -149s-65 -149 -149 -149z" />
    <glyph glyph-name="Acircumflexacute" unicode="&#x1ea4;" horiz-adv-x="1413" 
d="M1065 0l-110 350h-507l-110 -350h-310l501 1443h355l502 -1443h-321zM698 1167l-185 -591h377l-185 591h-7zM591 1820h232l268 -282h-227l-153 167h-8l-153 -167h-227zM816 1878l185 248h246l-215 -248h-216z" />
    <glyph glyph-name="Acircumflextilde" unicode="&#x1eaa;" horiz-adv-x="1413" 
d="M1065 0l-110 350h-507l-110 -350h-310l501 1443h355l502 -1443h-321zM698 1167l-185 -591h377l-185 591h-7zM840 1875c-141 0 -185 125 -254 125c-45 0 -70 -44 -73 -104h-159c0 154 92 250 220 250c141 0 185 -123 254 -123c43 0 69 40 73 104h159
c0 -152 -96 -252 -220 -252zM591 1815h232l268 -277h-227l-153 163h-8l-153 -163h-227z" />
    <glyph glyph-name="Acircumflexgrave" unicode="&#x1ea6;" horiz-adv-x="1413" 
d="M1065 0l-110 350h-507l-110 -350h-310l501 1443h355l502 -1443h-321zM698 1167l-185 -591h377l-185 591h-7zM591 1820h232l268 -282h-227l-153 167h-8l-153 -167h-227zM1076 1878h-216l-215 248h246z" />
    <glyph glyph-name="Acircumflexhookabove" unicode="&#x1ea8;" horiz-adv-x="1413" 
d="M1065 0l-110 350h-507l-110 -350h-310l501 1443h355l502 -1443h-321zM698 1167l-185 -591h377l-185 591h-7zM591 1820h232l268 -282h-227l-153 167h-8l-153 -167h-227zM825 1981v126c32 16 85 26 135 26c136 0 223 -73 223 -189c0 -87 -56 -171 -151 -207l-92 98
c51 19 74 56 74 94c0 41 -36 69 -91 69c-33 0 -73 -7 -98 -17z" />
    <glyph glyph-name="Abreve" unicode="&#x102;" horiz-adv-x="1413" 
d="M1065 0l-110 350h-507l-110 -350h-310l501 1443h355l502 -1443h-321zM698 1167l-185 -591h377l-185 591h-7zM349 1859h181c8 -103 74 -171 177 -171s169 68 177 171h181c-9 -172 -136 -320 -358 -320s-349 148 -358 320z" />
    <glyph glyph-name="Abreveacute" unicode="&#x1eae;" horiz-adv-x="1413" 
d="M1065 0l-110 350h-507l-110 -350h-310l501 1443h355l502 -1443h-321zM698 1167l-185 -591h377l-185 591h-7zM349 1836h181c8 -84 75 -148 177 -148s169 64 177 148h181c-7 -162 -141 -296 -358 -296s-351 134 -358 296zM581 1878l185 248h246l-215 -248h-216z" />
    <glyph glyph-name="Abrevetilde" unicode="&#x1eb4;" horiz-adv-x="1413" 
d="M1065 0l-110 350h-507l-110 -350h-310l501 1443h355l502 -1443h-321zM698 1167l-185 -591h377l-185 591h-7zM349 1826h181c8 -73 75 -138 177 -138s169 65 177 138h181c-7 -147 -141 -286 -358 -286s-351 139 -358 286zM840 1875c-141 0 -185 125 -254 125
c-45 0 -70 -44 -73 -99h-159c0 149 92 245 220 245c141 0 185 -123 254 -123c43 0 69 40 73 104h159c0 -152 -96 -252 -220 -252z" />
    <glyph glyph-name="Abrevehookabove" unicode="&#x1eb2;" horiz-adv-x="1413" 
d="M1065 0l-110 350h-507l-110 -350h-310l501 1443h355l502 -1443h-321zM698 1167l-185 -591h377l-185 591h-7zM520 2026v126c28 14 87 26 137 26c135 0 220 -69 220 -177c0 -87 -77 -179 -180 -215l-75 94c56 19 91 58 91 98s-39 68 -94 68c-36 0 -73 -8 -99 -20zM349 1836
h181c8 -88 80 -148 177 -148s169 60 177 148h181c-7 -172 -154 -296 -358 -296s-351 124 -358 296z" />
    <glyph glyph-name="Abrevedotbelow" unicode="&#x1eb6;" horiz-adv-x="1413" 
d="M1065 0l-110 350h-507l-110 -350h-310l501 1443h355l502 -1443h-321zM698 1167l-185 -591h377l-185 591h-7zM349 1859h181c8 -103 74 -171 177 -171s169 68 177 171h181c-9 -172 -136 -320 -358 -320s-349 148 -358 320zM707 -456c-84 0 -149 67 -149 149s65 149 149 149
s149 -67 149 -149s-65 -149 -149 -149z" />
    <glyph glyph-name="Ainvertedbreve" unicode="&#x202;" horiz-adv-x="1413" 
d="M1065 0l-110 350h-507l-110 -350h-310l501 1443h355l502 -1443h-321zM698 1167l-185 -591h377l-185 591h-7zM349 1539c9 172 136 320 358 320s349 -148 358 -320h-181c-8 104 -74 171 -177 171s-169 -67 -177 -171h-181z" />
    <glyph glyph-name="Acaron" unicode="&#x1cd;" horiz-adv-x="1413" 
d="M1065 0l-110 350h-507l-110 -350h-310l501 1443h355l502 -1443h-321zM698 1167l-185 -591h377l-185 591h-7zM595 1543l-269 317h221l156 -192h8l156 192h221l-269 -317h-224z" />
    <glyph glyph-name="Adotaccent" unicode="&#x226;" horiz-adv-x="1413" 
d="M1065 0l-110 350h-507l-110 -350h-310l501 1443h355l502 -1443h-321zM698 1167l-185 -591h377l-185 591h-7zM707 1561c-84 0 -149 67 -149 149s65 149 149 149s149 -67 149 -149s-65 -149 -149 -149z" />
    <glyph glyph-name="Adotbelow" unicode="&#x1ea0;" horiz-adv-x="1413" 
d="M1065 0l-110 350h-507l-110 -350h-310l501 1443h355l502 -1443h-321zM698 1167l-185 -591h377l-185 591h-7zM707 -456c-84 0 -149 67 -149 149s65 149 149 149s149 -67 149 -149s-65 -149 -149 -149z" />
    <glyph glyph-name="Ahookabove" unicode="&#x1ea2;" horiz-adv-x="1413" 
d="M1065 0l-110 350h-507l-110 -350h-310l501 1443h355l502 -1443h-321zM698 1167l-185 -591h377l-185 591h-7zM522 1780v132c35 16 90 25 143 25c144 0 237 -74 237 -195c0 -97 -78 -185 -188 -228l-86 105c57 20 97 63 97 107c0 43 -39 73 -97 73c-33 0 -77 -7 -106 -19z
" />
    <glyph glyph-name="Adblgrave" unicode="&#x200;" horiz-adv-x="1413" 
d="M1065 0l-110 350h-507l-110 -350h-310l501 1443h355l502 -1443h-321zM698 1167l-185 -591h377l-185 591h-7zM789 1558l-267 305h271l226 -305h-230zM389 1558l-267 305h271l226 -305h-230z" />
    <glyph glyph-name="Amacron" unicode="&#x100;" horiz-adv-x="1413" 
d="M1065 0l-110 350h-507l-110 -350h-310l501 1443h355l502 -1443h-321zM698 1167l-185 -591h377l-185 591h-7zM1053 1768v-148h-692v148h692z" />
    <glyph glyph-name="Aogonek" unicode="&#x104;" horiz-adv-x="1413" 
d="M698 1167l-185 -591h377l-185 591h-7zM1317 -441c-29 -13 -81 -21 -145 -21c-156 0 -267 86 -267 214c0 91 49 177 160 248l-110 350h-507l-110 -350h-310l501 1443h355l501 -1441l-49 -6c-126 -34 -217 -116 -217 -193c0 -63 49 -96 121 -96c30 0 60 4 77 9v-157z" />
    <glyph glyph-name="B" unicode="B" horiz-adv-x="1310" 
d="M759 0h-639v1443h628c271 0 441 -139 441 -360c0 -158 -118 -290 -271 -313v-8c196 -15 340 -158 340 -349c0 -254 -191 -413 -499 -413zM422 1218v-375h217c161 0 253 71 253 193c0 116 -81 182 -222 182h-248zM422 225h260c174 0 268 74 268 212
c0 135 -97 207 -275 207h-253v-419z" />
    <glyph glyph-name="Blinebelow" unicode="&#x1e06;" horiz-adv-x="1310" 
d="M759 0h-639v1443h628c271 0 441 -139 441 -360c0 -158 -118 -290 -271 -313v-8c196 -15 340 -158 340 -349c0 -254 -191 -413 -499 -413zM422 1218v-375h217c161 0 253 71 253 193c0 116 -81 182 -222 182h-248zM422 225h260c174 0 268 74 268 212
c0 135 -97 207 -275 207h-253v-419zM972 -229v-148h-692v148h692z" />
    <glyph glyph-name="Bdotbelow" unicode="&#x1e04;" horiz-adv-x="1310" 
d="M759 0h-639v1443h628c271 0 441 -139 441 -360c0 -158 -118 -290 -271 -313v-8c196 -15 340 -158 340 -349c0 -254 -191 -413 -499 -413zM422 1218v-375h217c161 0 253 71 253 193c0 116 -81 182 -222 182h-248zM422 225h260c174 0 268 74 268 212
c0 135 -97 207 -275 207h-253v-419zM626 -456c-84 0 -149 67 -149 149s65 149 149 149s149 -67 149 -149s-65 -149 -149 -149z" />
    <glyph glyph-name="Bdotaccent" unicode="&#x1e02;" horiz-adv-x="1310" 
d="M759 0h-639v1443h628c271 0 441 -139 441 -360c0 -158 -118 -290 -271 -313v-8c196 -15 340 -158 340 -349c0 -254 -191 -413 -499 -413zM422 1218v-375h217c161 0 253 71 253 193c0 116 -81 182 -222 182h-248zM422 225h260c174 0 268 74 268 212
c0 135 -97 207 -275 207h-253v-419zM626 1561c-84 0 -149 67 -149 149s65 149 149 149s149 -67 149 -149s-65 -149 -149 -149z" />
    <glyph glyph-name="C" unicode="C" horiz-adv-x="1459" 
d="M758 -25c-420 0 -683 281 -683 747c0 465 265 746 683 746c347 0 611 -220 634 -543h-294c-28 177 -164 293 -340 293c-228 0 -375 -191 -375 -495c0 -308 145 -498 376 -498c179 0 308 105 340 276h294c-34 -322 -281 -526 -635 -526z" />
    <glyph glyph-name="Cacute" unicode="&#x106;" horiz-adv-x="1459" 
d="M758 -25c-420 0 -683 281 -683 747c0 465 265 746 683 746c347 0 611 -220 634 -543h-294c-28 177 -164 293 -340 293c-228 0 -375 -191 -375 -495c0 -308 145 -498 376 -498c179 0 308 105 340 276h294c-34 -322 -281 -526 -635 -526zM860 1559h-230l226 305h271z" />
    <glyph glyph-name="Ccaron" unicode="&#x10c;" horiz-adv-x="1459" 
d="M758 -25c-420 0 -683 281 -683 747c0 465 265 746 683 746c347 0 611 -220 634 -543h-294c-28 177 -164 293 -340 293c-228 0 -375 -191 -375 -495c0 -308 145 -498 376 -498c179 0 308 105 340 276h294c-34 -322 -281 -526 -635 -526zM633 1544l-269 317h221l156 -192h8
l156 192h221l-269 -317h-224z" />
    <glyph glyph-name="Ccircumflex" unicode="&#x108;" horiz-adv-x="1459" 
d="M758 -25c-420 0 -683 281 -683 747c0 465 265 746 683 746c347 0 611 -220 634 -543h-294c-28 177 -164 293 -340 293c-228 0 -375 -191 -375 -495c0 -308 145 -498 376 -498c179 0 308 105 340 276h294c-34 -322 -281 -526 -635 -526zM633 1856h224l269 -317h-221
l-156 192h-8l-156 -192h-221z" />
    <glyph glyph-name="Cdotaccent" unicode="&#x10a;" horiz-adv-x="1459" 
d="M758 -25c-420 0 -683 281 -683 747c0 465 265 746 683 746c347 0 611 -220 634 -543h-294c-28 177 -164 293 -340 293c-228 0 -375 -191 -375 -495c0 -308 145 -498 376 -498c179 0 308 105 340 276h294c-34 -322 -281 -526 -635 -526zM745 1562c-84 0 -149 67 -149 149
s65 149 149 149s149 -67 149 -149s-65 -149 -149 -149z" />
    <glyph glyph-name="Ccedilla" unicode="&#xc7;" horiz-adv-x="1459" 
d="M1099 501h294c-32 -299 -246 -496 -560 -523l-41 -88c113 -1 188 -62 188 -164c0 -121 -96 -185 -248 -186c-57 -1 -116 5 -142 14v122c24 -7 73 -12 112 -12c75 0 111 18 111 54c0 41 -35 55 -123 55h-63v98l49 108c-372 34 -601 308 -601 743c0 465 265 746 683 746
c347 0 611 -220 634 -543h-294c-28 177 -164 293 -340 293c-228 0 -375 -191 -375 -495c0 -308 145 -498 376 -498c179 0 308 105 340 276z" />
    <glyph glyph-name="Ccedillaacute" unicode="&#x1e08;" horiz-adv-x="1459" 
d="M1127 1864l-267 -305h-230l226 305h271zM1099 501h294c-32 -299 -246 -496 -560 -523l-41 -88c113 -1 188 -62 188 -164c0 -121 -96 -185 -248 -186c-57 -1 -116 5 -142 14v122c24 -7 73 -12 112 -12c75 0 111 18 111 54c0 41 -35 55 -123 55h-63v98l49 108
c-372 34 -601 308 -601 743c0 465 265 746 683 746c347 0 611 -220 634 -543h-294c-28 177 -164 293 -340 293c-228 0 -375 -191 -375 -495c0 -308 145 -498 376 -498c179 0 308 105 340 276z" />
    <glyph glyph-name="D" unicode="D" horiz-adv-x="1433" 
d="M120 1443h551c433 0 688 -258 688 -716s-255 -727 -688 -727h-551v1443zM422 1194v-944h213c270 0 416 164 416 476c0 302 -150 468 -416 468h-213z" />
    <glyph glyph-name="Ddotaccent" unicode="&#x1e0a;" horiz-adv-x="1433" 
d="M120 1443h551c433 0 688 -258 688 -716s-255 -727 -688 -727h-551v1443zM422 1194v-944h213c270 0 416 164 416 476c0 302 -150 468 -416 468h-213zM644 1561c-84 0 -149 67 -149 149s65 149 149 149s149 -67 149 -149s-65 -149 -149 -149z" />
    <glyph glyph-name="Dcircumflexbelow" unicode="&#x1e12;" horiz-adv-x="1433" 
d="M120 1443h551c433 0 688 -258 688 -716s-255 -727 -688 -727h-551v1443zM422 1194v-944h213c270 0 416 164 416 476c0 302 -150 468 -416 468h-213zM532 -141h224l269 -317h-221l-156 192h-8l-156 -192h-221z" />
    <glyph glyph-name="Dcommaaccent" unicode="&#x1e10;" horiz-adv-x="1433" 
d="M120 1443h551c433 0 688 -258 688 -716s-255 -727 -688 -727h-551v1443zM422 1194v-944h213c270 0 416 164 416 476c0 302 -150 468 -416 468h-213zM615 -472h-217l130 340h256z" />
    <glyph glyph-name="Dlinebelow" unicode="&#x1e0e;" horiz-adv-x="1433" 
d="M120 1443h551c433 0 688 -258 688 -716s-255 -727 -688 -727h-551v1443zM422 1194v-944h213c270 0 416 164 416 476c0 302 -150 468 -416 468h-213zM990 -229v-148h-692v148h692z" />
    <glyph glyph-name="Dcaron" unicode="&#x10e;" horiz-adv-x="1433" 
d="M120 1443h551c433 0 688 -258 688 -716s-255 -727 -688 -727h-551v1443zM422 1194v-944h213c270 0 416 164 416 476c0 302 -150 468 -416 468h-213zM532 1543l-269 317h221l156 -192h8l156 192h221l-269 -317h-224z" />
    <glyph glyph-name="Ddotbelow" unicode="&#x1e0c;" horiz-adv-x="1433" 
d="M120 1443h551c433 0 688 -258 688 -716s-255 -727 -688 -727h-551v1443zM422 1194v-944h213c270 0 416 164 416 476c0 302 -150 468 -416 468h-213zM644 -456c-84 0 -149 67 -149 149s65 149 149 149s149 -67 149 -149s-65 -149 -149 -149z" />
    <glyph glyph-name="Dcroat" unicode="&#x110;" horiz-adv-x="1453" 
d="M442 250h213c270 0 416 164 416 476c0 302 -150 468 -416 468h-213v-351h255v-221h-255v-372zM140 1443h551c433 0 688 -258 688 -716s-255 -727 -688 -727h-551v622h-98v221h98v600z" />
    <glyph glyph-name="E" unicode="E" horiz-adv-x="1174" 
d="M1076 250v-250h-956v1443h956v-249h-654v-348h617v-232h-617v-364h654z" />
    <glyph glyph-name="Egrave" unicode="&#xc8;" horiz-adv-x="1174" 
d="M1076 250v-250h-956v1443h956v-249h-654v-348h617v-232h-617v-364h654zM480 1563l-267 305h271l226 -305h-230z" />
    <glyph glyph-name="Edblgrave" unicode="&#x204;" horiz-adv-x="1174" 
d="M1076 250v-250h-956v1443h956v-249h-654v-348h617v-232h-617v-364h654zM680 1558l-267 305h271l226 -305h-230zM280 1558l-267 305h271l226 -305h-230z" />
    <glyph glyph-name="Eacute" unicode="&#xc9;" horiz-adv-x="1174" 
d="M1076 250v-250h-956v1443h956v-249h-654v-348h617v-232h-617v-364h654zM713 1558h-230l226 305h271z" />
    <glyph glyph-name="Ecircumflex" unicode="&#xca;" horiz-adv-x="1174" 
d="M1076 250v-250h-956v1443h956v-249h-654v-348h617v-232h-617v-364h654zM486 1855h224l269 -317h-221l-156 192h-8l-156 -192h-221z" />
    <glyph glyph-name="Ecircumflexhookabove" unicode="&#x1ec2;" horiz-adv-x="1174" 
d="M1076 250v-250h-956v1443h956v-249h-654v-348h617v-232h-617v-364h654zM482 1820h232l268 -282h-227l-153 167h-8l-153 -167h-227zM716 1981v126c32 16 85 26 135 26c136 0 223 -73 223 -189c0 -87 -56 -171 -151 -207l-92 98c51 19 74 56 74 94c0 41 -36 69 -91 69
c-33 0 -73 -7 -98 -17z" />
    <glyph glyph-name="Ecircumflexgrave" unicode="&#x1ec0;" horiz-adv-x="1174" 
d="M1076 250v-250h-956v1443h956v-249h-654v-348h617v-232h-617v-364h654zM482 1820h232l268 -282h-227l-153 167h-8l-153 -167h-227zM967 1878h-216l-215 248h246z" />
    <glyph glyph-name="Ecircumflextilde" unicode="&#x1ec4;" horiz-adv-x="1174" 
d="M1076 250v-250h-956v1443h956v-249h-654v-348h617v-232h-617v-364h654zM731 1875c-141 0 -185 125 -254 125c-45 0 -70 -44 -73 -104h-159c0 154 92 250 220 250c141 0 185 -123 254 -123c43 0 69 40 73 104h159c0 -152 -96 -252 -220 -252zM482 1815h232l268 -277h-227
l-153 163h-8l-153 -163h-227z" />
    <glyph glyph-name="Ecircumflexdotbelow" unicode="&#x1ec6;" horiz-adv-x="1174" 
d="M1076 250v-250h-956v1443h956v-249h-654v-348h617v-232h-617v-364h654zM486 1855h224l269 -317h-221l-156 192h-8l-156 -192h-221zM598 -456c-84 0 -149 67 -149 149s65 149 149 149s149 -67 149 -149s-65 -149 -149 -149z" />
    <glyph glyph-name="Ecircumflexacute" unicode="&#x1ebe;" horiz-adv-x="1174" 
d="M1076 250v-250h-956v1443h956v-249h-654v-348h617v-232h-617v-364h654zM482 1820h232l268 -282h-227l-153 167h-8l-153 -167h-227zM707 1878l185 248h246l-215 -248h-216z" />
    <glyph glyph-name="Edieresis" unicode="&#xcb;" horiz-adv-x="1174" 
d="M1076 250v-250h-956v1443h956v-249h-654v-348h617v-232h-617v-364h654zM394 1571c-76 0 -134 58 -134 130s58 130 134 130s134 -58 134 -130s-58 -130 -134 -130zM802 1571c-76 0 -134 58 -134 130s58 130 134 130s134 -58 134 -130s-58 -130 -134 -130z" />
    <glyph glyph-name="Edotbelow" unicode="&#x1eb8;" horiz-adv-x="1174" 
d="M1076 250v-250h-956v1443h956v-249h-654v-348h617v-232h-617v-364h654zM598 -456c-84 0 -149 67 -149 149s65 149 149 149s149 -67 149 -149s-65 -149 -149 -149z" />
    <glyph glyph-name="Einvertedbreve" unicode="&#x206;" horiz-adv-x="1174" 
d="M1076 250v-250h-956v1443h956v-249h-654v-348h617v-232h-617v-364h654zM240 1539c9 172 136 320 358 320s349 -148 358 -320h-181c-8 104 -74 171 -177 171s-169 -67 -177 -171h-181z" />
    <glyph glyph-name="Ehookabove" unicode="&#x1eba;" horiz-adv-x="1174" 
d="M1076 250v-250h-956v1443h956v-249h-654v-348h617v-232h-617v-364h654zM413 1780v132c35 16 90 25 143 25c144 0 237 -74 237 -195c0 -97 -78 -185 -188 -228l-86 105c57 20 97 63 97 107c0 43 -39 73 -97 73c-33 0 -77 -7 -106 -19z" />
    <glyph glyph-name="Ecaron" unicode="&#x11a;" horiz-adv-x="1174" 
d="M1076 250v-250h-956v1443h956v-249h-654v-348h617v-232h-617v-364h654zM486 1543l-269 317h221l156 -192h8l156 192h221l-269 -317h-224z" />
    <glyph glyph-name="Emacron" unicode="&#x112;" horiz-adv-x="1174" 
d="M1076 250v-250h-956v1443h956v-249h-654v-348h617v-232h-617v-364h654zM944 1768v-148h-692v148h692z" />
    <glyph glyph-name="Emacrongrave" unicode="&#x1e14;" horiz-adv-x="1174" 
d="M1076 250v-250h-956v1443h956v-249h-654v-348h617v-232h-617v-364h654zM252 1599v148h692v-148h-692zM712 1878h-216l-215 248h246z" />
    <glyph glyph-name="Emacronacute" unicode="&#x1e16;" horiz-adv-x="1174" 
d="M1076 250v-250h-956v1443h956v-249h-654v-348h617v-232h-617v-364h654zM944 1599h-692v148h692v-148zM487 1878l185 248h246l-215 -248h-216z" />
    <glyph glyph-name="Etilde" unicode="&#x1ebc;" horiz-adv-x="1174" 
d="M1076 250v-250h-956v1443h956v-249h-654v-348h617v-232h-617v-364h654zM740 1563c-139 0 -191 136 -265 136c-46 0 -70 -49 -70 -122h-159c0 176 96 274 220 274c144 0 193 -135 265 -135c44 0 67 45 69 124h159c0 -173 -98 -277 -219 -277z" />
    <glyph glyph-name="Ecircumflexbelow" unicode="&#x1e18;" horiz-adv-x="1174" 
d="M1076 250v-250h-956v1443h956v-249h-654v-348h617v-232h-617v-364h654zM486 -141h224l269 -317h-221l-156 192h-8l-156 -192h-221z" />
    <glyph glyph-name="Ebreve" unicode="&#x114;" horiz-adv-x="1174" 
d="M1076 250v-250h-956v1443h956v-249h-654v-348h617v-232h-617v-364h654zM240 1859h181c8 -103 74 -171 177 -171s169 68 177 171h181c-9 -172 -136 -320 -358 -320s-349 148 -358 320z" />
    <glyph glyph-name="Etildebelow" unicode="&#x1e1a;" horiz-adv-x="1174" 
d="M1076 250v-250h-956v1443h956v-249h-654v-348h617v-232h-617v-364h654zM740 -400c-139 0 -191 136 -265 136c-46 0 -70 -49 -70 -122h-159c0 176 96 274 220 274c144 0 193 -135 265 -135c44 0 67 45 69 124h159c0 -173 -98 -277 -219 -277z" />
    <glyph glyph-name="Edotaccent" unicode="&#x116;" horiz-adv-x="1174" 
d="M1076 250v-250h-956v1443h956v-249h-654v-348h617v-232h-617v-364h654zM598 1561c-84 0 -149 67 -149 149s65 149 149 149s149 -67 149 -149s-65 -149 -149 -149z" />
    <glyph glyph-name="Ecedilla" unicode="&#x228;" horiz-adv-x="1174" 
d="M1076 1194h-654v-348h617v-232h-617v-364h654v-250h-380l-51 -110c113 -1 188 -62 188 -164c0 -121 -96 -185 -248 -186c-57 -1 -116 5 -142 14v122c24 -7 73 -12 112 -12c75 0 111 18 111 54c0 41 -35 55 -123 55h-63v98l59 129h-419v1443h956v-249z" />
    <glyph glyph-name="Ecedillabreve" unicode="&#x1e1c;" horiz-adv-x="1174" 
d="M775 1859h181c-9 -172 -136 -320 -358 -320s-349 148 -358 320h181c8 -103 74 -171 177 -171s169 68 177 171zM1076 1194h-654v-348h617v-232h-617v-364h654v-250h-380l-51 -110c113 -1 188 -62 188 -164c0 -121 -96 -185 -248 -186c-57 -1 -116 5 -142 14v122
c24 -7 73 -12 112 -12c75 0 111 18 111 54c0 41 -35 55 -123 55h-63v98l59 129h-419v1443h956v-249z" />
    <glyph glyph-name="Eogonek" unicode="&#x118;" horiz-adv-x="1174" 
d="M120 0v1443h956v-249h-654v-348h617v-232h-617v-364h654v-243l-35 -8c-124 -38 -211 -122 -211 -196c0 -63 49 -96 122 -96c29 0 60 4 76 9v-157c-28 -13 -80 -21 -145 -21c-155 0 -266 86 -266 213c0 95 60 186 156 245v4h-653z" />
    <glyph glyph-name="F" unicode="F" horiz-adv-x="1123" 
d="M422 0h-302v1443h945v-249h-643v-387h587v-239h-587v-568z" />
    <glyph glyph-name="Fdotaccent" unicode="&#x1e1e;" horiz-adv-x="1123" 
d="M422 0h-302v1443h945v-249h-643v-387h587v-239h-587v-568zM580 1561c-84 0 -149 67 -149 149s65 149 149 149s149 -67 149 -149s-65 -149 -149 -149z" />
    <glyph glyph-name="G" unicode="G" horiz-adv-x="1489" 
d="M1410 606c0 -393 -238 -631 -640 -631c-431 0 -695 282 -695 751c0 462 264 742 688 742c337 0 591 -199 634 -491h-303c-44 151 -167 241 -330 241c-238 0 -381 -181 -381 -488c0 -313 152 -504 392 -504c197 0 334 121 340 300l1 23h-314v220h608v-163z" />
    <glyph glyph-name="Gacute" unicode="&#x1f4;" horiz-adv-x="1489" 
d="M1410 606c0 -393 -238 -631 -640 -631c-431 0 -695 282 -695 751c0 462 264 742 688 742c337 0 591 -199 634 -491h-303c-44 151 -167 241 -330 241c-238 0 -381 -181 -381 -488c0 -313 152 -504 392 -504c197 0 334 121 340 300l1 23h-314v220h608v-163zM866 1558h-230
l226 305h271z" />
    <glyph glyph-name="Gcaron" unicode="&#x1e6;" horiz-adv-x="1489" 
d="M1410 606c0 -393 -238 -631 -640 -631c-431 0 -695 282 -695 751c0 462 264 742 688 742c337 0 591 -199 634 -491h-303c-44 151 -167 241 -330 241c-238 0 -381 -181 -381 -488c0 -313 152 -504 392 -504c197 0 334 121 340 300l1 23h-314v220h608v-163zM639 1543
l-269 317h221l156 -192h8l156 192h221l-269 -317h-224z" />
    <glyph glyph-name="Gcircumflex" unicode="&#x11c;" horiz-adv-x="1489" 
d="M1410 606c0 -393 -238 -631 -640 -631c-431 0 -695 282 -695 751c0 462 264 742 688 742c337 0 591 -199 634 -491h-303c-44 151 -167 241 -330 241c-238 0 -381 -181 -381 -488c0 -313 152 -504 392 -504c197 0 334 121 340 300l1 23h-314v220h608v-163zM639 1855h224
l269 -317h-221l-156 192h-8l-156 -192h-221z" />
    <glyph glyph-name="Gbreve" unicode="&#x11e;" horiz-adv-x="1489" 
d="M1410 606c0 -393 -238 -631 -640 -631c-431 0 -695 282 -695 751c0 462 264 742 688 742c337 0 591 -199 634 -491h-303c-44 151 -167 241 -330 241c-238 0 -381 -181 -381 -488c0 -313 152 -504 392 -504c197 0 334 121 340 300l1 23h-314v220h608v-163zM393 1859h181
c8 -103 74 -171 177 -171s169 68 177 171h181c-9 -172 -136 -320 -358 -320s-349 148 -358 320z" />
    <glyph glyph-name="Gmacron" unicode="&#x1e20;" horiz-adv-x="1489" 
d="M1410 606c0 -393 -238 -631 -640 -631c-431 0 -695 282 -695 751c0 462 264 742 688 742c337 0 591 -199 634 -491h-303c-44 151 -167 241 -330 241c-238 0 -381 -181 -381 -488c0 -313 152 -504 392 -504c197 0 334 121 340 300l1 23h-314v220h608v-163zM1097 1768v-148
h-692v148h692z" />
    <glyph glyph-name="Gdotaccent" unicode="&#x120;" horiz-adv-x="1489" 
d="M1410 606c0 -393 -238 -631 -640 -631c-431 0 -695 282 -695 751c0 462 264 742 688 742c337 0 591 -199 634 -491h-303c-44 151 -167 241 -330 241c-238 0 -381 -181 -381 -488c0 -313 152 -504 392 -504c197 0 334 121 340 300l1 23h-314v220h608v-163zM751 1561
c-84 0 -149 67 -149 149s65 149 149 149s149 -67 149 -149s-65 -149 -149 -149z" />
    <glyph glyph-name="Gcommaaccent" unicode="&#x122;" horiz-adv-x="1489" 
d="M1410 606c0 -393 -238 -631 -640 -631c-431 0 -695 282 -695 751c0 462 264 742 688 742c337 0 591 -199 634 -491h-303c-44 151 -167 241 -330 241c-238 0 -381 -181 -381 -488c0 -313 152 -504 392 -504c197 0 334 121 340 300l1 23h-314v220h608v-163zM722 -472h-217
l130 340h256z" />
    <glyph glyph-name="H" unicode="H" horiz-adv-x="1494" 
d="M1374 0h-302v608h-650v-608h-302v1443h302v-586h650v586h302v-1443z" />
    <glyph glyph-name="Hdieresis" unicode="&#x1e26;" horiz-adv-x="1494" 
d="M1374 0h-302v608h-650v-608h-302v1443h302v-586h650v586h302v-1443zM543 1571c-76 0 -134 58 -134 130s58 130 134 130s134 -58 134 -130s-58 -130 -134 -130zM951 1571c-76 0 -134 58 -134 130s58 130 134 130s134 -58 134 -130s-58 -130 -134 -130z" />
    <glyph glyph-name="Hcaron" unicode="&#x21e;" horiz-adv-x="1494" 
d="M1374 0h-302v608h-650v-608h-302v1443h302v-586h650v586h302v-1443zM635 1543l-269 317h221l156 -192h8l156 192h221l-269 -317h-224z" />
    <glyph glyph-name="Hcircumflex" unicode="&#x124;" horiz-adv-x="1494" 
d="M1374 0h-302v608h-650v-608h-302v1443h302v-586h650v586h302v-1443zM635 1855h224l269 -317h-221l-156 192h-8l-156 -192h-221z" />
    <glyph glyph-name="Hdotbelow" unicode="&#x1e24;" horiz-adv-x="1494" 
d="M1374 0h-302v608h-650v-608h-302v1443h302v-586h650v586h302v-1443zM747 -456c-84 0 -149 67 -149 149s65 149 149 149s149 -67 149 -149s-65 -149 -149 -149z" />
    <glyph glyph-name="Hdotaccent" unicode="&#x1e22;" horiz-adv-x="1494" 
d="M1374 0h-302v608h-650v-608h-302v1443h302v-586h650v586h302v-1443zM747 1561c-84 0 -149 67 -149 149s65 149 149 149s149 -67 149 -149s-65 -149 -149 -149z" />
    <glyph glyph-name="Hbrevebelow" unicode="&#x1e2a;" horiz-adv-x="1494" 
d="M1374 0h-302v608h-650v-608h-302v1443h302v-586h650v586h302v-1443zM389 -128h181c8 -103 74 -171 177 -171s169 68 177 171h181c-9 -172 -136 -320 -358 -320s-349 148 -358 320z" />
    <glyph glyph-name="Hcedilla" unicode="&#x1e28;" horiz-adv-x="1494" 
d="M1072 1443h302v-1443h-302v608h-650v-596v-12l-51 -110c113 -1 188 -62 188 -164c0 -121 -96 -185 -248 -186c-57 -1 -116 5 -142 14v122c24 -7 73 -12 112 -12c75 0 111 18 111 54c0 41 -35 55 -123 55h-63v98l59 129h-145v1443h302v-586h650v586z" />
    <glyph glyph-name="Hbar" unicode="&#x126;" horiz-adv-x="1521" 
d="M1085 857v195h-650v-195h650zM1493 1263v-211h-106v-1052h-302v608h-650v-608h-302v1052h-105v211h105v180h302v-180h650v180h302v-180h106z" />
    <glyph glyph-name="I" unicode="I" horiz-adv-x="542" 
d="M422 0h-302v1443h302v-1443z" />
    <glyph glyph-name="Idotaccent" unicode="&#x130;" horiz-adv-x="542" 
d="M422 0h-302v1443h302v-1443zM271 1561c-84 0 -149 67 -149 149s65 149 149 149s149 -67 149 -149s-65 -149 -149 -149z" />
    <glyph glyph-name="Igrave" unicode="&#xcc;" horiz-adv-x="542" 
d="M422 0h-302v1443h302v-1443zM153 1563l-267 305h271l226 -305h-230z" />
    <glyph glyph-name="Idblgrave" unicode="&#x208;" horiz-adv-x="542" 
d="M422 0h-302v1443h302v-1443zM353 1558l-267 305h271l226 -305h-230zM-47 1558l-267 305h271l226 -305h-230z" />
    <glyph glyph-name="Iacute" unicode="&#xcd;" horiz-adv-x="542" 
d="M422 0h-302v1443h302v-1443zM386 1558h-230l226 305h271z" />
    <glyph glyph-name="Icircumflex" unicode="&#xce;" horiz-adv-x="542" 
d="M422 0h-302v1443h302v-1443zM159 1855h224l269 -317h-221l-156 192h-8l-156 -192h-221z" />
    <glyph glyph-name="Icaron" unicode="&#x1cf;" horiz-adv-x="542" 
d="M422 0h-302v1443h302v-1443zM159 1543l-269 317h221l156 -192h8l156 192h221l-269 -317h-224z" />
    <glyph glyph-name="Idieresis" unicode="&#xcf;" horiz-adv-x="542" 
d="M422 0h-302v1443h302v-1443zM67 1571c-76 0 -134 58 -134 130s58 130 134 130s134 -58 134 -130s-58 -130 -134 -130zM475 1571c-76 0 -134 58 -134 130s58 130 134 130s134 -58 134 -130s-58 -130 -134 -130z" />
    <glyph glyph-name="Idieresisacute" unicode="&#x1e2e;" horiz-adv-x="542" 
d="M422 0h-302v1443h302v-1443zM152 1878l185 248h246l-215 -248h-216zM71 1545c-75 0 -131 58 -131 128c0 71 56 128 131 128s131 -57 131 -128c0 -70 -56 -128 -131 -128zM471 1545c-75 0 -131 58 -131 128c0 71 56 128 131 128s131 -57 131 -128
c0 -70 -56 -128 -131 -128z" />
    <glyph glyph-name="Ibreve" unicode="&#x12c;" horiz-adv-x="542" 
d="M422 0h-302v1443h302v-1443zM-87 1859h181c8 -103 74 -171 177 -171s169 68 177 171h181c-9 -172 -136 -320 -358 -320s-349 148 -358 320z" />
    <glyph glyph-name="Idotbelow" unicode="&#x1eca;" horiz-adv-x="542" 
d="M422 0h-302v1443h302v-1443zM271 -456c-84 0 -149 67 -149 149s65 149 149 149s149 -67 149 -149s-65 -149 -149 -149z" />
    <glyph glyph-name="Iinvertedbreve" unicode="&#x20a;" horiz-adv-x="542" 
d="M422 0h-302v1443h302v-1443zM-87 1539c9 172 136 320 358 320s349 -148 358 -320h-181c-8 104 -74 171 -177 171s-169 -67 -177 -171h-181z" />
    <glyph glyph-name="Imacron" unicode="&#x12a;" horiz-adv-x="542" 
d="M422 0h-302v1443h302v-1443zM617 1768v-148h-692v148h692z" />
    <glyph glyph-name="Itildebelow" unicode="&#x1e2c;" horiz-adv-x="542" 
d="M422 0h-302v1443h302v-1443zM413 -400c-139 0 -191 136 -265 136c-46 0 -70 -49 -70 -122h-159c0 176 96 274 220 274c144 0 193 -135 265 -135c44 0 67 45 69 124h159c0 -173 -98 -277 -219 -277z" />
    <glyph glyph-name="Ihookabove" unicode="&#x1ec8;" horiz-adv-x="542" 
d="M422 0h-302v1443h302v-1443zM86 1780v132c35 16 90 25 143 25c144 0 237 -74 237 -195c0 -97 -78 -185 -188 -228l-86 105c57 20 97 63 97 107c0 43 -39 73 -97 73c-33 0 -77 -7 -106 -19z" />
    <glyph glyph-name="Itilde" unicode="&#x128;" horiz-adv-x="542" 
d="M422 0h-302v1443h302v-1443zM413 1563c-139 0 -191 136 -265 136c-46 0 -70 -49 -70 -122h-159c0 176 96 274 220 274c144 0 193 -135 265 -135c44 0 67 45 69 124h159c0 -173 -98 -277 -219 -277z" />
    <glyph glyph-name="Iogonek" unicode="&#x12e;" horiz-adv-x="542" 
d="M120 -31v1474h302v-1441l-23 -6c-90 -40 -182 -110 -182 -189c0 -65 51 -100 129 -100c25 0 55 4 76 9v-157c-25 -11 -70 -21 -150 -21c-154 0 -264 87 -264 214c0 80 41 155 112 217z" />
    <glyph glyph-name="I.1" horiz-adv-x="994" 
d="M919 1206h-271v-968h271v-238h-271h-302h-271v238h271v968h-271v237h271h302h271v-237z" />
    <glyph glyph-name="Idotaccent.1" horiz-adv-x="994" 
d="M497 1561c-84 0 -149 67 -149 149s65 149 149 149s149 -67 149 -149s-65 -149 -149 -149zM919 1206h-271v-968h271v-238h-271h-302h-271v238h271v968h-271v237h271h302h271v-237z" />
    <glyph glyph-name="Igrave.1" horiz-adv-x="994" 
d="M628 1563h-230l-267 305h271zM919 1206h-271v-968h271v-238h-271h-302h-271v238h271v968h-271v237h271h302h271v-237z" />
    <glyph glyph-name="Idblgrave.1" horiz-adv-x="994" 
d="M820 1558h-230l-267 305h271zM420 1558h-230l-267 305h271zM919 1206h-271v-968h271v-238h-271h-302h-271v238h271v968h-271v237h271h302h271v-237z" />
    <glyph glyph-name="Iacute.1" horiz-adv-x="994" 
d="M859 1863l-267 -305h-230l226 305h271zM919 1206h-271v-968h271v-238h-271h-302h-271v238h271v968h-271v237h271h302h271v-237z" />
    <glyph glyph-name="Icircumflex.1" horiz-adv-x="994" 
d="M493 1730l-156 -192h-221l269 317h224l269 -317h-221l-156 192h-8zM919 1206h-271v-968h271v-238h-271h-302h-271v238h271v968h-271v237h271h302h271v-237z" />
    <glyph glyph-name="Icaron.1" horiz-adv-x="994" 
d="M609 1543h-224l-269 317h221l156 -192h8l156 192h221zM919 1206h-271v-968h271v-238h-271h-302h-271v238h271v968h-271v237h271h302h271v-237z" />
    <glyph glyph-name="Idieresis.1" horiz-adv-x="994" 
d="M701 1571c-76 0 -134 58 -134 130s58 130 134 130s134 -58 134 -130s-58 -130 -134 -130zM293 1571c-76 0 -134 58 -134 130s58 130 134 130s134 -58 134 -130s-58 -130 -134 -130zM919 1206h-271v-968h271v-238h-271h-302h-271v238h271v968h-271v237h271h302h271v-237z
" />
    <glyph glyph-name="Idieresisacute.1" horiz-adv-x="994" 
d="M809 2126l-215 -248h-216l185 248h246zM697 1801c75 0 131 -57 131 -128c0 -70 -56 -128 -131 -128s-131 58 -131 128c0 71 56 128 131 128zM297 1545c-75 0 -131 58 -131 128c0 71 56 128 131 128s131 -57 131 -128c0 -70 -56 -128 -131 -128zM919 1206h-271v-968h271
v-238h-271h-302h-271v238h271v968h-271v237h271h302h271v-237z" />
    <glyph glyph-name="Ibreve.1" horiz-adv-x="994" 
d="M674 1859h181c-9 -172 -136 -320 -358 -320s-349 148 -358 320h181c8 -103 74 -171 177 -171s169 68 177 171zM919 1206h-271v-968h271v-238h-271h-302h-271v238h271v968h-271v237h271h302h271v-237z" />
    <glyph glyph-name="Idotbelow.1" horiz-adv-x="994" 
d="M497 -158c84 0 149 -67 149 -149s-65 -149 -149 -149s-149 67 -149 149s65 149 149 149zM919 1206h-271v-968h271v-238h-271h-302h-271v238h271v968h-271v237h271h302h271v-237z" />
    <glyph glyph-name="Iinvertedbreve.1" horiz-adv-x="994" 
d="M855 1539h-181c-8 104 -74 171 -177 171s-169 -67 -177 -171h-181c9 172 136 320 358 320s349 -148 358 -320zM919 1206h-271v-968h271v-238h-271h-302h-271v238h271v968h-271v237h271h302h271v-237z" />
    <glyph glyph-name="Imacron.1" horiz-adv-x="994" 
d="M843 1768v-148h-692v148h692zM919 1206h-271v-968h271v-238h-271h-302h-271v238h271v968h-271v237h271h302h271v-237z" />
    <glyph glyph-name="Itildebelow.1" horiz-adv-x="994" 
d="M304 -386h-159c0 176 96 274 220 274c144 0 193 -135 265 -135c44 0 67 45 69 124h159c0 -173 -98 -277 -219 -277c-139 0 -191 136 -265 136c-46 0 -70 -49 -70 -122zM919 1206h-271v-968h271v-238h-271h-302h-271v238h271v968h-271v237h271h302h271v-237z" />
    <glyph glyph-name="Ihookabove.1" horiz-adv-x="994" 
d="M505 1514l-86 105c57 20 97 63 97 107c0 43 -39 73 -97 73c-33 0 -77 -7 -106 -19v132c35 16 90 25 143 25c144 0 237 -74 237 -195c0 -97 -78 -185 -188 -228zM919 1206h-271v-968h271v-238h-271h-302h-271v238h271v968h-271v237h271h302h271v-237z" />
    <glyph glyph-name="Itilde.1" horiz-adv-x="994" 
d="M699 1840h159c0 -173 -98 -277 -219 -277c-139 0 -191 136 -265 136c-46 0 -70 -49 -70 -122h-159c0 176 96 274 220 274c144 0 193 -135 265 -135c44 0 67 45 69 124zM919 1206h-271v-968h271v-238h-271h-302h-271v238h271v968h-271v237h271h302h271v-237z" />
    <glyph glyph-name="Iogonek.1" horiz-adv-x="994" 
d="M726 -462c-156 0 -267 87 -267 214c0 90 54 180 143 236v12h-527v238h271v968h-271v237h844v-237h-271v-968h271v-230l-35 -8c-119 -38 -211 -117 -211 -197c0 -61 46 -96 122 -96c30 0 60 4 76 9v-157c-20 -9 -65 -21 -145 -21z" />
    <glyph glyph-name="J" unicode="J" horiz-adv-x="1143" 
d="M31 425h293c2 -117 78 -194 192 -194c126 0 194 78 194 223v989h302v-991c0 -307 -184 -482 -493 -482c-295 0 -488 179 -488 455z" />
    <glyph glyph-name="Jcircumflex" unicode="&#x134;" horiz-adv-x="1143" 
d="M31 425h293c2 -117 78 -194 192 -194c126 0 194 78 194 223v989h302v-991c0 -307 -184 -482 -493 -482c-295 0 -488 179 -488 455zM753 1855h224l269 -317h-221l-156 192h-8l-156 -192h-221z" />
    <glyph glyph-name="K" unicode="K" horiz-adv-x="1353" 
d="M422 0h-302v1443h302v-658h9l542 658h336l-534 -640l571 -803h-361l-428 603l-135 -162v-441z" />
    <glyph glyph-name="Kacute" unicode="&#x1e30;" horiz-adv-x="1353" 
d="M422 0h-302v1443h302v-658h9l542 658h336l-534 -640l571 -803h-361l-428 603l-135 -162v-441zM781 1558h-230l226 305h271z" />
    <glyph glyph-name="Kcaron" unicode="&#x1e8;" horiz-adv-x="1353" 
d="M422 0h-302v1443h302v-658h9l542 658h336l-534 -640l571 -803h-361l-428 603l-135 -162v-441zM554 1543l-269 317h221l156 -192h8l156 192h221l-269 -317h-224z" />
    <glyph glyph-name="Kdotbelow" unicode="&#x1e32;" horiz-adv-x="1353" 
d="M422 0h-302v1443h302v-658h9l542 658h336l-534 -640l571 -803h-361l-428 603l-135 -162v-441zM666 -456c-84 0 -149 67 -149 149s65 149 149 149s149 -67 149 -149s-65 -149 -149 -149z" />
    <glyph glyph-name="Klinebelow" unicode="&#x1e34;" horiz-adv-x="1353" 
d="M422 0h-302v1443h302v-658h9l542 658h336l-534 -640l571 -803h-361l-428 603l-135 -162v-441zM1012 -229v-148h-692v148h692z" />
    <glyph glyph-name="Kcommaaccent" unicode="&#x136;" horiz-adv-x="1353" 
d="M422 0h-302v1443h302v-658h9l542 658h336l-534 -640l571 -803h-361l-428 603l-135 -162v-441zM637 -472h-217l130 340h256z" />
    <glyph glyph-name="L" unicode="L" horiz-adv-x="1112" 
d="M1053 250v-250h-933v1443h302v-1193h631z" />
    <glyph glyph-name="Lacute" unicode="&#x139;" horiz-adv-x="1112" 
d="M1053 250v-250h-933v1443h302v-1193h631zM386 1558h-230l226 305h271z" />
    <glyph glyph-name="Lcircumflexbelow" unicode="&#x1e3c;" horiz-adv-x="1112" 
d="M1053 250v-250h-933v1443h302v-1193h631zM465 -141h224l269 -317h-221l-156 192h-8l-156 -192h-221z" />
    <glyph glyph-name="Ldotbelow" unicode="&#x1e36;" horiz-adv-x="1112" 
d="M1053 250v-250h-933v1443h302v-1193h631zM577 -456c-84 0 -149 67 -149 149s65 149 149 149s149 -67 149 -149s-65 -149 -149 -149z" />
    <glyph glyph-name="Ldotbelowmacron" unicode="&#x1e38;" horiz-adv-x="1112" 
d="M1053 250v-250h-933v1443h302v-1193h631zM577 -456c-84 0 -149 67 -149 149s65 149 149 149s149 -67 149 -149s-65 -149 -149 -149zM617 1768v-148h-692v148h692z" />
    <glyph glyph-name="Llinebelow" unicode="&#x1e3a;" horiz-adv-x="1112" 
d="M1053 250v-250h-933v1443h302v-1193h631zM923 -229v-148h-692v148h692z" />
    <glyph glyph-name="Lcommaaccent" unicode="&#x13b;" horiz-adv-x="1112" 
d="M1053 250v-250h-933v1443h302v-1193h631zM548 -472h-217l130 340h256z" />
    <glyph glyph-name="Lcaron" unicode="&#x13d;" horiz-adv-x="1112" 
d="M675 1443h246l-50 -503h-196v503zM1053 250v-250h-933v1443h302v-1193h631z" />
    <glyph glyph-name="Lslash" unicode="&#x141;" horiz-adv-x="1125" 
d="M435 250h631v-250h-933v638l-97 -49v199l97 49v606h302v-454l293 148v-200l-293 -147v-540z" />
    <glyph glyph-name="M" unicode="M" horiz-adv-x="1768" 
d="M1648 0h-269v974h-8l-392 -960h-190l-392 960h-8v-974h-269v1443h350l410 -1023h8l410 1023h350v-1443z" />
    <glyph glyph-name="Macute" unicode="&#x1e3e;" horiz-adv-x="1768" 
d="M1648 0h-269v974h-8l-392 -960h-190l-392 960h-8v-974h-269v1443h350l410 -1023h8l410 1023h350v-1443zM999 1558h-230l226 305h271z" />
    <glyph glyph-name="Mdotaccent" unicode="&#x1e40;" horiz-adv-x="1768" 
d="M1648 0h-269v974h-8l-392 -960h-190l-392 960h-8v-974h-269v1443h350l410 -1023h8l410 1023h350v-1443zM884 1561c-84 0 -149 67 -149 149s65 149 149 149s149 -67 149 -149s-65 -149 -149 -149z" />
    <glyph glyph-name="Mdotbelow" unicode="&#x1e42;" horiz-adv-x="1768" 
d="M1648 0h-269v974h-8l-392 -960h-190l-392 960h-8v-974h-269v1443h350l410 -1023h8l410 1023h350v-1443zM884 -456c-84 0 -149 67 -149 149s65 149 149 149s149 -67 149 -149s-65 -149 -149 -149z" />
    <glyph glyph-name="N" unicode="N" horiz-adv-x="1463" 
d="M409 0h-289v1443h252l674 -940h8v940h289v-1443h-250l-675 945h-9v-945z" />
    <glyph glyph-name="Ngrave" unicode="&#x1f8;" horiz-adv-x="1463" 
d="M409 0h-289v1443h252l674 -940h8v940h289v-1443h-250l-675 945h-9v-945zM614 1563l-267 305h271l226 -305h-230z" />
    <glyph glyph-name="Nacute" unicode="&#x143;" horiz-adv-x="1463" 
d="M409 0h-289v1443h252l674 -940h8v940h289v-1443h-250l-675 945h-9v-945zM847 1558h-230l226 305h271z" />
    <glyph glyph-name="Ntilde" unicode="&#xd1;" horiz-adv-x="1463" 
d="M409 0h-289v1443h252l674 -940h8v940h289v-1443h-250l-675 945h-9v-945zM874 1563c-139 0 -191 136 -265 136c-46 0 -70 -49 -70 -122h-159c0 176 96 274 220 274c144 0 193 -135 265 -135c44 0 67 45 69 124h159c0 -173 -98 -277 -219 -277z" />
    <glyph glyph-name="Ndotbelow" unicode="&#x1e46;" horiz-adv-x="1463" 
d="M409 0h-289v1443h252l674 -940h8v940h289v-1443h-250l-675 945h-9v-945zM732 -456c-84 0 -149 67 -149 149s65 149 149 149s149 -67 149 -149s-65 -149 -149 -149z" />
    <glyph glyph-name="Ndotaccent" unicode="&#x1e44;" horiz-adv-x="1463" 
d="M409 0h-289v1443h252l674 -940h8v940h289v-1443h-250l-675 945h-9v-945zM732 1561c-84 0 -149 67 -149 149s65 149 149 149s149 -67 149 -149s-65 -149 -149 -149z" />
    <glyph glyph-name="Ncaron" unicode="&#x147;" horiz-adv-x="1463" 
d="M409 0h-289v1443h252l674 -940h8v940h289v-1443h-250l-675 945h-9v-945zM620 1543l-269 317h221l156 -192h8l156 192h221l-269 -317h-224z" />
    <glyph glyph-name="Ncircumflexbelow" unicode="&#x1e4a;" horiz-adv-x="1463" 
d="M409 0h-289v1443h252l674 -940h8v940h289v-1443h-250l-675 945h-9v-945zM620 -141h224l269 -317h-221l-156 192h-8l-156 -192h-221z" />
    <glyph glyph-name="Nlinebelow" unicode="&#x1e48;" horiz-adv-x="1463" 
d="M409 0h-289v1443h252l674 -940h8v940h289v-1443h-250l-675 945h-9v-945zM1078 -229v-148h-692v148h692z" />
    <glyph glyph-name="Ncommaaccent" unicode="&#x145;" horiz-adv-x="1463" 
d="M409 0h-289v1443h252l674 -940h8v940h289v-1443h-250l-675 945h-9v-945zM703 -472h-217l130 340h256z" />
    <glyph glyph-name="O" unicode="O" horiz-adv-x="1541" 
d="M771 1468c427 0 696 -287 696 -747c0 -459 -269 -746 -696 -746c-428 0 -696 287 -696 746c0 460 268 747 696 747zM771 1216c-236 0 -388 -192 -388 -495c0 -302 151 -493 388 -493c236 0 387 191 387 493c0 303 -151 495 -387 495z" />
    <glyph glyph-name="Odieresis" unicode="&#xd6;" horiz-adv-x="1541" 
d="M771 1468c427 0 696 -287 696 -747c0 -459 -269 -746 -696 -746c-428 0 -696 287 -696 746c0 460 268 747 696 747zM771 1216c-236 0 -388 -192 -388 -495c0 -302 151 -493 388 -493c236 0 387 191 387 493c0 303 -151 495 -387 495zM567 1571c-76 0 -134 58 -134 130
s58 130 134 130s134 -58 134 -130s-58 -130 -134 -130zM975 1571c-76 0 -134 58 -134 130s58 130 134 130s134 -58 134 -130s-58 -130 -134 -130z" />
    <glyph glyph-name="Oslash" unicode="&#xd8;" horiz-adv-x="1541" 
d="M1081 1041l-505 -759c55 -35 121 -54 195 -54c236 0 387 191 387 493c0 129 -27 238 -77 320zM484 366l514 773c-61 50 -138 77 -227 77c-236 0 -388 -192 -388 -495c0 -148 36 -270 101 -355zM1350 1446l-100 -150c139 -130 217 -327 217 -575
c0 -459 -269 -746 -696 -746c-132 0 -249 27 -347 78l-80 -120l-102 68l80 120c-158 128 -247 335 -247 600c0 460 268 747 696 747c147 0 276 -34 381 -98l90 136z" />
    <glyph glyph-name="Otilde" unicode="&#xd5;" horiz-adv-x="1541" 
d="M771 1468c427 0 696 -287 696 -747c0 -459 -269 -746 -696 -746c-428 0 -696 287 -696 746c0 460 268 747 696 747zM771 1216c-236 0 -388 -192 -388 -495c0 -302 151 -493 388 -493c236 0 387 191 387 493c0 303 -151 495 -387 495zM913 1563c-139 0 -191 136 -265 136
c-46 0 -70 -49 -70 -122h-159c0 176 96 274 220 274c144 0 193 -135 265 -135c44 0 67 45 69 124h159c0 -173 -98 -277 -219 -277z" />
    <glyph glyph-name="Oacute" unicode="&#xd3;" horiz-adv-x="1541" 
d="M771 1468c427 0 696 -287 696 -747c0 -459 -269 -746 -696 -746c-428 0 -696 287 -696 746c0 460 268 747 696 747zM771 1216c-236 0 -388 -192 -388 -495c0 -302 151 -493 388 -493c236 0 387 191 387 493c0 303 -151 495 -387 495zM886 1558h-230l226 305h271z" />
    <glyph glyph-name="Ocircumflex" unicode="&#xd4;" horiz-adv-x="1541" 
d="M771 1468c427 0 696 -287 696 -747c0 -459 -269 -746 -696 -746c-428 0 -696 287 -696 746c0 460 268 747 696 747zM771 1216c-236 0 -388 -192 -388 -495c0 -302 151 -493 388 -493c236 0 387 191 387 493c0 303 -151 495 -387 495zM659 1855h224l269 -317h-221
l-156 192h-8l-156 -192h-221z" />
    <glyph glyph-name="Ograve" unicode="&#xd2;" horiz-adv-x="1541" 
d="M771 1468c427 0 696 -287 696 -747c0 -459 -269 -746 -696 -746c-428 0 -696 287 -696 746c0 460 268 747 696 747zM771 1216c-236 0 -388 -192 -388 -495c0 -302 151 -493 388 -493c236 0 387 191 387 493c0 303 -151 495 -387 495zM653 1563l-267 305h271l226 -305
h-230z" />
    <glyph glyph-name="Ocircumflexhookabove" unicode="&#x1ed4;" horiz-adv-x="1541" 
d="M771 1468c427 0 696 -287 696 -747c0 -459 -269 -746 -696 -746c-428 0 -696 287 -696 746c0 460 268 747 696 747zM771 1216c-236 0 -388 -192 -388 -495c0 -302 151 -493 388 -493c236 0 387 191 387 493c0 303 -151 495 -387 495zM655 1820h232l268 -282h-227
l-153 167h-8l-153 -167h-227zM889 1981v126c32 16 85 26 135 26c136 0 223 -73 223 -189c0 -87 -56 -171 -151 -207l-92 98c51 19 74 56 74 94c0 41 -36 69 -91 69c-33 0 -73 -7 -98 -17z" />
    <glyph glyph-name="Ocircumflexgrave" unicode="&#x1ed2;" horiz-adv-x="1541" 
d="M771 1468c427 0 696 -287 696 -747c0 -459 -269 -746 -696 -746c-428 0 -696 287 -696 746c0 460 268 747 696 747zM771 1216c-236 0 -388 -192 -388 -495c0 -302 151 -493 388 -493c236 0 387 191 387 493c0 303 -151 495 -387 495zM655 1820h232l268 -282h-227
l-153 167h-8l-153 -167h-227zM1140 1878h-216l-215 248h246z" />
    <glyph glyph-name="Odotbelow" unicode="&#x1ecc;" horiz-adv-x="1541" 
d="M771 1468c427 0 696 -287 696 -747c0 -459 -269 -746 -696 -746c-428 0 -696 287 -696 746c0 460 268 747 696 747zM771 1216c-236 0 -388 -192 -388 -495c0 -302 151 -493 388 -493c236 0 387 191 387 493c0 303 -151 495 -387 495zM771 -456c-84 0 -149 67 -149 149
s65 149 149 149s149 -67 149 -149s-65 -149 -149 -149z" />
    <glyph glyph-name="Odblgrave" unicode="&#x20c;" horiz-adv-x="1541" 
d="M771 1468c427 0 696 -287 696 -747c0 -459 -269 -746 -696 -746c-428 0 -696 287 -696 746c0 460 268 747 696 747zM771 1216c-236 0 -388 -192 -388 -495c0 -302 151 -493 388 -493c236 0 387 191 387 493c0 303 -151 495 -387 495zM853 1558l-267 305h271l226 -305
h-230zM453 1558l-267 305h271l226 -305h-230z" />
    <glyph glyph-name="Otildeacute" unicode="&#x1e4c;" horiz-adv-x="1541" 
d="M771 1468c427 0 696 -287 696 -747c0 -459 -269 -746 -696 -746c-428 0 -696 287 -696 746c0 460 268 747 696 747zM771 1216c-236 0 -388 -192 -388 -495c0 -302 151 -493 388 -493c236 0 387 191 387 493c0 303 -151 495 -387 495zM907 1539c-137 0 -189 135 -261 135
c-45 0 -70 -48 -69 -115h-156c0 168 92 265 215 265c136 0 188 -134 261 -134c44 0 67 45 68 118h156c0 -167 -94 -269 -214 -269zM660 1888l185 238h246l-215 -238h-216z" />
    <glyph glyph-name="Omacronacute" unicode="&#x1e52;" horiz-adv-x="1541" 
d="M771 1468c427 0 696 -287 696 -747c0 -459 -269 -746 -696 -746c-428 0 -696 287 -696 746c0 460 268 747 696 747zM771 1216c-236 0 -388 -192 -388 -495c0 -302 151 -493 388 -493c236 0 387 191 387 493c0 303 -151 495 -387 495zM1117 1599h-692v148h692v-148z
M660 1878l185 248h246l-215 -248h-216z" />
    <glyph glyph-name="Ocircumflextilde" unicode="&#x1ed6;" horiz-adv-x="1541" 
d="M771 1468c427 0 696 -287 696 -747c0 -459 -269 -746 -696 -746c-428 0 -696 287 -696 746c0 460 268 747 696 747zM771 1216c-236 0 -388 -192 -388 -495c0 -302 151 -493 388 -493c236 0 387 191 387 493c0 303 -151 495 -387 495zM904 1875c-141 0 -185 125 -254 125
c-45 0 -70 -44 -73 -104h-159c0 154 92 250 220 250c141 0 185 -123 254 -123c43 0 69 40 73 104h159c0 -152 -96 -252 -220 -252zM655 1815h232l268 -277h-227l-153 163h-8l-153 -163h-227z" />
    <glyph glyph-name="Odotaccentmacron" unicode="&#x230;" horiz-adv-x="1541" 
d="M771 1468c427 0 696 -287 696 -747c0 -459 -269 -746 -696 -746c-428 0 -696 287 -696 746c0 460 268 747 696 747zM771 1216c-236 0 -388 -192 -388 -495c0 -302 151 -493 388 -493c236 0 387 191 387 493c0 303 -151 495 -387 495zM771 1555c-79 0 -138 60 -138 134
c0 72 59 132 138 132s138 -60 138 -132c0 -74 -59 -134 -138 -134zM1117 2073v-148h-692v148h692z" />
    <glyph glyph-name="Omacrongrave" unicode="&#x1e50;" horiz-adv-x="1541" 
d="M771 1468c427 0 696 -287 696 -747c0 -459 -269 -746 -696 -746c-428 0 -696 287 -696 746c0 460 268 747 696 747zM771 1216c-236 0 -388 -192 -388 -495c0 -302 151 -493 388 -493c236 0 387 191 387 493c0 303 -151 495 -387 495zM425 1599v148h692v-148h-692z
M885 1878h-216l-215 248h246z" />
    <glyph glyph-name="Ocaron" unicode="&#x1d1;" horiz-adv-x="1541" 
d="M771 1468c427 0 696 -287 696 -747c0 -459 -269 -746 -696 -746c-428 0 -696 287 -696 746c0 460 268 747 696 747zM771 1216c-236 0 -388 -192 -388 -495c0 -302 151 -493 388 -493c236 0 387 191 387 493c0 303 -151 495 -387 495zM659 1543l-269 317h221l156 -192h8
l156 192h221l-269 -317h-224z" />
    <glyph glyph-name="Oslashacute" unicode="&#x1fe;" horiz-adv-x="1541" 
d="M1166 1863l-267 -305h-230l226 305h271zM1081 1041l-505 -759c55 -35 121 -54 195 -54c236 0 387 191 387 493c0 129 -27 238 -77 320zM484 366l514 773c-61 50 -138 77 -227 77c-236 0 -388 -192 -388 -495c0 -148 36 -270 101 -355zM1350 1446l-100 -150
c139 -130 217 -327 217 -575c0 -459 -269 -746 -696 -746c-132 0 -249 27 -347 78l-80 -120l-102 68l80 120c-158 128 -247 335 -247 600c0 460 268 747 696 747c147 0 276 -34 381 -98l90 136z" />
    <glyph glyph-name="Ohungarumlaut" unicode="&#x150;" horiz-adv-x="1541" 
d="M771 1468c427 0 696 -287 696 -747c0 -459 -269 -746 -696 -746c-428 0 -696 287 -696 746c0 460 268 747 696 747zM771 1216c-236 0 -388 -192 -388 -495c0 -302 151 -493 388 -493c236 0 387 191 387 493c0 303 -151 495 -387 495zM1089 1558h-230l226 305h271z
M689 1558h-230l226 305h271z" />
    <glyph glyph-name="Obreve" unicode="&#x14e;" horiz-adv-x="1541" 
d="M771 1468c427 0 696 -287 696 -747c0 -459 -269 -746 -696 -746c-428 0 -696 287 -696 746c0 460 268 747 696 747zM771 1216c-236 0 -388 -192 -388 -495c0 -302 151 -493 388 -493c236 0 387 191 387 493c0 303 -151 495 -387 495zM413 1859h181
c8 -103 74 -171 177 -171s169 68 177 171h181c-9 -172 -136 -320 -358 -320s-349 148 -358 320z" />
    <glyph glyph-name="Oinvertedbreve" unicode="&#x20e;" horiz-adv-x="1541" 
d="M771 1468c427 0 696 -287 696 -747c0 -459 -269 -746 -696 -746c-428 0 -696 287 -696 746c0 460 268 747 696 747zM771 1216c-236 0 -388 -192 -388 -495c0 -302 151 -493 388 -493c236 0 387 191 387 493c0 303 -151 495 -387 495zM413 1539c9 172 136 320 358 320
s349 -148 358 -320h-181c-8 104 -74 171 -177 171s-169 -67 -177 -171h-181z" />
    <glyph glyph-name="Ohookabove" unicode="&#x1ece;" horiz-adv-x="1541" 
d="M771 1468c427 0 696 -287 696 -747c0 -459 -269 -746 -696 -746c-428 0 -696 287 -696 746c0 460 268 747 696 747zM771 1216c-236 0 -388 -192 -388 -495c0 -302 151 -493 388 -493c236 0 387 191 387 493c0 303 -151 495 -387 495zM586 1780v132c35 16 90 25 143 25
c144 0 237 -74 237 -195c0 -97 -78 -185 -188 -228l-86 105c57 20 97 63 97 107c0 43 -39 73 -97 73c-33 0 -77 -7 -106 -19z" />
    <glyph glyph-name="Odieresismacron" unicode="&#x22a;" horiz-adv-x="1541" 
d="M771 1468c427 0 696 -287 696 -747c0 -459 -269 -746 -696 -746c-428 0 -696 287 -696 746c0 460 268 747 696 747zM771 1216c-236 0 -388 -192 -388 -495c0 -302 151 -493 388 -493c236 0 387 191 387 493c0 303 -151 495 -387 495zM571 1801c75 0 131 -57 131 -128
c0 -70 -56 -128 -131 -128s-131 58 -131 128c0 71 56 128 131 128zM425 2073h692v-148h-692v148zM971 1801c75 0 131 -57 131 -128c0 -70 -56 -128 -131 -128s-131 58 -131 128c0 71 56 128 131 128z" />
    <glyph glyph-name="Otildemacron" unicode="&#x22c;" horiz-adv-x="1541" 
d="M771 1468c427 0 696 -287 696 -747c0 -459 -269 -746 -696 -746c-428 0 -696 287 -696 746c0 460 268 747 696 747zM771 1216c-236 0 -388 -192 -388 -495c0 -302 151 -493 388 -493c236 0 387 191 387 493c0 303 -151 495 -387 495zM907 1539c-137 0 -189 135 -261 135
c-45 0 -70 -48 -69 -115h-156c0 168 92 265 215 265c136 0 188 -134 261 -134c44 0 67 45 68 118h156c0 -167 -94 -269 -214 -269zM1117 2073v-148h-692v148h692z" />
    <glyph glyph-name="Odotaccent" unicode="&#x22e;" horiz-adv-x="1541" 
d="M771 1468c427 0 696 -287 696 -747c0 -459 -269 -746 -696 -746c-428 0 -696 287 -696 746c0 460 268 747 696 747zM771 1216c-236 0 -388 -192 -388 -495c0 -302 151 -493 388 -493c236 0 387 191 387 493c0 303 -151 495 -387 495zM771 1561c-84 0 -149 67 -149 149
s65 149 149 149s149 -67 149 -149s-65 -149 -149 -149z" />
    <glyph glyph-name="Ocircumflexdotbelow" unicode="&#x1ed8;" horiz-adv-x="1541" 
d="M771 1468c427 0 696 -287 696 -747c0 -459 -269 -746 -696 -746c-428 0 -696 287 -696 746c0 460 268 747 696 747zM771 1216c-236 0 -388 -192 -388 -495c0 -302 151 -493 388 -493c236 0 387 191 387 493c0 303 -151 495 -387 495zM659 1855h224l269 -317h-221
l-156 192h-8l-156 -192h-221zM771 -456c-84 0 -149 67 -149 149s65 149 149 149s149 -67 149 -149s-65 -149 -149 -149z" />
    <glyph glyph-name="Ocircumflexacute" unicode="&#x1ed0;" horiz-adv-x="1541" 
d="M771 1468c427 0 696 -287 696 -747c0 -459 -269 -746 -696 -746c-428 0 -696 287 -696 746c0 460 268 747 696 747zM771 1216c-236 0 -388 -192 -388 -495c0 -302 151 -493 388 -493c236 0 387 191 387 493c0 303 -151 495 -387 495zM655 1820h232l268 -282h-227
l-153 167h-8l-153 -167h-227zM880 1878l185 248h246l-215 -248h-216z" />
    <glyph glyph-name="Otildedieresis" unicode="&#x1e4e;" horiz-adv-x="1541" 
d="M771 1468c427 0 696 -287 696 -747c0 -459 -269 -746 -696 -746c-428 0 -696 287 -696 746c0 460 268 747 696 747zM771 1216c-236 0 -388 -192 -388 -495c0 -302 151 -493 388 -493c236 0 387 191 387 493c0 303 -151 495 -387 495zM907 1541c-137 0 -189 133 -261 133
c-45 0 -70 -48 -69 -114h-156c0 167 92 263 215 263c136 0 188 -133 261 -133c44 0 67 44 68 112h156c0 -160 -94 -261 -214 -261zM571 2152c75 0 131 -57 131 -128s-56 -128 -131 -128s-131 57 -131 128s56 128 131 128zM971 2152c75 0 131 -57 131 -128
s-56 -128 -131 -128s-131 57 -131 128s56 128 131 128z" />
    <glyph glyph-name="Omacron" unicode="&#x14c;" horiz-adv-x="1541" 
d="M771 1468c427 0 696 -287 696 -747c0 -459 -269 -746 -696 -746c-428 0 -696 287 -696 746c0 460 268 747 696 747zM771 1216c-236 0 -388 -192 -388 -495c0 -302 151 -493 388 -493c236 0 387 191 387 493c0 303 -151 495 -387 495zM1117 1768v-148h-692v148h692z" />
    <glyph glyph-name="Oogonek" unicode="&#x1ea;" horiz-adv-x="1541" 
d="M1010 -462c-156 0 -267 84 -267 209c0 90 62 182 151 234v6c-29 -5 -85 -12 -123 -12c-429 0 -696 287 -696 746s268 747 696 747s696 -288 696 -747c0 -280 -101 -495 -302 -659c-136 -109 -208 -183 -208 -255c0 -66 49 -100 121 -100c30 0 60 4 77 9v-157
c-29 -13 -81 -21 -145 -21zM771 1216c-237 0 -388 -193 -388 -495c0 -301 151 -493 388 -493s387 192 387 493c0 302 -150 495 -387 495z" />
    <glyph glyph-name="Oogonekmacron" unicode="&#x1ec;" horiz-adv-x="1541" 
d="M1010 -462c-156 0 -267 84 -267 209c0 90 62 182 151 234v6c-29 -5 -85 -12 -123 -12c-429 0 -696 287 -696 746s268 747 696 747s696 -288 696 -747c0 -280 -101 -495 -302 -659c-136 -109 -208 -183 -208 -255c0 -66 49 -100 121 -100c30 0 60 4 77 9v-157
c-29 -13 -81 -21 -145 -21zM771 1216c-237 0 -388 -193 -388 -495c0 -301 151 -493 388 -493s387 192 387 493c0 302 -150 495 -387 495zM1117 1768v-148h-692v148h692z" />
    <glyph glyph-name="Ohorn" unicode="&#x1a0;" horiz-adv-x="1599" 
d="M771 -25c-429 0 -696 287 -696 746s268 747 696 747c173 0 271 -50 431 -50c75 0 109 27 109 89v163h231v-231c0 -130 -77 -206 -207 -206h-61v-7c110 -84 193 -304 193 -505c0 -458 -268 -746 -696 -746zM771 228c237 0 387 192 387 493c0 303 -150 495 -387 495
s-388 -193 -388 -495c0 -301 151 -493 388 -493z" />
    <glyph glyph-name="Ohorndotbelow" unicode="&#x1ee2;" horiz-adv-x="1599" 
d="M771 -25c-429 0 -696 287 -696 746s268 747 696 747c173 0 271 -50 431 -50c75 0 109 27 109 89v163h231v-231c0 -130 -77 -206 -207 -206h-61v-7c110 -84 193 -304 193 -505c0 -458 -268 -746 -696 -746zM771 228c237 0 387 192 387 493c0 303 -150 495 -387 495
s-388 -193 -388 -495c0 -301 151 -493 388 -493zM771 -456c-84 0 -149 67 -149 149s65 149 149 149s149 -67 149 -149s-65 -149 -149 -149z" />
    <glyph glyph-name="Ohornhookabove" unicode="&#x1ede;" horiz-adv-x="1599" 
d="M771 -25c-429 0 -696 287 -696 746s268 747 696 747c173 0 271 -50 431 -50c75 0 109 27 109 89v163h231v-231c0 -130 -77 -206 -207 -206h-61v-7c110 -84 193 -304 193 -505c0 -458 -268 -746 -696 -746zM771 228c237 0 387 192 387 493c0 303 -150 495 -387 495
s-388 -193 -388 -495c0 -301 151 -493 388 -493zM586 1780v132c35 16 90 25 143 25c144 0 237 -74 237 -195c0 -97 -78 -185 -188 -228l-86 105c57 20 97 63 97 107c0 43 -39 73 -97 73c-33 0 -77 -7 -106 -19z" />
    <glyph glyph-name="Ohorntilde" unicode="&#x1ee0;" horiz-adv-x="1599" 
d="M771 -25c-429 0 -696 287 -696 746s268 747 696 747c173 0 271 -50 431 -50c75 0 109 27 109 89v163h231v-231c0 -130 -77 -206 -207 -206h-61v-7c110 -84 193 -304 193 -505c0 -458 -268 -746 -696 -746zM771 228c237 0 387 192 387 493c0 303 -150 495 -387 495
s-388 -193 -388 -495c0 -301 151 -493 388 -493zM913 1563c-139 0 -191 136 -265 136c-46 0 -70 -49 -70 -122h-159c0 176 96 274 220 274c144 0 193 -135 265 -135c44 0 67 45 69 124h159c0 -173 -98 -277 -219 -277z" />
    <glyph glyph-name="Ohorngrave" unicode="&#x1edc;" horiz-adv-x="1599" 
d="M771 -25c-429 0 -696 287 -696 746s268 747 696 747c173 0 271 -50 431 -50c75 0 109 27 109 89v163h231v-231c0 -130 -77 -206 -207 -206h-61v-7c110 -84 193 -304 193 -505c0 -458 -268 -746 -696 -746zM771 228c237 0 387 192 387 493c0 303 -150 495 -387 495
s-388 -193 -388 -495c0 -301 151 -493 388 -493zM653 1563l-267 305h271l226 -305h-230z" />
    <glyph glyph-name="Ohornacute" unicode="&#x1eda;" horiz-adv-x="1599" 
d="M771 -25c-429 0 -696 287 -696 746s268 747 696 747c173 0 271 -50 431 -50c75 0 109 27 109 89v163h231v-231c0 -130 -77 -206 -207 -206h-61v-7c110 -84 193 -304 193 -505c0 -458 -268 -746 -696 -746zM771 228c237 0 387 192 387 493c0 303 -150 495 -387 495
s-388 -193 -388 -495c0 -301 151 -493 388 -493zM886 1558h-230l226 305h271z" />
    <glyph glyph-name="P" unicode="P" horiz-adv-x="1265" 
d="M120 1443h587c296 0 500 -197 500 -494c0 -296 -211 -494 -515 -494h-270v-455h-302v1443zM422 1204v-513h204c173 0 274 92 274 257c0 164 -100 256 -273 256h-205z" />
    <glyph glyph-name="Pdotaccent" unicode="&#x1e56;" horiz-adv-x="1265" 
d="M120 1443h587c296 0 500 -197 500 -494c0 -296 -211 -494 -515 -494h-270v-455h-302v1443zM422 1204v-513h204c173 0 274 92 274 257c0 164 -100 256 -273 256h-205zM589 1561c-84 0 -149 67 -149 149s65 149 149 149s149 -67 149 -149s-65 -149 -149 -149z" />
    <glyph glyph-name="Pacute" unicode="&#x1e54;" horiz-adv-x="1265" 
d="M120 1443h587c296 0 500 -197 500 -494c0 -296 -211 -494 -515 -494h-270v-455h-302v1443zM422 1204v-513h204c173 0 274 92 274 257c0 164 -100 256 -273 256h-205zM704 1558h-230l226 305h271z" />
    <glyph glyph-name="Q" unicode="Q" horiz-adv-x="1541" 
d="M771 -25c-428 0 -696 283 -696 746c0 459 268 747 696 747c427 0 695 -288 695 -747c0 -254 -81 -458 -230 -581l183 -276h-293l-103 151c-77 -27 -161 -40 -252 -40zM771 225c37 0 71 5 103 14l-158 236h273l63 -86c68 78 106 193 106 332c0 303 -151 498 -387 498
c-237 0 -388 -195 -388 -498c0 -302 151 -496 388 -496z" />
    <glyph glyph-name="R" unicode="R" horiz-adv-x="1311" 
d="M422 1207v-460h260c152 0 241 87 241 230c0 140 -94 230 -244 230h-257zM422 528v-528h-302v1443h591c332 0 522 -175 522 -460c0 -185 -96 -345 -262 -410l304 -573h-342l-269 528v0h-242z" />
    <glyph glyph-name="Rcaron" unicode="&#x158;" horiz-adv-x="1311" 
d="M422 1207v-460h260c152 0 241 87 241 230c0 140 -94 230 -244 230h-257zM422 528v-528h-302v1443h591c332 0 522 -175 522 -460c0 -185 -96 -345 -262 -410l304 -573h-342l-269 528v0h-242zM504 1543l-269 317h221l156 -192h8l156 192h221l-269 -317h-224z" />
    <glyph glyph-name="Rlinebelow" unicode="&#x1e5e;" horiz-adv-x="1311" 
d="M422 1207v-460h260c152 0 241 87 241 230c0 140 -94 230 -244 230h-257zM422 528v-528h-302v1443h591c332 0 522 -175 522 -460c0 -185 -96 -345 -262 -410l304 -573h-342l-269 528v0h-242zM962 -229v-148h-692v148h692z" />
    <glyph glyph-name="Rdotbelowmacron" unicode="&#x1e5c;" horiz-adv-x="1311" 
d="M422 1207v-460h260c152 0 241 87 241 230c0 140 -94 230 -244 230h-257zM422 528v-528h-302v1443h591c332 0 522 -175 522 -460c0 -185 -96 -345 -262 -410l304 -573h-342l-269 528v0h-242zM616 -456c-84 0 -149 67 -149 149s65 149 149 149s149 -67 149 -149
s-65 -149 -149 -149zM962 1768v-148h-692v148h692z" />
    <glyph glyph-name="Rdblgrave" unicode="&#x210;" horiz-adv-x="1311" 
d="M422 1207v-460h260c152 0 241 87 241 230c0 140 -94 230 -244 230h-257zM422 528v-528h-302v1443h591c332 0 522 -175 522 -460c0 -185 -96 -345 -262 -410l304 -573h-342l-269 528v0h-242zM698 1558l-267 305h271l226 -305h-230zM298 1558l-267 305h271l226 -305h-230z
" />
    <glyph glyph-name="Rinvertedbreve" unicode="&#x212;" horiz-adv-x="1311" 
d="M422 1207v-460h260c152 0 241 87 241 230c0 140 -94 230 -244 230h-257zM422 528v-528h-302v1443h591c332 0 522 -175 522 -460c0 -185 -96 -345 -262 -410l304 -573h-342l-269 528v0h-242zM258 1539c9 172 136 320 358 320s349 -148 358 -320h-181
c-8 104 -74 171 -177 171s-169 -67 -177 -171h-181z" />
    <glyph glyph-name="Racute" unicode="&#x154;" horiz-adv-x="1311" 
d="M422 1207v-460h260c152 0 241 87 241 230c0 140 -94 230 -244 230h-257zM422 528v-528h-302v1443h591c332 0 522 -175 522 -460c0 -185 -96 -345 -262 -410l304 -573h-342l-269 528v0h-242zM731 1558h-230l226 305h271z" />
    <glyph glyph-name="Rdotbelow" unicode="&#x1e5a;" horiz-adv-x="1311" 
d="M422 1207v-460h260c152 0 241 87 241 230c0 140 -94 230 -244 230h-257zM422 528v-528h-302v1443h591c332 0 522 -175 522 -460c0 -185 -96 -345 -262 -410l304 -573h-342l-269 528v0h-242zM616 -456c-84 0 -149 67 -149 149s65 149 149 149s149 -67 149 -149
s-65 -149 -149 -149z" />
    <glyph glyph-name="Rdotaccent" unicode="&#x1e58;" horiz-adv-x="1311" 
d="M422 1207v-460h260c152 0 241 87 241 230c0 140 -94 230 -244 230h-257zM422 528v-528h-302v1443h591c332 0 522 -175 522 -460c0 -185 -96 -345 -262 -410l304 -573h-342l-269 528v0h-242zM616 1561c-84 0 -149 67 -149 149s65 149 149 149s149 -67 149 -149
s-65 -149 -149 -149z" />
    <glyph glyph-name="Rcommaaccent" unicode="&#x156;" horiz-adv-x="1311" 
d="M422 1207v-460h260c152 0 241 87 241 230c0 140 -94 230 -244 230h-257zM422 528v-528h-302v1443h591c332 0 522 -175 522 -460c0 -185 -96 -345 -262 -410l304 -573h-342l-269 528v0h-242zM587 -472h-217l130 340h256z" />
    <glyph glyph-name="S" unicode="S" horiz-adv-x="1293" 
d="M66 411h291c14 -119 138 -197 298 -197c161 0 271 77 271 183c0 94 -69 146 -243 185l-188 41c-266 57 -397 192 -397 403c0 266 230 442 552 442c336 0 547 -173 552 -434h-283c-10 122 -117 196 -268 196c-149 0 -249 -71 -249 -178c0 -89 70 -139 236 -177l175 -37
c289 -62 415 -186 415 -406c0 -280 -227 -457 -585 -457c-347 0 -568 165 -577 436z" />
    <glyph glyph-name="Scaron" unicode="&#x160;" horiz-adv-x="1293" 
d="M66 411h291c14 -119 138 -197 298 -197c161 0 271 77 271 183c0 94 -69 146 -243 185l-188 41c-266 57 -397 192 -397 403c0 266 230 442 552 442c336 0 547 -173 552 -434h-283c-10 122 -117 196 -268 196c-149 0 -249 -71 -249 -178c0 -89 70 -139 236 -177l175 -37
c289 -62 415 -186 415 -406c0 -280 -227 -457 -585 -457c-347 0 -568 165 -577 436zM542 1543l-269 317h221l156 -192h8l156 192h221l-269 -317h-224z" />
    <glyph glyph-name="Scedilla" unicode="&#x15e;" horiz-adv-x="1293" 
d="M638 875l175 -37c289 -62 415 -186 415 -406c0 -255 -189 -425 -494 -453l-41 -89c113 -1 188 -62 188 -164c0 -121 -96 -185 -248 -186c-57 -1 -116 5 -142 14v122c24 -7 73 -12 112 -12c75 0 111 18 111 54c0 41 -35 55 -123 55h-63v98l48 106
c-308 20 -502 181 -510 434h291c14 -119 138 -197 298 -197c161 0 271 77 271 183c0 94 -69 146 -243 185l-188 41c-266 57 -397 192 -397 403c0 266 230 442 552 442c336 0 547 -173 552 -434h-283c-10 122 -117 196 -268 196c-149 0 -249 -71 -249 -178
c0 -89 70 -139 236 -177z" />
    <glyph glyph-name="Sdotaccent" unicode="&#x1e60;" horiz-adv-x="1293" 
d="M66 411h291c14 -119 138 -197 298 -197c161 0 271 77 271 183c0 94 -69 146 -243 185l-188 41c-266 57 -397 192 -397 403c0 266 230 442 552 442c336 0 547 -173 552 -434h-283c-10 122 -117 196 -268 196c-149 0 -249 -71 -249 -178c0 -89 70 -139 236 -177l175 -37
c289 -62 415 -186 415 -406c0 -280 -227 -457 -585 -457c-347 0 -568 165 -577 436zM654 1561c-84 0 -149 67 -149 149s65 149 149 149s149 -67 149 -149s-65 -149 -149 -149z" />
    <glyph glyph-name="Sdotbelow" unicode="&#x1e62;" horiz-adv-x="1293" 
d="M66 411h291c14 -119 138 -197 298 -197c161 0 271 77 271 183c0 94 -69 146 -243 185l-188 41c-266 57 -397 192 -397 403c0 266 230 442 552 442c336 0 547 -173 552 -434h-283c-10 122 -117 196 -268 196c-149 0 -249 -71 -249 -178c0 -89 70 -139 236 -177l175 -37
c289 -62 415 -186 415 -406c0 -280 -227 -457 -585 -457c-347 0 -568 165 -577 436zM646 -456c-84 0 -149 67 -149 149s65 149 149 149s149 -67 149 -149s-65 -149 -149 -149z" />
    <glyph glyph-name="Scommaaccent" unicode="&#x218;" horiz-adv-x="1293" 
d="M66 411h291c14 -119 138 -197 298 -197c161 0 271 77 271 183c0 94 -69 146 -243 185l-188 41c-266 57 -397 192 -397 403c0 266 230 442 552 442c336 0 547 -173 552 -434h-283c-10 122 -117 196 -268 196c-149 0 -249 -71 -249 -178c0 -89 70 -139 236 -177l175 -37
c289 -62 415 -186 415 -406c0 -280 -227 -457 -585 -457c-347 0 -568 165 -577 436zM617 -472h-217l130 340h256z" />
    <glyph glyph-name="Sdotbelowdotaccent" unicode="&#x1e68;" horiz-adv-x="1293" 
d="M66 411h291c14 -119 138 -197 298 -197c161 0 271 77 271 183c0 94 -69 146 -243 185l-188 41c-266 57 -397 192 -397 403c0 266 230 442 552 442c336 0 547 -173 552 -434h-283c-10 122 -117 196 -268 196c-149 0 -249 -71 -249 -178c0 -89 70 -139 236 -177l175 -37
c289 -62 415 -186 415 -406c0 -280 -227 -457 -585 -457c-347 0 -568 165 -577 436zM646 -456c-84 0 -149 67 -149 149s65 149 149 149s149 -67 149 -149s-65 -149 -149 -149zM654 1561c-84 0 -149 67 -149 149s65 149 149 149s149 -67 149 -149s-65 -149 -149 -149z" />
    <glyph glyph-name="Scarondotaccent" unicode="&#x1e66;" horiz-adv-x="1293" 
d="M66 411h291c14 -119 138 -197 298 -197c161 0 271 77 271 183c0 94 -69 146 -243 185l-188 41c-266 57 -397 192 -397 403c0 266 230 442 552 442c336 0 547 -173 552 -434h-283c-10 122 -117 196 -268 196c-149 0 -249 -71 -249 -178c0 -89 70 -139 236 -177l175 -37
c289 -62 415 -186 415 -406c0 -280 -227 -457 -585 -457c-347 0 -568 165 -577 436zM538 1538l-268 282h227l153 -167h8l153 167h227l-268 -282h-232zM654 1852c-77 0 -134 59 -134 130c0 72 57 130 134 130s134 -58 134 -130c0 -71 -57 -130 -134 -130z" />
    <glyph glyph-name="Scircumflex" unicode="&#x15c;" horiz-adv-x="1293" 
d="M66 411h291c14 -119 138 -197 298 -197c161 0 271 77 271 183c0 94 -69 146 -243 185l-188 41c-266 57 -397 192 -397 403c0 266 230 442 552 442c336 0 547 -173 552 -434h-283c-10 122 -117 196 -268 196c-149 0 -249 -71 -249 -178c0 -89 70 -139 236 -177l175 -37
c289 -62 415 -186 415 -406c0 -280 -227 -457 -585 -457c-347 0 -568 165 -577 436zM542 1855h224l269 -317h-221l-156 192h-8l-156 -192h-221z" />
    <glyph glyph-name="Sacutedotaccent" unicode="&#x1e64;" horiz-adv-x="1293" 
d="M66 411h291c14 -119 138 -197 298 -197c161 0 271 77 271 183c0 94 -69 146 -243 185l-188 41c-266 57 -397 192 -397 403c0 266 230 442 552 442c336 0 547 -173 552 -434h-283c-10 122 -117 196 -268 196c-149 0 -249 -71 -249 -178c0 -89 70 -139 236 -177l175 -37
c289 -62 415 -186 415 -406c0 -280 -227 -457 -585 -457c-347 0 -568 165 -577 436zM888 1558h-230l226 305h271zM427 1569c-84 0 -149 67 -149 149s65 149 149 149s149 -67 149 -149s-65 -149 -149 -149z" />
    <glyph glyph-name="Sacute" unicode="&#x15a;" horiz-adv-x="1293" 
d="M66 411h291c14 -119 138 -197 298 -197c161 0 271 77 271 183c0 94 -69 146 -243 185l-188 41c-266 57 -397 192 -397 403c0 266 230 442 552 442c336 0 547 -173 552 -434h-283c-10 122 -117 196 -268 196c-149 0 -249 -71 -249 -178c0 -89 70 -139 236 -177l175 -37
c289 -62 415 -186 415 -406c0 -280 -227 -457 -585 -457c-347 0 -568 165 -577 436zM769 1558h-230l226 305h271z" />
    <glyph glyph-name="germandbls.uc" unicode="&#x1e9e;" horiz-adv-x="2586" 
d="M66 411h291c14 -119 138 -197 298 -197c161 0 271 77 271 183c0 94 -69 146 -243 185l-188 41c-266 57 -397 192 -397 403c0 266 230 442 552 442c336 0 547 -173 552 -434h-283c-10 122 -117 196 -268 196c-149 0 -249 -71 -249 -178c0 -89 70 -139 236 -177l175 -37
c289 -62 415 -186 415 -406c0 -280 -227 -457 -585 -457c-347 0 -568 165 -577 436zM1359 411h291c14 -119 138 -197 298 -197c161 0 271 77 271 183c0 94 -69 146 -243 185l-188 41c-266 57 -397 192 -397 403c0 266 230 442 552 442c336 0 547 -173 552 -434h-283
c-10 122 -117 196 -268 196c-149 0 -249 -71 -249 -178c0 -89 70 -139 236 -177l175 -37c289 -62 415 -186 415 -406c0 -280 -227 -457 -585 -457c-347 0 -568 165 -577 436z" />
    <glyph glyph-name="T" unicode="T" horiz-adv-x="1232" 
d="M767 0h-302v1194h-417v249h1137v-249h-418v-1194z" />
    <glyph glyph-name="Tcircumflexbelow" unicode="&#x1e70;" horiz-adv-x="1232" 
d="M767 0h-302v1194h-417v249h1137v-249h-418v-1194zM504 -141h224l269 -317h-221l-156 192h-8l-156 -192h-221z" />
    <glyph glyph-name="Tdotbelow" unicode="&#x1e6c;" horiz-adv-x="1232" 
d="M767 0h-302v1194h-417v249h1137v-249h-418v-1194zM616 -456c-84 0 -149 67 -149 149s65 149 149 149s149 -67 149 -149s-65 -149 -149 -149z" />
    <glyph glyph-name="Tcommaaccent" unicode="&#x21a;" horiz-adv-x="1232" 
d="M767 0h-302v1194h-417v249h1137v-249h-418v-1194zM573 -472h-217l130 340h256z" />
    <glyph glyph-name="Tdotaccent" unicode="&#x1e6a;" horiz-adv-x="1232" 
d="M767 0h-302v1194h-417v249h1137v-249h-418v-1194zM616 1561c-84 0 -149 67 -149 149s65 149 149 149s149 -67 149 -149s-65 -149 -149 -149z" />
    <glyph glyph-name="Tcedilla" unicode="&#x162;" horiz-adv-x="1232" 
d="M767 0h-48l-51 -110c113 -1 188 -62 188 -164c0 -121 -96 -185 -248 -186c-57 -1 -116 5 -142 14v122c24 -7 73 -12 112 -12c75 0 111 18 111 54c0 41 -35 55 -123 55h-63v98l59 129h-97v1194h-417v249h1137v-249h-418v-1194z" />
    <glyph glyph-name="Tlinebelow" unicode="&#x1e6e;" horiz-adv-x="1232" 
d="M767 0h-302v1194h-417v249h1137v-249h-418v-1194zM962 -229v-148h-692v148h692z" />
    <glyph glyph-name="Tcaron" unicode="&#x164;" horiz-adv-x="1232" 
d="M767 0h-302v1194h-417v249h1137v-249h-418v-1194zM504 1543l-269 317h221l156 -192h8l156 192h221l-269 -317h-224z" />
    <glyph glyph-name="Tbar" unicode="&#x166;" horiz-adv-x="1268" 
d="M1195 1194h-418v-394h291v-211h-291v-589h-302v589h-275v211h275v394h-417v249h1137v-249z" />
    <glyph glyph-name="U" unicode="U" horiz-adv-x="1449" 
d="M422 1443v-903c0 -185 109 -306 303 -306c193 0 302 121 302 306v903h302v-933c0 -318 -235 -535 -604 -535c-370 0 -605 217 -605 535v933h302z" />
    <glyph glyph-name="Ugrave" unicode="&#xd9;" horiz-adv-x="1449" 
d="M422 1443v-903c0 -185 109 -306 303 -306c193 0 302 121 302 306v903h302v-933c0 -318 -235 -535 -604 -535c-370 0 -605 217 -605 535v933h302zM607 1563l-267 305h271l226 -305h-230z" />
    <glyph glyph-name="Udblgrave" unicode="&#x214;" horiz-adv-x="1449" 
d="M422 1443v-903c0 -185 109 -306 303 -306c193 0 302 121 302 306v903h302v-933c0 -318 -235 -535 -604 -535c-370 0 -605 217 -605 535v933h302zM807 1558l-267 305h271l226 -305h-230zM407 1558l-267 305h271l226 -305h-230z" />
    <glyph glyph-name="Uacute" unicode="&#xda;" horiz-adv-x="1449" 
d="M422 1443v-903c0 -185 109 -306 303 -306c193 0 302 121 302 306v903h302v-933c0 -318 -235 -535 -604 -535c-370 0 -605 217 -605 535v933h302zM840 1558h-230l226 305h271z" />
    <glyph glyph-name="Uhungarumlaut" unicode="&#x170;" horiz-adv-x="1449" 
d="M422 1443v-903c0 -185 109 -306 303 -306c193 0 302 121 302 306v903h302v-933c0 -318 -235 -535 -604 -535c-370 0 -605 217 -605 535v933h302zM1043 1558h-230l226 305h271zM643 1558h-230l226 305h271z" />
    <glyph glyph-name="Ucircumflex" unicode="&#xdb;" horiz-adv-x="1449" 
d="M422 1443v-903c0 -185 109 -306 303 -306c193 0 302 121 302 306v903h302v-933c0 -318 -235 -535 -604 -535c-370 0 -605 217 -605 535v933h302zM613 1855h224l269 -317h-221l-156 192h-8l-156 -192h-221z" />
    <glyph glyph-name="Ucaron" unicode="&#x1d3;" horiz-adv-x="1449" 
d="M422 1443v-903c0 -185 109 -306 303 -306c193 0 302 121 302 306v903h302v-933c0 -318 -235 -535 -604 -535c-370 0 -605 217 -605 535v933h302zM613 1543l-269 317h221l156 -192h8l156 192h221l-269 -317h-224z" />
    <glyph glyph-name="Ucircumflexbelow" unicode="&#x1e76;" horiz-adv-x="1449" 
d="M422 1443v-903c0 -185 109 -306 303 -306c193 0 302 121 302 306v903h302v-933c0 -318 -235 -535 -604 -535c-370 0 -605 217 -605 535v933h302zM613 -141h224l269 -317h-221l-156 192h-8l-156 -192h-221z" />
    <glyph glyph-name="Udieresis" unicode="&#xdc;" horiz-adv-x="1449" 
d="M422 1443v-903c0 -185 109 -306 303 -306c193 0 302 121 302 306v903h302v-933c0 -318 -235 -535 -604 -535c-370 0 -605 217 -605 535v933h302zM521 1571c-76 0 -134 58 -134 130s58 130 134 130s134 -58 134 -130s-58 -130 -134 -130zM929 1571c-76 0 -134 58 -134 130
s58 130 134 130s134 -58 134 -130s-58 -130 -134 -130z" />
    <glyph glyph-name="Udieresisgrave" unicode="&#x1db;" horiz-adv-x="1449" 
d="M422 1443v-903c0 -185 109 -306 303 -306c193 0 302 121 302 306v903h302v-933c0 -318 -235 -535 -604 -535c-370 0 -605 217 -605 535v933h302zM839 1878h-216l-215 248h246zM525 1545c-75 0 -131 58 -131 128c0 71 56 128 131 128s131 -57 131 -128
c0 -70 -56 -128 -131 -128zM925 1545c-75 0 -131 58 -131 128c0 71 56 128 131 128s131 -57 131 -128c0 -70 -56 -128 -131 -128z" />
    <glyph glyph-name="Udieresisacute" unicode="&#x1d7;" horiz-adv-x="1449" 
d="M422 1443v-903c0 -185 109 -306 303 -306c193 0 302 121 302 306v903h302v-933c0 -318 -235 -535 -604 -535c-370 0 -605 217 -605 535v933h302zM606 1878l185 248h246l-215 -248h-216zM525 1545c-75 0 -131 58 -131 128c0 71 56 128 131 128s131 -57 131 -128
c0 -70 -56 -128 -131 -128zM925 1545c-75 0 -131 58 -131 128c0 71 56 128 131 128s131 -57 131 -128c0 -70 -56 -128 -131 -128z" />
    <glyph glyph-name="Udieresismacron" unicode="&#x1d5;" horiz-adv-x="1449" 
d="M422 1443v-903c0 -185 109 -306 303 -306c193 0 302 121 302 306v903h302v-933c0 -318 -235 -535 -604 -535c-370 0 -605 217 -605 535v933h302zM525 1801c75 0 131 -57 131 -128c0 -70 -56 -128 -131 -128s-131 58 -131 128c0 71 56 128 131 128zM379 2073h692v-148
h-692v148zM925 1801c75 0 131 -57 131 -128c0 -70 -56 -128 -131 -128s-131 58 -131 128c0 71 56 128 131 128z" />
    <glyph glyph-name="Udieresiscaron" unicode="&#x1d9;" horiz-adv-x="1449" 
d="M422 1443v-903c0 -185 109 -306 303 -306c193 0 302 121 302 306v903h302v-933c0 -318 -235 -535 -604 -535c-370 0 -605 217 -605 535v933h302zM616 1871l-256 269h221l137 -149h14l137 149h221l-256 -269h-218zM525 1801c75 0 131 -57 131 -128
c0 -70 -56 -128 -131 -128s-131 58 -131 128c0 71 56 128 131 128zM925 1801c75 0 131 -57 131 -128c0 -70 -56 -128 -131 -128s-131 58 -131 128c0 71 56 128 131 128z" />
    <glyph glyph-name="Udieresisbelow" unicode="&#x1e72;" horiz-adv-x="1449" 
d="M422 1443v-903c0 -185 109 -306 303 -306c193 0 302 121 302 306v903h302v-933c0 -318 -235 -535 -604 -535c-370 0 -605 217 -605 535v933h302zM521 -407c-76 0 -134 58 -134 130s58 130 134 130s134 -58 134 -130s-58 -130 -134 -130zM929 -407c-76 0 -134 58 -134 130
s58 130 134 130s134 -58 134 -130s-58 -130 -134 -130z" />
    <glyph glyph-name="Utildebelow" unicode="&#x1e74;" horiz-adv-x="1449" 
d="M422 1443v-903c0 -185 109 -306 303 -306c193 0 302 121 302 306v903h302v-933c0 -318 -235 -535 -604 -535c-370 0 -605 217 -605 535v933h302zM867 -400c-139 0 -191 136 -265 136c-46 0 -70 -49 -70 -122h-159c0 176 96 274 220 274c144 0 193 -135 265 -135
c44 0 67 45 69 124h159c0 -173 -98 -277 -219 -277z" />
    <glyph glyph-name="Uhookabove" unicode="&#x1ee6;" horiz-adv-x="1449" 
d="M422 1443v-903c0 -185 109 -306 303 -306c193 0 302 121 302 306v903h302v-933c0 -318 -235 -535 -604 -535c-370 0 -605 217 -605 535v933h302zM540 1780v132c35 16 90 25 143 25c144 0 237 -74 237 -195c0 -97 -78 -185 -188 -228l-86 105c57 20 97 63 97 107
c0 43 -39 73 -97 73c-33 0 -77 -7 -106 -19z" />
    <glyph glyph-name="Ubreve" unicode="&#x16c;" horiz-adv-x="1449" 
d="M422 1443v-903c0 -185 109 -306 303 -306c193 0 302 121 302 306v903h302v-933c0 -318 -235 -535 -604 -535c-370 0 -605 217 -605 535v933h302zM367 1859h181c8 -103 74 -171 177 -171s169 68 177 171h181c-9 -172 -136 -320 -358 -320s-349 148 -358 320z" />
    <glyph glyph-name="Uinvertedbreve" unicode="&#x216;" horiz-adv-x="1449" 
d="M422 1443v-903c0 -185 109 -306 303 -306c193 0 302 121 302 306v903h302v-933c0 -318 -235 -535 -604 -535c-370 0 -605 217 -605 535v933h302zM367 1539c9 172 136 320 358 320s349 -148 358 -320h-181c-8 104 -74 171 -177 171s-169 -67 -177 -171h-181z" />
    <glyph glyph-name="Utildeacute" unicode="&#x1e78;" horiz-adv-x="1449" 
d="M422 1443v-903c0 -185 109 -306 303 -306c193 0 302 121 302 306v903h302v-933c0 -318 -235 -535 -604 -535c-370 0 -605 217 -605 535v933h302zM861 1539c-137 0 -189 135 -261 135c-45 0 -70 -48 -69 -115h-156c0 168 92 265 215 265c136 0 188 -134 261 -134
c44 0 67 45 68 118h156c0 -167 -94 -269 -214 -269zM614 1888l185 238h246l-215 -238h-216z" />
    <glyph glyph-name="Udotbelow" unicode="&#x1ee4;" horiz-adv-x="1449" 
d="M422 1443v-903c0 -185 109 -306 303 -306c193 0 302 121 302 306v903h302v-933c0 -318 -235 -535 -604 -535c-370 0 -605 217 -605 535v933h302zM725 -456c-84 0 -149 67 -149 149s65 149 149 149s149 -67 149 -149s-65 -149 -149 -149z" />
    <glyph glyph-name="Utilde" unicode="&#x168;" horiz-adv-x="1449" 
d="M422 1443v-903c0 -185 109 -306 303 -306c193 0 302 121 302 306v903h302v-933c0 -318 -235 -535 -604 -535c-370 0 -605 217 -605 535v933h302zM867 1563c-139 0 -191 136 -265 136c-46 0 -70 -49 -70 -122h-159c0 176 96 274 220 274c144 0 193 -135 265 -135
c44 0 67 45 69 124h159c0 -173 -98 -277 -219 -277z" />
    <glyph glyph-name="Umacron" unicode="&#x16a;" horiz-adv-x="1449" 
d="M422 1443v-903c0 -185 109 -306 303 -306c193 0 302 121 302 306v903h302v-933c0 -318 -235 -535 -604 -535c-370 0 -605 217 -605 535v933h302zM1071 1768v-148h-692v148h692z" />
    <glyph glyph-name="Umacrondieresis" unicode="&#x1e7a;" horiz-adv-x="1449" 
d="M422 1443v-903c0 -185 109 -306 303 -306c193 0 302 121 302 306v903h302v-933c0 -318 -235 -535 -604 -535c-370 0 -605 217 -605 535v933h302zM1071 1599h-692v148h692v-148zM525 1883c-75 0 -131 57 -131 128s56 128 131 128s131 -57 131 -128s-56 -128 -131 -128z
M925 1883c-75 0 -131 57 -131 128s56 128 131 128s131 -57 131 -128s-56 -128 -131 -128z" />
    <glyph glyph-name="Uring" unicode="&#x16e;" horiz-adv-x="1449" 
d="M422 1443v-903c0 -185 109 -306 303 -306c193 0 302 121 302 306v903h302v-933c0 -318 -235 -535 -604 -535c-370 0 -605 217 -605 535v933h302zM725 1518c-112 0 -206 91 -206 202c0 112 94 202 206 202s206 -90 206 -202c0 -111 -94 -202 -206 -202zM725 1630
c50 0 92 40 92 90s-42 90 -92 90s-92 -40 -92 -90s42 -90 92 -90z" />
    <glyph glyph-name="Uogonek" unicode="&#x172;" horiz-adv-x="1449" 
d="M954 -462c-155 0 -267 84 -267 209c0 89 62 180 151 237v6c-32 -9 -77 -15 -113 -15c-365 0 -605 212 -605 535v933h302v-903c0 -191 115 -306 303 -306s302 115 302 306v903h302v-933c0 -183 -77 -327 -233 -450c-127 -97 -195 -175 -195 -252c0 -66 50 -101 122 -101
c29 0 60 4 76 9v-157c-28 -13 -80 -21 -145 -21z" />
    <glyph glyph-name="Uhorn" unicode="&#x1af;" horiz-adv-x="1673" 
d="M725 -25c-365 0 -605 212 -605 535v933h302v-904c0 -190 115 -305 303 -305s302 115 302 305v904h313c52 0 80 26 80 77v182h231v-239c0 -135 -86 -213 -227 -213h-95v-740c0 -323 -239 -535 -604 -535z" />
    <glyph glyph-name="Uhorngrave" unicode="&#x1eea;" horiz-adv-x="1673" 
d="M725 -25c-365 0 -605 212 -605 535v933h302v-904c0 -190 115 -305 303 -305s302 115 302 305v904h313c52 0 80 26 80 77v182h231v-239c0 -135 -86 -213 -227 -213h-95v-740c0 -323 -239 -535 -604 -535zM607 1563l-267 305h271l226 -305h-230z" />
    <glyph glyph-name="Uhornacute" unicode="&#x1ee8;" horiz-adv-x="1673" 
d="M725 -25c-365 0 -605 212 -605 535v933h302v-904c0 -190 115 -305 303 -305s302 115 302 305v904h313c52 0 80 26 80 77v182h231v-239c0 -135 -86 -213 -227 -213h-95v-740c0 -323 -239 -535 -604 -535zM840 1558h-230l226 305h271z" />
    <glyph glyph-name="Uhorndotbelow" unicode="&#x1ef0;" horiz-adv-x="1673" 
d="M725 -25c-365 0 -605 212 -605 535v933h302v-904c0 -190 115 -305 303 -305s302 115 302 305v904h313c52 0 80 26 80 77v182h231v-239c0 -135 -86 -213 -227 -213h-95v-740c0 -323 -239 -535 -604 -535zM725 -456c-84 0 -149 67 -149 149s65 149 149 149
s149 -67 149 -149s-65 -149 -149 -149z" />
    <glyph glyph-name="Uhornhookabove" unicode="&#x1eec;" horiz-adv-x="1673" 
d="M725 -25c-365 0 -605 212 -605 535v933h302v-904c0 -190 115 -305 303 -305s302 115 302 305v904h313c52 0 80 26 80 77v182h231v-239c0 -135 -86 -213 -227 -213h-95v-740c0 -323 -239 -535 -604 -535zM540 1780v132c35 16 90 25 143 25c144 0 237 -74 237 -195
c0 -97 -78 -185 -188 -228l-86 105c57 20 97 63 97 107c0 43 -39 73 -97 73c-33 0 -77 -7 -106 -19z" />
    <glyph glyph-name="Uhorntilde" unicode="&#x1eee;" horiz-adv-x="1673" 
d="M725 -25c-365 0 -605 212 -605 535v933h302v-904c0 -190 115 -305 303 -305s302 115 302 305v904h313c52 0 80 26 80 77v182h231v-239c0 -135 -86 -213 -227 -213h-95v-740c0 -323 -239 -535 -604 -535zM867 1563c-139 0 -191 136 -265 136c-46 0 -70 -49 -70 -122h-159
c0 176 96 274 220 274c144 0 193 -135 265 -135c44 0 67 45 69 124h159c0 -173 -98 -277 -219 -277z" />
    <glyph glyph-name="V" unicode="V" horiz-adv-x="1389" 
d="M877 0h-364l-485 1443h338l330 -1132h7l330 1132h329z" />
    <glyph glyph-name="Vtilde" unicode="&#x1e7c;" horiz-adv-x="1389" 
d="M877 0h-364l-485 1443h338l330 -1132h7l330 1132h329zM837 1563c-139 0 -191 136 -265 136c-46 0 -70 -49 -70 -122h-159c0 176 96 274 220 274c144 0 193 -135 265 -135c44 0 67 45 69 124h159c0 -173 -98 -277 -219 -277z" />
    <glyph glyph-name="Vdotbelow" unicode="&#x1e7e;" horiz-adv-x="1389" 
d="M877 0h-364l-485 1443h338l330 -1132h7l330 1132h329zM695 -456c-84 0 -149 67 -149 149s65 149 149 149s149 -67 149 -149s-65 -149 -149 -149z" />
    <glyph glyph-name="W" unicode="W" horiz-adv-x="1977" 
d="M984 986l-274 -986h-285l-382 1443h313l227 -1045h8l270 1045h255l270 -1045h8l228 1045h313l-383 -1443h-285l-274 986h-9z" />
    <glyph glyph-name="Wgrave" unicode="&#x1e80;" horiz-adv-x="1977" 
d="M984 986l-274 -986h-285l-382 1443h313l227 -1045h8l270 1045h255l270 -1045h8l228 1045h313l-383 -1443h-285l-274 986h-9zM871 1563l-267 305h271l226 -305h-230z" />
    <glyph glyph-name="Wacute" unicode="&#x1e82;" horiz-adv-x="1977" 
d="M984 986l-274 -986h-285l-382 1443h313l227 -1045h8l270 1045h255l270 -1045h8l228 1045h313l-383 -1443h-285l-274 986h-9zM1104 1558h-230l226 305h271z" />
    <glyph glyph-name="Wdotaccent" unicode="&#x1e86;" horiz-adv-x="1977" 
d="M984 986l-274 -986h-285l-382 1443h313l227 -1045h8l270 1045h255l270 -1045h8l228 1045h313l-383 -1443h-285l-274 986h-9zM989 1561c-84 0 -149 67 -149 149s65 149 149 149s149 -67 149 -149s-65 -149 -149 -149z" />
    <glyph glyph-name="Wdotbelow" unicode="&#x1e88;" horiz-adv-x="1977" 
d="M984 986l-274 -986h-285l-382 1443h313l227 -1045h8l270 1045h255l270 -1045h8l228 1045h313l-383 -1443h-285l-274 986h-9zM989 -456c-84 0 -149 67 -149 149s65 149 149 149s149 -67 149 -149s-65 -149 -149 -149z" />
    <glyph glyph-name="Wdieresis" unicode="&#x1e84;" horiz-adv-x="1977" 
d="M984 986l-274 -986h-285l-382 1443h313l227 -1045h8l270 1045h255l270 -1045h8l228 1045h313l-383 -1443h-285l-274 986h-9zM785 1571c-76 0 -134 58 -134 130s58 130 134 130s134 -58 134 -130s-58 -130 -134 -130zM1193 1571c-76 0 -134 58 -134 130s58 130 134 130
s134 -58 134 -130s-58 -130 -134 -130z" />
    <glyph glyph-name="Wcircumflex" unicode="&#x174;" horiz-adv-x="1977" 
d="M984 986l-274 -986h-285l-382 1443h313l227 -1045h8l270 1045h255l270 -1045h8l228 1045h313l-383 -1443h-285l-274 986h-9zM877 1855h224l269 -317h-221l-156 192h-8l-156 -192h-221z" />
    <glyph glyph-name="X" unicode="X" horiz-adv-x="1404" 
d="M43 0l458 723v8l-455 712h355l306 -520h8l309 520h337l-472 -718v-7l466 -718h-344l-316 505h-8l-318 -505h-326z" />
    <glyph glyph-name="Xdotaccent" unicode="&#x1e8a;" horiz-adv-x="1404" 
d="M43 0l458 723v8l-455 712h355l306 -520h8l309 520h337l-472 -718v-7l466 -718h-344l-316 505h-8l-318 -505h-326zM702 1561c-84 0 -149 67 -149 149s65 149 149 149s149 -67 149 -149s-65 -149 -149 -149z" />
    <glyph glyph-name="Xdieresis" unicode="&#x1e8c;" horiz-adv-x="1404" 
d="M43 0l458 723v8l-455 712h355l306 -520h8l309 520h337l-472 -718v-7l466 -718h-344l-316 505h-8l-318 -505h-326zM498 1571c-76 0 -134 58 -134 130s58 130 134 130s134 -58 134 -130s-58 -130 -134 -130zM906 1571c-76 0 -134 58 -134 130s58 130 134 130
s134 -58 134 -130s-58 -130 -134 -130z" />
    <glyph glyph-name="Y" unicode="Y" horiz-adv-x="1362" 
d="M832 0h-302v539l-502 904h329l323 -616h7l324 616h324l-503 -904v-539z" />
    <glyph glyph-name="Ygrave" unicode="&#x1ef2;" horiz-adv-x="1362" 
d="M832 0h-302v539l-502 904h329l323 -616h7l324 616h324l-503 -904v-539zM563 1563l-267 305h271l226 -305h-230z" />
    <glyph glyph-name="Yacute" unicode="&#xdd;" horiz-adv-x="1362" 
d="M832 0h-302v539l-502 904h329l323 -616h7l324 616h324l-503 -904v-539zM796 1558h-230l226 305h271z" />
    <glyph glyph-name="Ydotaccent" unicode="&#x1e8e;" horiz-adv-x="1362" 
d="M832 0h-302v539l-502 904h329l323 -616h7l324 616h324l-503 -904v-539zM681 1561c-84 0 -149 67 -149 149s65 149 149 149s149 -67 149 -149s-65 -149 -149 -149z" />
    <glyph glyph-name="Ydotbelow" unicode="&#x1ef4;" horiz-adv-x="1362" 
d="M832 0h-302v539l-502 904h329l323 -616h7l324 616h324l-503 -904v-539zM681 -456c-84 0 -149 67 -149 149s65 149 149 149s149 -67 149 -149s-65 -149 -149 -149z" />
    <glyph glyph-name="Ydieresis" unicode="&#x178;" horiz-adv-x="1362" 
d="M832 0h-302v539l-502 904h329l323 -616h7l324 616h324l-503 -904v-539zM477 1571c-76 0 -134 58 -134 130s58 130 134 130s134 -58 134 -130s-58 -130 -134 -130zM885 1571c-76 0 -134 58 -134 130s58 130 134 130s134 -58 134 -130s-58 -130 -134 -130z" />
    <glyph glyph-name="Ytilde" unicode="&#x1ef8;" horiz-adv-x="1362" 
d="M832 0h-302v539l-502 904h329l323 -616h7l324 616h324l-503 -904v-539zM823 1563c-139 0 -191 136 -265 136c-46 0 -70 -49 -70 -122h-159c0 176 96 274 220 274c144 0 193 -135 265 -135c44 0 67 45 69 124h159c0 -173 -98 -277 -219 -277z" />
    <glyph glyph-name="Ycircumflex" unicode="&#x176;" horiz-adv-x="1362" 
d="M832 0h-302v539l-502 904h329l323 -616h7l324 616h324l-503 -904v-539zM569 1855h224l269 -317h-221l-156 192h-8l-156 -192h-221z" />
    <glyph glyph-name="Ymacron" unicode="&#x232;" horiz-adv-x="1362" 
d="M832 0h-302v539l-502 904h329l323 -616h7l324 616h324l-503 -904v-539zM1027 1768v-148h-692v148h692z" />
    <glyph glyph-name="Yhookabove" unicode="&#x1ef6;" horiz-adv-x="1362" 
d="M832 0h-302v539l-502 904h329l323 -616h7l324 616h324l-503 -904v-539zM496 1780v132c35 16 90 25 143 25c144 0 237 -74 237 -195c0 -97 -78 -185 -188 -228l-86 105c57 20 97 63 97 107c0 43 -39 73 -97 73c-33 0 -77 -7 -106 -19z" />
    <glyph glyph-name="Z" unicode="Z" horiz-adv-x="1292" 
d="M89 0v197l733 989v8h-716v249h1077v-196l-730 -990v-7h750v-250h-1114z" />
    <glyph glyph-name="Zacute" unicode="&#x179;" horiz-adv-x="1292" 
d="M89 0v197l733 989v8h-716v249h1077v-196l-730 -990v-7h750v-250h-1114zM761 1558h-230l226 305h271z" />
    <glyph glyph-name="Zcaron" unicode="&#x17d;" horiz-adv-x="1292" 
d="M89 0v197l733 989v8h-716v249h1077v-196l-730 -990v-7h750v-250h-1114zM534 1543l-269 317h221l156 -192h8l156 192h221l-269 -317h-224z" />
    <glyph glyph-name="Zcircumflex" unicode="&#x1e90;" horiz-adv-x="1292" 
d="M89 0v197l733 989v8h-716v249h1077v-196l-730 -990v-7h750v-250h-1114zM534 1855h224l269 -317h-221l-156 192h-8l-156 -192h-221z" />
    <glyph glyph-name="Zlinebelow" unicode="&#x1e94;" horiz-adv-x="1292" 
d="M89 0v197l733 989v8h-716v249h1077v-196l-730 -990v-7h750v-250h-1114zM992 -229v-148h-692v148h692z" />
    <glyph glyph-name="Zdotbelow" unicode="&#x1e92;" horiz-adv-x="1292" 
d="M89 0v197l733 989v8h-716v249h1077v-196l-730 -990v-7h750v-250h-1114zM646 -456c-84 0 -149 67 -149 149s65 149 149 149s149 -67 149 -149s-65 -149 -149 -149z" />
    <glyph glyph-name="Zdotaccent" unicode="&#x17b;" horiz-adv-x="1292" 
d="M89 0v197l733 989v8h-716v249h1077v-196l-730 -990v-7h750v-250h-1114zM646 1561c-84 0 -149 67 -149 149s65 149 149 149s149 -67 149 -149s-65 -149 -149 -149z" />
    <glyph glyph-name="AE" unicode="&#xc6;" horiz-adv-x="2039" 
d="M830 1211l-255 -612h391v612h-136zM966 0v373h-479l-158 -373h-301l613 1443h1270v-249h-669v-353h632v-232h-632v-360h669v-249h-945z" />
    <glyph glyph-name="AEmacron" unicode="&#x1e2;" horiz-adv-x="2039" 
d="M830 1211l-255 -612h391v612h-136zM966 0v373h-479l-158 -373h-301l613 1443h1270v-249h-669v-353h632v-232h-632v-360h669v-249h-945zM1674 1768v-148h-692v148h692z" />
    <glyph glyph-name="AEacute" unicode="&#x1fc;" horiz-adv-x="2039" 
d="M830 1211l-255 -612h391v612h-136zM966 0v373h-479l-158 -373h-301l613 1443h1270v-249h-669v-353h632v-232h-632v-360h669v-249h-945zM1343 1558h-230l226 305h271z" />
    <glyph glyph-name="OE" unicode="&#x152;" horiz-adv-x="2216" 
d="M779 1219c-238 0 -391 -195 -391 -498c0 -302 153 -496 391 -496s391 194 391 496c0 303 -154 498 -391 498zM1203 0v236v0c-72 -161 -260 -268 -472 -268c-385 0 -651 302 -651 753c0 453 267 754 655 754c211 0 384 -99 468 -271v0v239h916v-249h-644v-348h606v-232
h-606v-364h644v-250h-916z" />
    <glyph glyph-name="Eth" unicode="&#xd0;" horiz-adv-x="1458" 
d="M442 250h213c270 0 416 164 416 476c0 302 -150 468 -416 468h-213v-351h255v-221h-255v-372zM140 1443h551c433 0 688 -258 688 -716s-255 -727 -688 -727h-551v622h-98v221h98v600z" />
    <glyph glyph-name="Thorn" unicode="&#xde;" horiz-adv-x="1330" 
d="M151 1443h304v-235h307c272 0 475 -171 475 -457c0 -285 -210 -457 -490 -457h-294v-294h-302v1443zM453 968v-437h226c153 0 251 74 251 219s-98 218 -250 218h-227z" />
    <glyph glyph-name="Alphagreek" unicode="&#x391;" horiz-adv-x="1413" 
d="M1065 0l-110 350h-507l-110 -350h-310l501 1443h355l502 -1443h-321zM698 1167l-185 -591h377l-185 591h-7z" />
    <glyph glyph-name="Betagreek" unicode="&#x392;" horiz-adv-x="1310" 
d="M759 0h-639v1443h628c271 0 441 -139 441 -360c0 -158 -118 -290 -271 -313v-8c196 -15 340 -158 340 -349c0 -254 -191 -413 -499 -413zM422 1218v-375h217c161 0 253 71 253 193c0 116 -81 182 -222 182h-248zM422 225h260c174 0 268 74 268 212
c0 135 -97 207 -275 207h-253v-419z" />
    <glyph glyph-name="Gammagreek" unicode="&#x393;" horiz-adv-x="1103" 
d="M422 0h-302v1443h925v-249h-623v-1194z" />
    <glyph glyph-name="Deltagreek" unicode="&#x394;" horiz-adv-x="1394" 
d="M1342 0h-1289v172l467 1271h355l467 -1271v-172zM370 257v-8h633v8l-311 920h-7z" />
    <glyph glyph-name="Epsilongreek" unicode="&#x395;" horiz-adv-x="1174" 
d="M1076 250v-250h-956v1443h956v-249h-654v-348h617v-232h-617v-364h654z" />
    <glyph glyph-name="Zetagreek" unicode="&#x396;" horiz-adv-x="1292" 
d="M89 0v197l733 989v8h-716v249h1077v-196l-730 -990v-7h750v-250h-1114z" />
    <glyph glyph-name="Etagreek" unicode="&#x397;" horiz-adv-x="1494" 
d="M1374 0h-302v608h-650v-608h-302v1443h302v-586h650v586h302v-1443z" />
    <glyph glyph-name="Thetagreek" unicode="&#x398;" horiz-adv-x="1586" 
d="M1048 603h-511v228h511v-228zM793 1468c457 0 718 -292 718 -746c0 -456 -268 -747 -718 -747c-449 0 -718 291 -718 747c0 454 262 746 718 746zM793 1216c-260 0 -414 -187 -414 -494c0 -308 154 -494 414 -494c261 0 415 186 415 494c0 307 -154 494 -415 494z" />
    <glyph glyph-name="Iotagreek" unicode="&#x399;" horiz-adv-x="542" 
d="M422 0h-302v1443h302v-1443z" />
    <glyph glyph-name="Iotagreek.1" horiz-adv-x="994" 
d="M919 1206h-271v-968h271v-238h-271h-302h-271v238h271v968h-271v237h271h302h271v-237z" />
    <glyph glyph-name="Kappagreek" unicode="&#x39a;" horiz-adv-x="1353" 
d="M422 0h-302v1443h302v-658h9l542 658h336l-534 -640l571 -803h-361l-428 603l-135 -162v-441z" />
    <glyph glyph-name="Lambdagreek" unicode="&#x39b;" horiz-adv-x="1383" 
d="M1035 0l-345 1152h-7l-345 -1152h-310l486 1443h355l486 -1443h-320z" />
    <glyph glyph-name="Mugreek" unicode="&#x39c;" horiz-adv-x="1768" 
d="M1648 0h-269v974h-8l-392 -960h-190l-392 960h-8v-974h-269v1443h350l410 -1023h8l410 1023h350v-1443z" />
    <glyph glyph-name="Nugreek" unicode="&#x39d;" horiz-adv-x="1463" 
d="M409 0h-289v1443h252l674 -940h8v940h289v-1443h-250l-675 945h-9v-945z" />
    <glyph glyph-name="Xigreek" unicode="&#x39e;" horiz-adv-x="1283" 
d="M98 1443h1087v-255h-1087v255zM1098 609h-913v238h913v-238zM98 255h1087v-255h-1087v255z" />
    <glyph glyph-name="Omicrongreek" unicode="&#x39f;" horiz-adv-x="1541" 
d="M771 1468c427 0 696 -287 696 -747c0 -459 -269 -746 -696 -746c-428 0 -696 287 -696 746c0 460 268 747 696 747zM771 1216c-236 0 -388 -192 -388 -495c0 -302 151 -493 388 -493c236 0 387 191 387 493c0 303 -151 495 -387 495z" />
    <glyph glyph-name="Pigreek" unicode="&#x3a0;" horiz-adv-x="1474" 
d="M1354 0h-302v1194h-630v-1194h-302v1443h1234v-1443z" />
    <glyph glyph-name="Rhogreek" unicode="&#x3a1;" horiz-adv-x="1265" 
d="M120 1443h587c296 0 500 -197 500 -494c0 -296 -211 -494 -515 -494h-270v-455h-302v1443zM422 1204v-513h204c173 0 274 92 274 257c0 164 -100 256 -273 256h-205z" />
    <glyph glyph-name="Sigmagreek" unicode="&#x3a3;" horiz-adv-x="1267" 
d="M459 257v-7h719v-250h-1089v184l382 540l-361 506v213h1042v-249h-665v-8l312 -448v-7z" />
    <glyph glyph-name="Taugreek" unicode="&#x3a4;" horiz-adv-x="1232" 
d="M767 0h-302v1194h-417v249h1137v-249h-418v-1194z" />
    <glyph glyph-name="Upsilongreek" unicode="&#x3a5;" horiz-adv-x="1362" 
d="M832 0h-302v539l-502 904h329l323 -616h7l324 616h324l-503 -904v-539z" />
    <glyph glyph-name="Phigreek" unicode="&#x3a6;" horiz-adv-x="1787" 
d="M1429 714c0 253 -147 411 -397 430v-860c250 19 397 177 397 430zM358 714c0 -253 147 -411 397 -430v860c-250 -19 -397 -177 -397 -430zM1032 -106h-277v151c-413 20 -693 285 -693 669c0 385 280 650 693 669v152h277v-152c414 -19 693 -284 693 -669
c0 -384 -279 -649 -693 -669v-151z" />
    <glyph glyph-name="Chigreek" unicode="&#x3a7;" horiz-adv-x="1404" 
d="M43 0l458 723v8l-455 712h355l306 -520h8l309 520h337l-472 -718v-7l466 -718h-344l-316 505h-8l-318 -505h-326z" />
    <glyph glyph-name="Psigreek" unicode="&#x3a8;" horiz-adv-x="1684" 
d="M986 0h-287v309c-371 7 -599 237 -599 594v540h287v-542c0 -212 105 -332 312 -346v888h287v-888c206 14 311 134 311 346v542h287v-540c0 -357 -228 -588 -598 -594v-309z" />
    <glyph glyph-name="Omegagreek" unicode="&#x3a9;" horiz-adv-x="1566" 
d="M1178 788c0 267 -156 428 -395 428s-395 -161 -395 -428c0 -227 94 -377 274 -489v-299h-577v239h292v8c-178 108 -292 312 -292 563c0 391 283 658 698 658c416 0 699 -267 699 -658c0 -251 -115 -455 -292 -563v-8h292v-239h-577v299c180 112 273 262 273 489z" />
    <glyph glyph-name="Alphatonosgreek" unicode="&#x386;" horiz-adv-x="1501" 
d="M1153 0l-110 350h-507l-110 -350h-310l501 1443h355l502 -1443h-321zM786 1167l-185 -591h377l-185 591h-7zM78 1125l79 318h304l-152 -318h-231z" />
    <glyph glyph-name="Epsilontonosgreek" unicode="&#x388;" horiz-adv-x="1602" 
d="M30 1125l79 318h304l-152 -318h-231zM1504 250v-250h-956v1443h956v-249h-654v-348h617v-232h-617v-364h654z" />
    <glyph glyph-name="Etatonosgreek" unicode="&#x389;" horiz-adv-x="1922" 
d="M30 1101l79 318h304l-152 -318h-231zM1802 0h-302v608h-650v-608h-302v1443h302v-586h650v586h302v-1443z" />
    <glyph glyph-name="Iotatonosgreek" unicode="&#x38a;" horiz-adv-x="970" 
d="M30 1101l79 318h304l-152 -318h-231zM850 0h-302v1443h302v-1443z" />
    <glyph glyph-name="Iotadieresisgreek" unicode="&#x3aa;" horiz-adv-x="542" 
d="M422 0h-302v1443h302v-1443zM67 1571c-76 0 -134 58 -134 130s58 130 134 130s134 -58 134 -130s-58 -130 -134 -130zM475 1571c-76 0 -134 58 -134 130s58 130 134 130s134 -58 134 -130s-58 -130 -134 -130z" />
    <glyph glyph-name="Iotatonosgreek.1" horiz-adv-x="1453" 
d="M40 1101l79 318h304l-152 -318h-231zM1378 1206h-271v-968h271v-238h-271h-302h-271v238h271v968h-271v237h271h302h271v-237z" />
    <glyph glyph-name="Iotadieresisgreek.1" horiz-adv-x="994" 
d="M701 1571c-76 0 -134 58 -134 130s58 130 134 130s134 -58 134 -130s-58 -130 -134 -130zM293 1571c-76 0 -134 58 -134 130s58 130 134 130s134 -58 134 -130s-58 -130 -134 -130zM919 1206h-271v-968h271v-238h-271h-302h-271v238h271v968h-271v237h271h302h271v-237z
" />
    <glyph glyph-name="Omicrontonosgreek" unicode="&#x38c;" horiz-adv-x="1794" 
d="M18 1101l79 318h304l-152 -318h-231zM1024 1468c427 0 696 -287 696 -747c0 -459 -269 -746 -696 -746c-428 0 -696 287 -696 746c0 460 268 747 696 747zM1024 1216c-236 0 -388 -192 -388 -495c0 -302 151 -493 388 -493c236 0 387 191 387 493
c0 303 -151 495 -387 495z" />
    <glyph glyph-name="Upsilontonosgreek" unicode="&#x38e;" horiz-adv-x="1810" 
d="M20 1101l79 318h304l-152 -318h-231zM1280 0h-302v539l-502 904h329l323 -616h7l324 616h324l-503 -904v-539z" />
    <glyph glyph-name="Upsilondieresisgreek" unicode="&#x3ab;" horiz-adv-x="1362" 
d="M832 0h-302v539l-502 904h329l323 -616h7l324 616h324l-503 -904v-539zM477 1571c-76 0 -134 58 -134 130s58 130 134 130s134 -58 134 -130s-58 -130 -134 -130zM885 1571c-76 0 -134 58 -134 130s58 130 134 130s134 -58 134 -130s-58 -130 -134 -130z" />
    <glyph glyph-name="Omegatonosgreek" unicode="&#x38f;" horiz-adv-x="1828" 
d="M33 1101l79 318h304l-152 -318h-231zM1440 788c0 267 -156 428 -395 428s-395 -161 -395 -428c0 -227 94 -377 274 -489v-299h-577v239h292v8c-178 108 -292 312 -292 563c0 391 283 658 698 658c416 0 699 -267 699 -658c0 -251 -115 -455 -292 -563v-8h292v-239h-577
v299c180 112 273 262 273 489z" />
    <glyph glyph-name="Acyrillic" unicode="&#x410;" horiz-adv-x="1433" 
d="M1075 0l-110 350h-507l-110 -350h-310l501 1443h355l502 -1443h-321zM708 1167l-185 -591h377l-185 591h-7z" />
    <glyph glyph-name="uni04D0" unicode="&#x4d0;" horiz-adv-x="1433" 
d="M1075 0l-110 350h-507l-110 -350h-310l501 1443h355l502 -1443h-321zM708 1167l-185 -591h377l-185 591h-7zM358 1863h176c2 -101 71 -168 171 -168s169 67 171 168h176c0 -188 -142 -310 -347 -310s-347 122 -347 310z" />
    <glyph glyph-name="uni04D2" unicode="&#x4d2;" horiz-adv-x="1433" 
d="M1075 0l-110 350h-507l-110 -350h-310l501 1443h355l502 -1443h-321zM708 1167l-185 -591h377l-185 591h-7zM513 1571c-76 0 -134 58 -134 130s58 130 134 130s134 -58 134 -130s-58 -130 -134 -130zM921 1571c-76 0 -134 58 -134 130s58 130 134 130s134 -58 134 -130
s-58 -130 -134 -130z" />
    <glyph glyph-name="uniF50E" horiz-adv-x="1433" 
d="M1075 0l-110 350h-507l-110 -350h-310l501 1443h355l502 -1443h-321zM708 1167l-185 -591h377l-185 591h-7zM1063 1768v-148h-692v148h692z" />
    <glyph glyph-name="uniF460" horiz-adv-x="1433" 
d="M1075 0l-110 350h-507l-110 -350h-310l501 1443h355l502 -1443h-321zM708 1167l-185 -591h377l-185 591h-7zM832 1558h-230l226 305h271z" />
    <glyph glyph-name="Becyrillic" unicode="&#x411;" horiz-adv-x="1307" 
d="M1222 455c0 -273 -204 -455 -500 -455h-592v1443h959v-249h-657v-293h280c301 0 510 -179 510 -446zM432 241h215c168 0 266 75 266 214c0 140 -98 216 -267 216h-214v-430z" />
    <glyph glyph-name="Vecyrillic" unicode="&#x412;" horiz-adv-x="1330" 
d="M769 0h-639v1443h628c271 0 441 -139 441 -360c0 -158 -118 -290 -271 -313v-8c196 -15 340 -158 340 -349c0 -254 -191 -413 -499 -413zM432 1218v-375h217c161 0 253 71 253 193c0 116 -81 182 -222 182h-248zM432 225h260c174 0 268 74 268 212
c0 135 -97 207 -275 207h-253v-419z" />
    <glyph glyph-name="Gecyrillic" unicode="&#x413;" horiz-adv-x="1123" 
d="M433 0h-303v1443h930v-250h-627v-1193z" />
    <glyph glyph-name="Gjecyrillic" unicode="&#x403;" horiz-adv-x="1123" 
d="M433 0h-303v1443h930v-250h-627v-1193zM733 1543h-230l226 305h271z" />
    <glyph glyph-name="Geupturncyrillic" unicode="&#x490;" horiz-adv-x="1123" 
d="M433 1193v-1193h-303v1443h647v285h283v-535h-627z" />
    <glyph glyph-name="uni04F6" unicode="&#x4f6;" horiz-adv-x="1123" 
d="M1060 1193h-627v-944h202v-534h-274v285h-209h-22v1443h930v-250z" />
    <glyph glyph-name="uni0492" unicode="&#x492;" horiz-adv-x="1144" 
d="M1082 1193h-627v-385h448v-210h-448v-598h-303v598h-98v210h98v635h930v-250z" />
    <glyph glyph-name="uniF53C" horiz-adv-x="1138" 
d="M432 0h-302v1443h945v-249h-643v-387h587v-239h-587v-568z" />
    <glyph glyph-name="uni04FA" unicode="&#x4fa;" horiz-adv-x="1144" 
d="M1082 1193h-627v-385h518v-210h-518v-598h-1v-23c0 -228 -142 -342 -402 -342c-20 0 -66 2 -78 3v219c6 -1 29 -1 37 -1c103 0 141 37 141 128v16v354v244h-93v210h93v635h930v-250z" />
    <glyph glyph-name="Decyrillic" unicode="&#x414;" horiz-adv-x="1561" 
d="M546 605c-11 -161 -32 -272 -96 -347v-8h589v945h-455zM299 0v-285h-274v535h101c101 69 130 182 142 378l50 815h1023v-1193h180v-535h-273v285h-949z" />
    <glyph glyph-name="uni0414.BUL" horiz-adv-x="1586" 
d="M771 1106l-263 -856h549l-268 856h-18zM1393 250h153v-535h-273v285h-959v-285h-274v535h149l416 1193h365z" />
    <glyph glyph-name="Iecyrillic" unicode="&#x415;" horiz-adv-x="1195" 
d="M1086 250v-250h-956v1443h956v-249h-654v-348h617v-232h-617v-364h654z" />
    <glyph glyph-name="Iocyrillic" unicode="&#x401;" horiz-adv-x="1195" 
d="M1086 250v-250h-956v1443h956v-249h-654v-348h617v-232h-617v-364h654zM404 1571c-76 0 -134 58 -134 130s58 130 134 130s134 -58 134 -130s-58 -130 -134 -130zM812 1571c-76 0 -134 58 -134 130s58 130 134 130s134 -58 134 -130s-58 -130 -134 -130z" />
    <glyph glyph-name="uni04D6" unicode="&#x4d6;" horiz-adv-x="1195" 
d="M1086 250v-250h-956v1443h956v-249h-654v-348h617v-232h-617v-364h654zM259 1863h176c2 -101 71 -168 171 -168s169 67 171 168h176c0 -188 -142 -310 -347 -310s-347 122 -347 310z" />
    <glyph glyph-name="uniF510" horiz-adv-x="1195" 
d="M1086 250v-250h-956v1443h956v-249h-654v-348h617v-232h-617v-364h654zM954 1768v-148h-692v148h692z" />
    <glyph glyph-name="uniF512" horiz-adv-x="1195" 
d="M1086 250v-250h-956v1443h956v-249h-654v-348h617v-232h-617v-364h654zM423 1838c75 0 131 -57 131 -128c0 -70 -56 -128 -131 -128s-131 58 -131 128c0 71 56 128 131 128zM277 2110h692v-148h-692v148zM823 1838c75 0 131 -57 131 -128c0 -70 -56 -128 -131 -128
s-131 58 -131 128c0 71 56 128 131 128z" />
    <glyph glyph-name="uni0400" unicode="&#x400;" horiz-adv-x="1195" 
d="M1086 250v-250h-956v1443h956v-249h-654v-348h617v-232h-617v-364h654zM490 1563l-267 305h271l226 -305h-230z" />
    <glyph glyph-name="uniF461" horiz-adv-x="1195" 
d="M1086 250v-250h-956v1443h956v-249h-654v-348h617v-232h-617v-364h654zM723 1558h-230l226 305h271z" />
    <glyph glyph-name="uniF469" horiz-adv-x="1197" 
d="M1089 250v-250h-956v1443h956v-249h-654v-348h617v-232h-617v-364h654zM266 1550c-77 0 -135 59 -135 131s58 131 135 131s135 -59 135 -131s-58 -131 -135 -131zM948 1550c-77 0 -135 59 -135 131s58 131 135 131s135 -59 135 -131s-58 -131 -135 -131zM471 1554l26 325
h292l-126 -325h-192z" />
    <glyph glyph-name="uniF514" horiz-adv-x="1195" 
d="M1086 250v-250h-956v1443h956v-249h-654v-348h617v-232h-617v-364h654zM230 2170h217c2 -79 69 -133 172 -133s169 54 171 133h217c0 -175 -151 -290 -388 -290c-238 0 -389 115 -389 290zM230 1554c0 174 151 290 389 290c237 0 388 -116 388 -290h-217
c-2 79 -68 132 -171 132s-170 -53 -172 -132h-217z" />
    <glyph glyph-name="Zhecyrillic" unicode="&#x416;" horiz-adv-x="2064" 
d="M1451 759l596 -759h-370l-492 634h-8v-634h-294v634h-8l-495 -634h-362l590 754l-556 689h342l481 -611h8v611h294v-611h8l482 611h336z" />
    <glyph glyph-name="uni04C1" unicode="&#x4c1;" horiz-adv-x="2064" 
d="M1209 1859h181c-9 -172 -136 -320 -358 -320s-349 148 -358 320h181c8 -103 74 -171 177 -171s169 68 177 171zM1451 759l596 -759h-370l-492 634h-8v-634h-294v634h-8l-495 -634h-362l590 754l-556 689h342l481 -611h8v611h294v-611h8l482 611h336z" />
    <glyph glyph-name="uni04DC" unicode="&#x4dc;" horiz-adv-x="2064" 
d="M1236 1571c-76 0 -134 58 -134 130s58 130 134 130s134 -58 134 -130s-58 -130 -134 -130zM828 1571c-76 0 -134 58 -134 130s58 130 134 130s134 -58 134 -130s-58 -130 -134 -130zM1451 759l596 -759h-370l-492 634h-8v-634h-294v634h-8l-495 -634h-362l590 754
l-556 689h342l481 -611h8v611h294v-611h8l482 611h336z" />
    <glyph glyph-name="uni0496" unicode="&#x496;" horiz-adv-x="2070" 
d="M1851 249h207v-534h-274v285h-99h-8l-492 634h-8v-634h-294v634h-8l-495 -634h-362l590 754l-556 689h342l481 -611h8v611h294v-611h8l482 611h336l-552 -684z" />
    <glyph glyph-name="uni0416.BUL" horiz-adv-x="2113" 
d="M1556 813l538 -813h-353l-391 604l-144 -172v-432h-300v432l-145 172l-390 -604h-352l536 811l-492 632h330l494 -648h19v648h300v-648h19l494 648h327z" />
    <glyph glyph-name="Zecyrillic" unicode="&#x417;" horiz-adv-x="1286" 
d="M445 620v235h191c144 0 243 80 243 199c0 118 -91 191 -239 191c-150 0 -248 -80 -256 -207h-279c10 272 219 442 543 442c309 0 519 -159 519 -391c0 -163 -110 -296 -272 -330v-8c195 -22 318 -159 318 -352c0 -253 -240 -436 -572 -436c-330 0 -555 177 -568 447h289
c9 -124 118 -203 282 -203c155 0 259 86 259 212s-99 201 -264 201h-194z" />
    <glyph glyph-name="uni04DE" unicode="&#x4de;" horiz-adv-x="1286" 
d="M445 620v235h191c144 0 243 80 243 199c0 118 -91 191 -239 191c-150 0 -248 -80 -256 -207h-279c10 272 219 442 543 442c309 0 519 -159 519 -391c0 -163 -110 -296 -272 -330v-8c195 -22 318 -159 318 -352c0 -253 -240 -436 -572 -436c-330 0 -555 177 -568 447h289
c9 -124 118 -203 282 -203c155 0 259 86 259 212s-99 201 -264 201h-194zM440 1571c-76 0 -134 58 -134 130s58 130 134 130s134 -58 134 -130s-58 -130 -134 -130zM848 1571c-76 0 -134 58 -134 130s58 130 134 130s134 -58 134 -130s-58 -130 -134 -130z" />
    <glyph glyph-name="uni0498" unicode="&#x498;" horiz-adv-x="1286" 
d="M895 759v-8c195 -22 318 -159 318 -352c0 -212 -169 -376 -420 -422v-262h-273v256c-263 39 -436 203 -447 439h289c9 -124 118 -203 282 -203c155 0 259 86 259 212s-99 201 -264 201h-194v235h191c144 0 243 80 243 199c0 118 -91 191 -239 191
c-150 0 -248 -80 -256 -207h-279c10 272 219 442 543 442c309 0 519 -159 519 -391c0 -163 -110 -296 -272 -330z" />
    <glyph glyph-name="uniF50A" horiz-adv-x="1286" 
d="M895 759v-8c195 -22 318 -159 318 -352c0 -227 -193 -398 -473 -430l-36 -79c113 -1 188 -62 188 -164c0 -121 -96 -185 -248 -186c-57 -1 -116 5 -142 14v122c24 -7 73 -12 112 -12c75 0 111 18 111 54c0 41 -35 55 -123 55h-63v98l43 94c-298 20 -497 192 -509 445h289
c9 -124 118 -203 282 -203c155 0 259 86 259 212s-99 201 -264 201h-194v235h191c144 0 243 80 243 199c0 118 -91 191 -239 191c-150 0 -248 -80 -256 -207h-279c10 272 219 442 543 442c309 0 519 -159 519 -391c0 -163 -110 -296 -272 -330z" />
    <glyph glyph-name="uniF516" horiz-adv-x="1286" 
d="M445 620v235h191c144 0 243 80 243 199c0 118 -91 191 -239 191c-150 0 -248 -80 -256 -207h-279c10 272 219 442 543 442c309 0 519 -159 519 -391c0 -163 -110 -296 -272 -330v-8c195 -22 318 -159 318 -352c0 -253 -240 -436 -572 -436c-330 0 -555 177 -568 447h289
c9 -124 118 -203 282 -203c155 0 259 86 259 212s-99 201 -264 201h-194zM528 1543l-269 317h221l156 -192h8l156 192h221l-269 -317h-224z" />
    <glyph glyph-name="Iicyrillic" unicode="&#x418;" horiz-adv-x="1519" 
d="M1088 0v976h-12l-655 -976h-291v1443h301v-977h12l655 977h291v-1443h-301z" />
    <glyph glyph-name="Iishortcyrillic" unicode="&#x419;" horiz-adv-x="1519" 
d="M1088 0v976h-12l-655 -976h-291v1443h301v-977h12l655 977h291v-1443h-301zM412 1838h176c2 -101 71 -168 171 -168s169 67 171 168h176c0 -188 -142 -310 -347 -310s-347 122 -347 310z" />
    <glyph glyph-name="uni040D" unicode="&#x40d;" horiz-adv-x="1519" 
d="M1088 0v976h-12l-655 -976h-291v1443h301v-977h12l655 977h291v-1443h-301zM665 1558l-267 305h271l226 -305h-230z" />
    <glyph glyph-name="uni04E2" unicode="&#x4e2;" horiz-adv-x="1519" 
d="M1088 0v976h-12l-655 -976h-291v1443h301v-977h12l655 977h291v-1443h-301zM1103 1768v-148h-692v148h692z" />
    <glyph glyph-name="uni04E4" unicode="&#x4e4;" horiz-adv-x="1519" 
d="M1088 0v976h-12l-655 -976h-291v1443h301v-977h12l655 977h291v-1443h-301zM547 1571c-76 0 -134 58 -134 130s58 130 134 130s134 -58 134 -130s-58 -130 -134 -130zM955 1571c-76 0 -134 58 -134 130s58 130 134 130s134 -58 134 -130s-58 -130 -134 -130z" />
    <glyph glyph-name="uni048A" unicode="&#x48a;" horiz-adv-x="1583" 
d="M930 1838h176c0 -188 -142 -310 -347 -310s-347 122 -347 310h176c2 -101 71 -168 171 -168s169 67 171 168zM1389 249h179v-62l-120 -472h-267l80 285h-173v249v727h-12l-655 -976h-291v1443h301v-977h12l655 977h291v-1194z" />
    <glyph glyph-name="uniF462" horiz-adv-x="1563" 
d="M1088 0v976h-12l-655 -976h-291v1443h301v-977h12l655 977h291v-1443h-301zM875 1558h-230l226 305h271z" />
    <glyph glyph-name="uniF532" horiz-adv-x="1563" 
d="M930 1838h176c0 -188 -142 -310 -347 -310s-347 122 -347 310h176c2 -101 71 -168 171 -168s169 67 171 168zM1098 1443h291v-1032v-411v-23c0 -228 -137 -342 -400 -342c-21 0 -66 2 -78 3v219c6 -1 28 -1 37 -1c102 0 140 37 140 128v16v411v565h-12l-655 -976h-291
v1443h301v-977h12z" />
    <glyph glyph-name="Kacyrillic" unicode="&#x41a;" horiz-adv-x="1380" 
d="M716 760l645 -760h-377l-544 634h-8v-634h-302v1443h302v-611h8l533 611h341z" />
    <glyph glyph-name="Kjecyrillic" unicode="&#x40c;" horiz-adv-x="1380" 
d="M1075 1848l-267 -305h-230l226 305h271zM716 760l645 -760h-377l-544 634h-8v-634h-302v1443h302v-611h8l533 611h341z" />
    <glyph glyph-name="uni049A" unicode="&#x49a;" horiz-adv-x="1382" 
d="M1150 249h220v-534h-274v285h-105h-7l-544 634h-8v-634h-302v1443h302v-611h8l533 611h341l-598 -683z" />
    <glyph glyph-name="uni049C" unicode="&#x49c;" horiz-adv-x="1493" 
d="M1011 739l463 -739h-345l-380 603h-24v-296h-185v296h-108v-603h-302v1443h302v-619h108v296h185v-296h23l370 619h312z" />
    <glyph glyph-name="uni049E" unicode="&#x49e;" horiz-adv-x="1451" 
d="M772 757l660 -757h-373l-546 616h-25v-616h-302v1103h-156v211h156v129h302v-129h193v-211h-193v-256h25l536 596h340z" />
    <glyph glyph-name="uni04A0" unicode="&#x4a0;" horiz-adv-x="1902" 
d="M1239 760l645 -760h-377l-544 634h-8v-634h-302v1195h-595v248h595h302v-248v-363h8l533 611h341z" />
    <glyph glyph-name="uni04C3" unicode="&#x4c3;" horiz-adv-x="1404" 
d="M1352 1443l-577 -653c319 -79 511 -314 511 -597c0 -353 -238 -613 -584 -613c-48 0 -95 5 -122 11v240c23 -4 49 -6 83 -6c197 0 318 157 318 359c0 236 -192 396 -489 396h-27v-580h-302v1443h302v-614h11l540 614h336z" />
    <glyph glyph-name="uni041A.BUL" horiz-adv-x="1368" 
d="M432 0h-302v1443h302v-658h9l542 658h336l-534 -640l571 -803h-361l-428 603l-135 -162v-441z" />
    <glyph glyph-name="Elcyrillic" unicode="&#x41b;" horiz-adv-x="1469" 
d="M1339 0h-302v1194h-421l-35 -624c-20 -373 -139 -583 -427 -583c-49 0 -89 7 -109 14v264c14 -3 41 -8 67 -8c134 0 180 116 191 333l43 853h993v-1443z" />
    <glyph glyph-name="uni04C5" unicode="&#x4c5;" horiz-adv-x="1532" 
d="M1339 249h178v-62l-121 -472h-266l79 285h-172v249v945h-421l-35 -624c-20 -373 -139 -583 -427 -583c-49 0 -89 7 -109 14v264c14 -3 41 -8 67 -8c134 0 180 116 191 333l43 853h993v-1194z" />
    <glyph glyph-name="uniF530" horiz-adv-x="1559" 
d="M1339 249h180v-534h-274v285h-208v249v945h-421l-35 -624c-20 -373 -139 -583 -427 -583c-49 0 -89 7 -109 14v264c14 -3 41 -8 67 -8c134 0 180 116 191 333l43 853h993v-1194z" />
    <glyph glyph-name="uni052E" unicode="&#x52e;" horiz-adv-x="1559" 
d="M1339 249h180v-534h-274v285h-208v249v945h-421l-35 -624c-20 -373 -139 -583 -427 -583c-49 0 -89 7 -109 14v264c14 -3 41 -8 67 -8c134 0 180 116 191 333l43 853h993v-1194z" />
    <glyph glyph-name="uni0512" unicode="&#x512;" horiz-adv-x="1469" 
d="M346 1443h993v-1082v-361v-23c0 -228 -138 -342 -402 -342c-20 0 -65 2 -77 3v219c6 -1 28 -1 36 -1c103 0 141 37 141 128v16v361v833h-421l-35 -624c-20 -373 -139 -583 -427 -583c-49 0 -89 7 -109 14v264c14 -3 41 -8 67 -8c134 0 180 116 191 333z" />
    <glyph glyph-name="uni041B.BUL" horiz-adv-x="1379" 
d="M33 0l470 1443h365l479 -1443h-343l-316 1106h-18l-311 -1106h-326z" />
    <glyph glyph-name="Emcyrillic" unicode="&#x41c;" horiz-adv-x="1788" 
d="M1658 0h-269v974h-8l-392 -960h-190l-392 960h-8v-974h-269v1443h350l410 -1023h8l410 1023h350v-1443z" />
    <glyph glyph-name="uni04CD" unicode="&#x4cd;" horiz-adv-x="1884" 
d="M1658 249h211v-62l-121 -472h-266l79 285h-172v249v725h-8l-392 -960h-190l-392 960h-8v-974h-269v1443h350l410 -1023h8l410 1023h350v-1194z" />
    <glyph glyph-name="Encyrillic" unicode="&#x41d;" horiz-adv-x="1514" 
d="M1384 0h-302v608h-650v-608h-302v1443h302v-586h650v586h302v-1443z" />
    <glyph glyph-name="uni04C7" unicode="&#x4c7;" horiz-adv-x="1514" 
d="M1082 1443h302v-1089v-354v-23c0 -228 -137 -342 -401 -342c-21 0 -66 2 -78 3v219c6 -1 28 -1 37 -1c102 0 140 37 140 128v16v354v254h-650v-608h-302v1443h302v-586h650v586z" />
    <glyph glyph-name="uni04A2" unicode="&#x4a2;" horiz-adv-x="1604" 
d="M1384 249h180v-534h-273v285h-209v249v359h-650v-608h-302v1443h302v-586h650v586h302v-1194z" />
    <glyph glyph-name="uni04C9" unicode="&#x4c9;" horiz-adv-x="1577" 
d="M1384 249h178v-62l-120 -472h-267l80 285h-173v249v359h-650v-608h-302v1443h302v-586h650v586h302v-1194z" />
    <glyph glyph-name="uni04A4" unicode="&#x4a4;" horiz-adv-x="2075" 
d="M2012 1443v-248h-628v-1195h-302v608h-650v-608h-302v1443h302v-586h650v338v248h302h628z" />
    <glyph glyph-name="Ocyrillic" unicode="&#x41e;" horiz-adv-x="1561" 
d="M781 1468c427 0 696 -287 696 -747c0 -459 -269 -746 -696 -746c-428 0 -696 287 -696 746c0 460 268 747 696 747zM781 1216c-236 0 -388 -192 -388 -495c0 -302 151 -493 388 -493c236 0 387 191 387 493c0 303 -151 495 -387 495z" />
    <glyph glyph-name="uni04E6" unicode="&#x4e6;" horiz-adv-x="1561" 
d="M781 1468c427 0 696 -287 696 -747c0 -459 -269 -746 -696 -746c-428 0 -696 287 -696 746c0 460 268 747 696 747zM781 1216c-236 0 -388 -192 -388 -495c0 -302 151 -493 388 -493c236 0 387 191 387 493c0 303 -151 495 -387 495zM577 1571c-76 0 -134 58 -134 130
s58 130 134 130s134 -58 134 -130s-58 -130 -134 -130zM985 1571c-76 0 -134 58 -134 130s58 130 134 130s134 -58 134 -130s-58 -130 -134 -130z" />
    <glyph glyph-name="uniF518" horiz-adv-x="1561" 
d="M781 1468c427 0 696 -287 696 -747c0 -459 -269 -746 -696 -746c-428 0 -696 287 -696 746c0 460 268 747 696 747zM781 1216c-236 0 -388 -192 -388 -495c0 -302 151 -493 388 -493c236 0 387 191 387 493c0 303 -151 495 -387 495zM1127 1768v-148h-692v148h692z" />
    <glyph glyph-name="uniF463" horiz-adv-x="1561" 
d="M781 1468c427 0 696 -287 696 -747c0 -459 -269 -746 -696 -746c-428 0 -696 287 -696 746c0 460 268 747 696 747zM781 1216c-236 0 -388 -192 -388 -495c0 -302 151 -493 388 -493c236 0 387 191 387 493c0 303 -151 495 -387 495zM896 1558h-230l226 305h271z" />
    <glyph glyph-name="uniF4D2" horiz-adv-x="1561" 
d="M781 1468c427 0 696 -287 696 -747c0 -459 -269 -746 -696 -746c-428 0 -696 287 -696 746c0 460 268 747 696 747zM781 1216c-236 0 -388 -192 -388 -495c0 -302 151 -493 388 -493c236 0 387 191 387 493c0 303 -151 495 -387 495zM663 1563l-267 305h271l226 -305
h-230z" />
    <glyph glyph-name="uniF51A" horiz-adv-x="1561" 
d="M781 1468c427 0 696 -287 696 -747c0 -459 -269 -746 -696 -746c-428 0 -696 287 -696 746c0 460 268 747 696 747zM781 1216c-236 0 -388 -192 -388 -495c0 -302 151 -493 388 -493c236 0 387 191 387 493c0 303 -151 495 -387 495zM435 1863h176
c2 -101 71 -168 171 -168s169 67 171 168h176c0 -188 -142 -310 -347 -310s-347 122 -347 310z" />
    <glyph glyph-name="uni04E8" unicode="&#x4e8;" horiz-adv-x="1557" 
d="M1161 618h-764c31 -247 172 -401 383 -401c208 0 350 154 381 401zM400 848h758c-36 235 -176 379 -378 379s-343 -144 -380 -379zM780 1480c425 0 693 -291 693 -758s-267 -759 -693 -759c-429 0 -695 292 -695 759c0 468 270 758 695 758z" />
    <glyph glyph-name="uniF49A" horiz-adv-x="1557" 
d="M1127 1768v-148h-692v148h692zM1161 618h-764c31 -247 172 -401 383 -401c208 0 350 154 381 401zM400 848h758c-36 235 -176 379 -378 379s-343 -144 -380 -379zM780 1480c425 0 693 -291 693 -758s-267 -759 -693 -759c-429 0 -695 292 -695 759c0 468 270 758 695 758
z" />
    <glyph glyph-name="uniF51C" horiz-adv-x="1557" 
d="M953 1863h176c0 -188 -142 -310 -347 -310s-347 122 -347 310h176c2 -101 71 -168 171 -168s169 67 171 168zM1161 618h-764c31 -247 172 -401 383 -401c208 0 350 154 381 401zM400 848h758c-36 235 -176 379 -378 379s-343 -144 -380 -379zM780 1480
c425 0 693 -291 693 -758s-267 -759 -693 -759c-429 0 -695 292 -695 759c0 468 270 758 695 758z" />
    <glyph glyph-name="uniF51E" horiz-adv-x="1557" 
d="M950 2170h217c0 -175 -151 -290 -388 -290c-238 0 -389 115 -389 290h217c2 -79 69 -133 172 -133s169 54 171 133zM1167 1554h-217c-2 79 -68 132 -171 132s-170 -53 -172 -132h-217c0 174 151 290 389 290c237 0 388 -116 388 -290zM1161 618h-764
c31 -247 172 -401 383 -401c208 0 350 154 381 401zM400 848h758c-36 235 -176 379 -378 379s-343 -144 -380 -379zM780 1480c425 0 693 -291 693 -758s-267 -759 -693 -759c-429 0 -695 292 -695 759c0 468 270 758 695 758z" />
    <glyph glyph-name="uni04EA" unicode="&#x4ea;" horiz-adv-x="1557" 
d="M985 1571c-76 0 -134 58 -134 130s58 130 134 130s134 -58 134 -130s-58 -130 -134 -130zM577 1571c-76 0 -134 58 -134 130s58 130 134 130s134 -58 134 -130s-58 -130 -134 -130zM1161 618h-764c31 -247 172 -401 383 -401c208 0 350 154 381 401zM400 848h758
c-36 235 -176 379 -378 379s-343 -144 -380 -379zM780 1480c425 0 693 -291 693 -758s-267 -759 -693 -759c-429 0 -695 292 -695 759c0 468 270 758 695 758z" />
    <glyph glyph-name="uni0472" unicode="&#x472;" horiz-adv-x="1557" 
d="M780 217c212 0 355 159 382 414c-49 -42 -112 -63 -181 -63c-181 1 -278 91 -421 91c-82 0 -133 -26 -161 -58c35 -237 175 -384 381 -384zM780 1227c-209 0 -353 -153 -383 -403c46 37 104 58 172 58c179 0 275 -91 423 -91c85 0 137 28 165 61
c-37 233 -176 375 -377 375zM780 1480c425 0 693 -291 693 -758s-267 -759 -693 -759c-429 0 -695 292 -695 759c0 468 270 758 695 758z" />
    <glyph glyph-name="Pecyrillic" unicode="&#x41f;" horiz-adv-x="1499" 
d="M1369 0h-301v1193h-635v-1193h-303v1443h1239v-1443z" />
    <glyph glyph-name="uni0524" unicode="&#x524;" horiz-adv-x="1589" 
d="M1369 249h180v-534h-274v285h-207v249v944h-635v-1193h-303v1443h1239v-1194z" />
    <glyph glyph-name="Dzhecyrillic" unicode="&#x40f;" horiz-adv-x="1499" 
d="M608 0h-478v1443h302v-1194h635v1194h302v-1443h-478v-285h-283v285z" />
    <glyph glyph-name="Ercyrillic" unicode="&#x420;" horiz-adv-x="1295" 
d="M130 1443h587c296 0 500 -197 500 -494c0 -296 -211 -494 -515 -494h-270v-455h-302v1443zM432 1204v-513h204c173 0 274 92 274 257c0 164 -100 256 -273 256h-205z" />
    <glyph glyph-name="uni048E" unicode="&#x48e;" horiz-adv-x="1290" 
d="M427 688h204c15 0 30 1 45 2l-110 173l145 94l129 -198c45 43 68 107 68 187c0 168 -101 257 -276 257h-205v-515zM125 1443h587c297 0 500 -198 500 -496c0 -170 -77 -310 -208 -397l128 -194l-185 -127l-153 239c-42 -8 -86 -12 -133 -12h-234v-456h-302v1443z" />
    <glyph glyph-name="uniF4D4" horiz-adv-x="1295" 
d="M130 1443h587c296 0 500 -197 500 -494c0 -296 -211 -494 -515 -494h-270v-455h-302v1443zM432 1204v-513h204c173 0 274 92 274 257c0 164 -100 256 -273 256h-205zM528 1543l-269 317h221l156 -192h8l156 192h221l-269 -317h-224z" />
    <glyph glyph-name="Escyrillic" unicode="&#x421;" horiz-adv-x="1477" 
d="M768 -32c-420 0 -683 288 -683 754c0 465 265 753 683 753c336 0 594 -212 632 -519h-297c-38 159 -169 262 -335 262c-228 0 -375 -191 -375 -495c0 -308 145 -498 376 -498c169 0 293 93 335 247h297c-47 -308 -290 -504 -633 -504z" />
    <glyph glyph-name="uni04AA" unicode="&#x4aa;" horiz-adv-x="1479" 
d="M1109 501h294c-32 -299 -246 -496 -560 -523l-41 -88c113 -1 188 -62 188 -164c0 -121 -96 -185 -248 -186c-57 -1 -116 5 -142 14v122c24 -7 73 -12 112 -12c75 0 111 18 111 54c0 41 -35 55 -123 55h-63v98l49 108c-372 34 -601 308 -601 743c0 465 265 746 683 746
c347 0 611 -220 634 -543h-294c-28 177 -164 293 -340 293c-228 0 -375 -191 -375 -495c0 -308 145 -498 376 -498c179 0 308 105 340 276z" />
    <glyph glyph-name="uniF53E" horiz-adv-x="1479" 
d="M1109 501h294c-29 -276 -215 -465 -490 -514v-272h-273v269c-345 53 -555 321 -555 738c0 465 265 746 683 746c347 0 611 -220 634 -543h-294c-28 177 -164 293 -340 293c-228 0 -375 -191 -375 -495c0 -308 145 -498 376 -498c179 0 308 105 340 276z" />
    <glyph glyph-name="Tecyrillic" unicode="&#x422;" horiz-adv-x="1252" 
d="M777 0h-302v1194h-417v249h1137v-249h-418v-1194z" />
    <glyph glyph-name="uni04AC" unicode="&#x4ac;" horiz-adv-x="1252" 
d="M1195 1194h-418v-945h185v-534h-273v285h-209h-5v1194h-417v249h1137v-249z" />
    <glyph glyph-name="Ucyrillic" unicode="&#x423;" horiz-adv-x="1336" 
d="M350 -13c-62 0 -117 10 -125 15v246c10 -3 37 -9 88 -9c88 0 153 26 204 105l-479 1099h320l315 -802h12l300 802h318l-442 -1030c-126 -293 -254 -426 -511 -426z" />
    <glyph glyph-name="Ushortcyrillic" unicode="&#x40e;" horiz-adv-x="1336" 
d="M350 -13c-62 0 -117 10 -125 15v246c10 -3 37 -9 88 -9c88 0 153 26 204 105l-479 1099h320l315 -802h12l300 802h318l-442 -1030c-126 -293 -254 -426 -511 -426zM332 1838h176c2 -101 71 -168 171 -168s169 67 171 168h176c0 -188 -142 -310 -347 -310
s-347 122 -347 310z" />
    <glyph glyph-name="uni04EE" unicode="&#x4ee;" horiz-adv-x="1336" 
d="M350 -13c-62 0 -117 10 -125 15v246c10 -3 37 -9 88 -9c88 0 153 26 204 105l-479 1099h320l315 -802h12l300 802h318l-442 -1030c-126 -293 -254 -426 -511 -426zM1025 1769v-148h-692v148h692z" />
    <glyph glyph-name="uni04F0" unicode="&#x4f0;" horiz-adv-x="1336" 
d="M350 -13c-62 0 -117 10 -125 15v246c10 -3 37 -9 88 -9c88 0 153 26 204 105l-479 1099h320l315 -802h12l300 802h318l-442 -1030c-126 -293 -254 -426 -511 -426zM475 1571c-76 0 -134 58 -134 130s58 130 134 130s134 -58 134 -130s-58 -130 -134 -130zM883 1571
c-76 0 -134 58 -134 130s58 130 134 130s134 -58 134 -130s-58 -130 -134 -130z" />
    <glyph glyph-name="uni04F2" unicode="&#x4f2;" horiz-adv-x="1336" 
d="M350 -13c-62 0 -117 10 -125 15v246c10 -3 37 -9 88 -9c88 0 153 26 204 105l-479 1099h320l315 -802h12l300 802h318l-442 -1030c-126 -293 -254 -426 -511 -426zM998 1558h-230l226 305h271zM598 1558h-230l226 305h271z" />
    <glyph glyph-name="uniF4CC" horiz-adv-x="1336" 
d="M350 -13c-62 0 -117 10 -125 15v246c10 -3 37 -9 88 -9c88 0 153 26 204 105l-479 1099h320l315 -802h12l300 802h318l-442 -1030c-126 -293 -254 -426 -511 -426zM810 1558h-230l226 305h271z" />
    <glyph glyph-name="uniF464" horiz-adv-x="1336" 
d="M350 -13c-62 0 -117 10 -125 15v246c10 -3 37 -9 88 -9c88 0 153 26 204 105l-479 1099h320l315 -802h12l300 802h318l-442 -1030c-126 -293 -254 -426 -511 -426zM810 1558h-230l226 305h271z" />
    <glyph glyph-name="Efcyrillic" unicode="&#x424;" horiz-adv-x="1766" 
d="M738 367v715c-221 -11 -364 -145 -364 -357c0 -215 143 -349 364 -358zM1392 724c0 214 -143 348 -364 358v-715c221 10 364 144 364 357zM735 124c-401 12 -665 234 -665 601c0 364 264 586 665 599v149h297v-149c401 -12 664 -234 664 -600c0 -365 -264 -587 -664 -600
v-154h-297v154z" />
    <glyph glyph-name="Xacyrillic" unicode="&#x425;" horiz-adv-x="1424" 
d="M53 0l458 723v8l-455 712h355l306 -520h8l309 520h337l-472 -718v-7l466 -718h-344l-316 505h-8l-318 -505h-326z" />
    <glyph glyph-name="uni04B2" unicode="&#x4b2;" horiz-adv-x="1433" 
d="M1203 249h207v-534h-274v285h-115l-316 505h-8l-318 -505h-326l458 723v8l-455 712h355l306 -520h8l309 520h337l-472 -718v-7z" />
    <glyph glyph-name="uni04FE" unicode="&#x4fe;" horiz-adv-x="1424" 
d="M1264 632h-309l410 -632h-344l-316 505h-8l-318 -505h-326l400 632h-294v189h294l-397 622h355l306 -520h8l309 520h337l-409 -622h302v-189z" />
    <glyph glyph-name="uni04FC" unicode="&#x4fc;" horiz-adv-x="1422" 
d="M56 1443h355l301 -511h18l304 511h338l-475 -721l239 -369c52 -80 90 -145 121 -207c41 -83 55 -146 55 -216c0 -201 -150 -337 -372 -337c-55 0 -100 4 -126 9v230c21 -3 41 -5 69 -5c75 0 128 43 128 108c0 35 -7 68 -27 110c-21 44 -49 94 -89 157l-184 294h-18
l-314 -496h-326l461 727z" />
    <glyph glyph-name="Tsecyrillic" unicode="&#x426;" horiz-adv-x="1589" 
d="M1549 -285h-273v285h-1146v1443h302v-1194h635v1194h302v-1194h180v-534z" />
    <glyph glyph-name="uni04B4" unicode="&#x4b4;" horiz-adv-x="1944" 
d="M1724 249h180v-534h-273v285h-1156v1194h-417v249h417h302h414v-249h-414v-945h645v1194h302v-1194z" />
    <glyph glyph-name="Checyrillic" unicode="&#x427;" horiz-adv-x="1437" 
d="M1307 0h-302v593h-12c-41 -32 -158 -95 -334 -95c-355 0 -551 226 -551 535v410h302v-387c0 -188 106 -299 304 -299c161 0 252 62 291 101v585h302v-1443z" />
    <glyph glyph-name="uni04F4" unicode="&#x4f4;" horiz-adv-x="1437" 
d="M1307 0h-302v593h-12c-41 -32 -158 -95 -334 -95c-355 0 -551 226 -551 535v410h302v-387c0 -188 106 -299 304 -299c161 0 252 62 291 101v585h302v-1443zM520 1571c-76 0 -134 58 -134 130s58 130 134 130s134 -58 134 -130s-58 -130 -134 -130zM928 1571
c-76 0 -134 58 -134 130s58 130 134 130s134 -58 134 -130s-58 -130 -134 -130z" />
    <glyph glyph-name="uni04B6" unicode="&#x4b6;" horiz-adv-x="1527" 
d="M1307 249h180v-534h-274v285h-208v249v344h-12c-41 -32 -158 -95 -334 -95c-355 0 -551 226 -551 535v410h302v-387c0 -188 106 -299 304 -299c161 0 252 62 291 101v585h302v-1194z" />
    <glyph glyph-name="uni04CB" unicode="&#x4cb;" horiz-adv-x="1437" 
d="M1005 1443h302v-1194v-249h-209v-285h-273v534h180v344h-12c-41 -32 -158 -95 -334 -95c-355 0 -551 226 -551 535v410h302v-387c0 -188 106 -299 304 -299c161 0 252 62 291 101v585z" />
    </font>
</defs>
</svg>
